<?xml version="1.0" encoding="UTF-8"?>
<!-- Generator: visioncortex VTracer 0.6.12 -->
<svg viewBox="0 0 500 500" version="1.1" xmlns="http://www.w3.org/2000/svg" width="500" height="500">
<path d="M0 0 C165 0 329.6 0 500 0 C500 164.8 500 329.6 500 500 C335 500 169.6 500 0 500 C0 335.2 0 169.6 0 0 Z " fill="#0C0908" transform="translate(0,0)"/>
<path d="M0 0 C165 0 329.6 0 500 0 C500.289 66.4 500.8 133.6 500.8 202.4 C501.002 223.2 500.8 244 501.6 265.6 C501.324 292 501.6 292 501.6 304 C501.349 312 501.6 320.8 501.6 328.8 C501.568 338.4 501.6 348.8 501.6 358.4 C501.58 363.2 501.6 368 501.6 372.8 C502.128 404 502.4 404 496.8 414.4 C494.028 419.2 490.4 424.8 486.4 428 C483 427.2 483.2 427.2 481.6 425.6 C481.249 424.8 480.8 424 480 424 C479.872 423.2 479.2 422.4 479.2 421.6 C478.36 420.8 477.6 420 477.6 419.2 C476.779 418.4 476 417.6 476 416.8 C471.38 410.4 467.2 404 464 397.6 C463.043 396 462.4 394.4 461.6 392.8 C456.694 384.8 454.4 375.2 452 366.4 C451.751 364.8 451.2 364 451.2 363.2 C447.537 344.8 450.4 326.4 453.6 308.8 C458.082 281.6 459.2 248 451.2 221.6 C450.839 219.2 450.4 216.8 449.6 214.4 C445.486 199.2 440.8 184 433.6 170.4 C433.037 169.6 432.8 168.8 432 168 C431.38 166.4 430.4 164.8 429.6 163.2 C428.23 160 427.2 158.4 427.2 155.2 C427.19 152.8 427.2 151.2 428 148.8 C428.819 144 428.8 139.2 428.8 134.4 C429.172 133.6 428.8 132.8 428.8 132 C429.19 129.6 428.8 127.2 428.8 124.8 C429.187 124 428.8 123.2 428.8 122.4 C429.165 108.8 428.8 95.2 427.2 81.6 C426.888 80.8 426.4 80 426.4 79.2 C425.88 72.8 424.8 66.4 424 60 C423.885 59.2 424 58.4 424 57.6 C421.558 44.8 418.4 30.4 411.2 19.2 C408.812 16 408.8 16 406.4 15.2 C402.458 14.4 399.2 14.4 396 15.2 C389.771 16.8 384 20 377.6 23.2 C377.338 23.2 376.8 24 376 24 C359.002 32 342.4 44 329.6 57.6 C329.02 58.4 328.8 58.4 328 59.2 C326.777 60.8 325.6 61.6 324.8 63.2 C323.175 64.8 321.6 65.6 320 67.2 C317.244 67.2 314.4 67.2 312 67.2 C311.401 67.2 311.2 67.2 310.4 66.4 C308.369 66.4 306.4 66.4 304.8 65.6 C292.743 64 280.8 64 268.8 66.4 C259.145 67.2 259.2 67.2 255.2 65.6 C253.021 64 251.2 62.4 248.8 60.8 C243 57.6 236.8 57.6 230.4 57.6 C225.004 57.6 220 58.4 215.2 60 C212.423 60 210.4 60 208 59.2 C205.96 56.8 204 55.2 202.4 52.8 C201.57 52 200.8 50.4 199.2 48.8 C198.892 48.8 198.4 48 197.6 47.2 C189.35 36.8 180.8 28 169.6 20 C169.557 20 169.6 20 167.2 18.4 C164.908 16 162.4 14.4 160 12.8 C159.482 12.8 159.2 12 158.4 12 C155.246 9.6 152 9.6 148.8 9.6 C145.132 9.6 142.4 9.6 140 12 C128.834 20.8 123.2 35.2 118.4 48.8 C110.528 71.2 103.2 95.2 101.6 119.2 C101.254 120 101.6 120 100.8 120.8 C101.125 121.6 100.8 121.6 100.8 123.2 C99.656 138.4 100 138.4 97.6 142.4 C95.563 144.8 95.2 144.8 93.6 147.2 C79.997 162.4 73.6 185.6 68.8 204.8 C68.348 208.8 68 212.8 67.2 216.8 C66.785 218.4 66.4 219.2 66.4 220.8 C64.426 232.8 64 244 64 256 C63.875 257.6 64 260 64 262.4 C63.846 288.8 68 314.4 81.6 337.6 C83 340 83.2 340 84.8 342.4 C85.173 342.4 85.6 343.2 86.4 344 C85.555 347.2 84.8 348.8 82.4 351.2 C82.304 352 81.6 352.8 81.6 353.6 C80.848 354.4 80 355.2 80 355.2 C79.281 356 78.4 356.8 78.4 357.6 C70.873 368 63.2 378.4 56 388 C49.178 396.8 43.2 405.6 36.8 415.2 C36.452 416 36 417.6 35.2 418.4 C24.053 436 16 456.8 14.4 477.6 C14.537 480.8 14.4 483.2 14.4 486.4 C14.337 488 14.4 489.6 14.4 490.4 C14.162 493.6 14.4 496.8 14.4 500 C9.38 500 4.8 500 0 500 C0 335.2 0 169.6 0 0 Z " fill="#FEFEFE" transform="translate(0,0)"/>
<path d="M0 0 C0.901 0 1.6 0 2.4 0 C7.954 0 12 0.8 16.8 3.2 C20.652 6.4 24.8 9.6 28 12.8 C28.47 12.8 28.8 12.8 29.6 14.4 C31.25 15.2 31.2 15.2 32.8 17.6 C34 20.8 33.6 20.8 34.4 22.4 C37.815 22.4 40.8 20.8 44 19.2 C52.7 16.8 61.6 16 70.4 17.6 C80.684 20.8 89.6 28 98.4 34.4 C98.752 35.2 99.2 35.2 100 36 C110.56 44.8 120.8 54.4 128.8 64.8 C130.41 66.4 132 68 133.6 70.4 C153.201 94.4 167.2 125.6 172 156.8 C175.572 177.6 175.2 202.4 168.8 222.4 C169 223.2 168.8 224 168.8 224.8 C165.232 236.8 160.8 252 152.8 262.4 C152.527 262.4 152 262.4 151.2 262.4 C150.858 258.4 150.4 254.4 150.4 249.6 C148.538 249.6 147.2 250.4 144.8 250.4 C143.449 252.8 143.2 252.8 141.6 256 C138.539 261.6 135.2 266.4 130.4 270.4 C129.858 270.4 129.6 270.4 128.8 270.4 C128.81 264.8 130.4 260 132 254.4 C132.434 253.6 132.8 252.8 132.8 252 C135.935 244 139.2 236.8 143.2 228.8 C145.715 223.2 148 218.4 150.4 212.8 C150.346 212 150.4 212 151.2 210.4 C155.433 199.2 156 186.4 156 174.4 C155.75 174.4 156 174.4 156 172 C155.706 155.2 152.8 138.4 148.8 121.6 C148.948 120.8 148.8 119.2 148.8 118.4 C143.194 95.2 143.2 95.2 138.4 85.6 C137.197 85.6 136 85.6 135.2 85.6 C135.902 91.2 136.8 96.8 138.4 102.4 C138.6 103.2 138.4 103.2 139.2 104.8 C140.068 108.8 140.8 112.8 142.4 116.8 C144.535 125.6 146.4 134.4 148 143.2 C148.045 144 148 144.8 148 145.6 C149.88 155.2 150.4 164.8 150.4 175.2 C150.625 176 150.4 176.8 150.4 176.8 C150.581 188 148.8 199.2 145.6 209.6 C145.303 210.4 144.8 211.2 144.8 212 C136.293 236 120.8 256 104.8 274.4 C103.793 276 103.2 276.8 102.4 277.6 C101.793 278.4 101.6 278.4 100.8 279.2 C100.019 280 99.2 281.6 98.4 282.4 C97.938 284.8 97.6 284.8 98.4 286.4 C99.93 287.2 100 287.2 102.4 286.4 C104.195 284.8 104 284.8 106.4 281.6 C107.097 280.8 108 280 108.8 279.2 C109.076 278.4 109.6 277.6 109.6 277.6 C112.098 274.4 114.4 272 116.8 268.8 C117.05 268.8 117.6 268 117.6 267.2 C118.959 266.4 120 264.8 120.8 264 C121.848 264 122.4 264 123.2 264 C122.919 264.8 122.4 266.4 122.4 268 C122.196 269.6 122.4 270.4 121.6 271.2 C121.412 273.6 120.8 276 120 277.6 C118.304 286.4 117.6 294.4 117.6 303.2 C117.872 303.2 117.6 303.2 117.6 306.4 C117.998 322.4 117.6 322.4 121.6 328.8 C122.188 330.4 122.4 330.4 122.4 333.6 C117.983 333.6 115.2 332 112 329.6 C104.62 324.8 100 320 96 312 C95.886 311.2 95.2 310.4 95.2 309.6 C94.818 308.8 94.4 308 94.4 307.2 C93.217 304.8 92.8 303.2 92.8 300.8 C92.932 300 92.8 299.2 92.8 298.4 C93.224 296 93.6 295.2 95.2 293.6 C95.312 291.2 95.2 291.2 95.2 289.6 C93.426 289.6 93.6 289.6 91.2 290.4 C89.7 292.8 88.8 294.4 87.2 296.8 C87.033 296.8 86.4 297.6 86.4 298.4 C76.505 316.8 72 336 72.8 356.8 C73.1 361.6 73.6 366.4 76 371.2 C76.049 371.2 76 371.2 76.8 372.8 C79.832 373.6 80 373.6 82.4 373.6 C81.768 371.2 81.6 368.8 80 366.4 C77.572 361.6 78.4 355.2 78.4 349.6 C78.13 348.8 78.4 347.2 78.4 346.4 C78.15 344.8 78.4 342.4 78.4 340.8 C79.178 340.8 80 340.8 80.8 340.8 C82.555 341.6 82.4 341.6 84 344 C90.426 351.2 98.4 357.6 105.6 364.8 C106.772 365.6 108 366.4 108.8 368 C109.826 368 110.4 368.8 111.2 369.6 C114.263 372 116.8 374.4 118.4 378.4 C119.784 384.8 119.2 390.4 119.2 396.8 C118.197 396 117.6 396 116 396 C115.33 392.8 114.4 390.4 114.4 388 C113.728 387.2 113.6 385.6 112.8 384 C112.983 384 112.8 384 112.8 382.4 C112.188 380.8 112 380.8 111.2 378.4 C109.125 378.4 108.8 378.4 107.2 378.4 C107.343 379.2 107.2 380 108 380.8 C109.016 389.6 109.6 399.2 107.2 407.2 C104.817 412 102.4 416 98.4 420 C97.527 420 96.8 420 96 420 C95.707 417.6 95.2 415.2 95.2 412.8 C93.34 404 89.6 395.2 84 388 C81.202 384.8 78.4 381.6 75.2 379.2 C67.401 371.2 63.2 362.4 60 352 C54.213 331.2 56.8 308 61.6 287.2 C68.11 262.4 76 236.8 92.8 218.4 C94.188 216 94.4 216 94.4 212.8 C94.345 212 94.4 211.2 94.4 210.4 C92.441 211.2 92.8 211.2 90.4 212 C88.714 213.6 87.2 215.2 86.4 216.8 C80.006 224.8 72 230.4 63.2 234.4 C62.528 234.4 61.6 234.4 60.8 234.4 C61.794 231.2 63.2 228.8 65.6 225.6 C77.637 210.4 84 190.4 88 172 C88.327 171.2 88.8 170.4 88.8 169.6 C91.059 158.4 92 147.2 91.2 136 C91.5 132.8 91.2 130.4 91.2 127.2 C91.504 125.6 91.2 124 91.2 121.6 C91.489 121.6 91.2 121.6 91.2 119.2 C91.363 108.8 91.2 108.8 88.8 104.8 C88.197 104.8 87.2 104.8 86.4 104.8 C86.19 104.8 86.4 105.6 86.4 106.4 C86.217 112 86.4 116.8 86.4 122.4 C86.247 124.8 86.4 126.4 86.4 128.8 C86.275 131.2 86.4 134.4 86.4 137.6 C86.29 138.4 86.4 139.2 86.4 140 C86.301 145.6 85.6 152 84.8 157.6 C84.197 157.6 83.2 157.6 82.4 157.6 C80.932 156.8 80.8 156.8 80 155.2 C79.243 154.4 78.4 153.6 78.4 152.8 C77.842 152.8 77.6 152 76.8 151.2 C76.628 151.2 76.8 151.2 75.2 149.6 C69.022 140.8 64.8 132 60 122.4 C59.765 121.6 59.2 120.8 59.2 120 C58.715 119.2 58.4 119.2 57.6 116.8 C57.401 116 56.8 115.2 56.8 114.4 C56.525 113.6 56 113.6 56 112.8 C56.847 112 57.6 111.2 58.4 110.4 C58.847 111.2 59.2 112 60 112.8 C62.812 112.8 63.2 112.8 64.8 112.8 C65 111.2 64.8 111.2 64 108.8 C61.938 107.2 61.6 107.2 59.2 104.8 C56.438 103.2 56.8 103.2 54.4 101.6 C52.553 96.8 52 92 52.8 86.4 C54.223 83.2 56 79.2 56.8 76 C59.299 69.6 60 64 60 57.6 C59.197 57.6 58.4 57.6 56.8 57.6 C56.331 59.2 56 59.2 56 61.6 C55.512 62.4 55.2 62.4 55.2 64 C54.564 65.6 54.4 66.4 54.4 67.2 C51.752 74.4 49.6 80.8 46.4 88 C45.679 88.8 45.6 89.6 44.8 89.6 C44.082 92 44 92 42.4 94.4 C40.199 96 40 96 38.4 96 C35.93 95.2 36 95.2 34.4 93.6 C33.945 92 33.6 92 34.4 89.6 C34.438 88.8 34.4 88 34.4 87.2 C35.126 84.8 36 83.2 36 80.8 C37.105 77.6 37.6 76 36.8 72.8 C35.316 72.8 35.2 72.8 32.8 73.6 C32.284 76 32 77.6 31.2 80 C29.926 84.8 28.8 88.8 26.4 92.8 C23 93.6 23.2 93.6 20 93.6 C20.188 94.4 20 96 20 96.8 C21.178 96.8 22.4 97.6 23.2 97.6 C23 103.2 21.6 107.2 19.2 112 C18.53 112.8 18.4 113.6 17.6 114.4 C11.743 127.2 4 139.2 -4.8 149.6 C-5.515 150.4 -6.4 151.2 -7.2 152 C-10.99 156.8 -11.2 156.8 -12.8 158.4 C-13.472 158.4 -14.4 158.4 -15.2 158.4 C-14.702 158.4 -14.4 157.6 -14.4 156.8 C-11.205 141.6 -8.8 126.4 -8.8 111.2 C-8.411 110.4 -8 109.6 -8 108.8 C-8.352 107.2 -8 107.2 -8.8 104 C-10.773 102.4 -10.4 102.4 -12.8 102.4 C-13.143 103.2 -13.6 103.2 -13.6 104 C-14.042 104.8 -14.4 106.4 -14.4 107.2 C-15.406 112.8 -16.8 117.6 -19.2 122.4 C-21.754 128.8 -24 135.2 -25.6 141.6 C-25.89 142.4 -26.4 143.2 -26.4 144 C-27.425 148.8 -28 152.8 -28.8 157.6 C-29.472 157.6 -30.4 157.6 -31.2 157.6 C-37.07 144.8 -37.6 129.6 -37.6 116 C-37.253 116 -37.6 116 -37.6 114.4 C-37.352 100 -35.2 87.2 -28.8 74.4 C-28.059 73.6 -27.2 72 -26.4 70.4 C-24.812 68 -24.8 68 -24.8 64.8 C-24.645 64 -24.8 63.2 -24.8 62.4 C-26.562 62.4 -26.4 62.4 -28.8 64 C-30.357 65.6 -31.2 67.2 -32.8 69.6 C-33.161 70.4 -33.6 71.2 -33.6 72 C-36.857 77.6 -38.4 83.2 -40 88.8 C-40.349 89.6 -40.8 90.4 -40.8 92 C-41.143 92 -41.6 92 -41.6 92.8 C-44.006 92.8 -46.4 92.8 -48 92.8 C-48.991 93.6 -49.6 93.6 -50.4 93.6 C-51.764 93.6 -53.6 93.6 -55.2 93.6 C-54.812 84.8 -51.2 77.6 -47.2 70.4 C-44.558 66.4 -41.6 63.2 -39.2 60 C-38.101 58.4 -37.6 57.6 -36.8 56.8 C-31.151 51.2 -25.6 45.6 -18.4 40 C-18.095 40 -17.6 39.2 -16.8 39.2 C-15.883 38.4 -14.4 37.6 -13.6 36.8 C-12.156 36 -12 36 -9.6 33.6 C-9.812 32.8 -9.6 32 -9.6 30.4 C-13.284 31.2 -15.2 31.2 -18.4 33.6 C-19.557 34.4 -20.8 34.4 -21.6 35.2 C-21.948 36 -22.4 36 -23.2 36.8 C-36.642 47.2 -48.8 59.2 -56 75.2 C-56.79 76.8 -57.6 79.2 -58.4 80.8 C-58.812 82.4 -59.2 82.4 -60 84.8 C-61.331 88 -61.6 91.2 -62.4 94.4 C-62.305 95.2 -62.4 96 -63.2 96.8 C-64.883 97.6 -64.8 97.6 -67.2 97.6 C-65.442 84.8 -60 72 -52 61.6 C-47.078 55.2 -41.6 49.6 -36 44 C-35.644 44 -36 44 -35.2 42.4 C-34.812 41.6 -35.2 40.8 -35.2 40 C-37.506 40 -39.2 40 -41.6 41.6 C-54.213 53.6 -64.8 66.4 -70.4 83.2 C-71.634 87.2 -72.8 92 -73.6 97.6 C-73.69 99.2 -74.4 101.6 -75.2 104 C-76.809 105.6 -76.8 105.6 -79.2 106.4 C-79.472 106.4 -80 106.4 -80.8 106.4 C-81.125 108.8 -80.8 108.8 -80.8 110.4 C-79.958 110.4 -79.2 111.2 -78.4 111.2 C-77.427 112 -76.8 112 -76 112.8 C-75.551 116 -76 119.2 -76.8 122.4 C-78.375 131.2 -79.2 139.2 -79.2 148 C-79.536 148.8 -79.2 150.4 -80 151.2 C-79.685 153.6 -80 156 -80 158.4 C-83.672 156.8 -84 156.8 -84.8 155.2 C-89.305 146.4 -92 136 -92 126.4 C-92.498 125.6 -92.8 124.8 -92.8 124.8 C-94.781 124 -94.4 124 -96.8 124 C-97.142 124 -97.6 124 -97.6 124.8 C-97.748 126.4 -97.6 128.8 -97.6 130.4 C-97.347 131.2 -97.6 132.8 -96.8 133.6 C-96.812 136.8 -96.8 136.8 -96 138.4 C-95.333 142.4 -95.2 146.4 -96.8 150.4 C-96.882 152 -97.6 152.8 -97.6 153.6 C-99.754 160.8 -100.8 168 -102.4 175.2 C-102.494 176 -102.4 176 -103.2 177.6 C-103.014 178.4 -103.2 179.2 -103.2 180 C-103.457 180.8 -104 180.8 -104 181.6 C-104.472 181.6 -104.8 181.6 -105.6 181.6 C-111.268 156.8 -108 128.8 -100.8 104.8 C-99.554 100.8 -98.4 97.6 -96.8 93.6 C-95.43 90.4 -94.4 88 -95.2 84.8 C-97.062 84.8 -96.8 84.8 -100 85.6 C-101.718 88 -102.4 90.4 -104 93.6 C-104.215 94.4 -104.8 96 -104.8 96.8 C-114.295 121.6 -116.8 151.2 -112.8 177.6 C-109.786 193.6 -105.6 210.4 -96 223.2 C-93.606 225.6 -92 228 -88.8 229.6 C-88.698 230.4 -88.8 230.4 -87.2 232 C-86.812 232 -87.2 232.8 -87.2 233.6 C-96.232 232 -104 228 -111.2 222.4 C-123.241 212.8 -123.2 212.8 -125.6 208 C-128.875 207.2 -128.8 207.2 -132 208 C-131.812 210.4 -132 213.6 -132 216.8 C-132.472 216.8 -132.8 216.8 -133.6 216.8 C-137.264 209.6 -137.6 201.6 -139.2 194.4 C-139.087 193.6 -139.2 193.6 -139.2 192.8 C-141.293 177.6 -141.6 163.2 -140.8 148.8 C-142.792 148.8 -144.8 148.8 -147.2 148.8 C-146.694 153.6 -146.4 159.2 -146.4 164 C-146.397 165.6 -146.4 168 -146.4 169.6 C-146.257 172 -146.4 174.4 -146.4 176.8 C-146.112 177.6 -146.4 178.4 -146.4 179.2 C-145.965 183.2 -145.6 187.2 -144.8 192 C-144.724 193.6 -144.8 196 -144.8 197.6 C-144.686 198.4 -144.8 198.4 -144.8 200.8 C-144.812 204 -144.8 204 -145.6 205.6 C-145.936 208 -146.4 210.4 -146.4 212.8 C-146.018 212.8 -146.4 212.8 -146.4 214.4 C-146.042 216 -146.4 217.6 -146.4 219.2 C-146.062 220.8 -146.4 223.2 -146.4 225.6 C-146.233 240 -144.8 255.2 -137.6 268.8 C-137.703 268.8 -137.6 268.8 -136.8 269.6 C-135.822 269.6 -135.2 269.6 -133.6 269.6 C-132.778 267.2 -132 264.8 -131.2 262.4 C-131.141 261.6 -131.2 261.6 -130.4 260 C-129.237 255.2 -128 250.4 -127.2 246.4 C-127.119 245.6 -127.2 244.8 -127.2 244.8 C-126.153 244.8 -125.6 244.8 -124.8 244.8 C-124.165 246.4 -124 248.8 -123.2 251.2 C-123.124 251.2 -123.2 252 -123.2 252.8 C-120.851 262.4 -120.8 272.8 -120.8 282.4 C-120.562 284 -120.8 286.4 -120.8 288 C-120.439 295.2 -120.8 301.6 -124 308 C-129.848 316.8 -139.2 323.2 -148.8 328.8 C-157.168 332 -165.6 336 -175.2 336 C-174.812 334.4 -175.2 333.6 -175.2 332.8 C-173.885 331.2 -173.6 331.2 -172.8 329.6 C-172.332 328.8 -172 328.8 -171.2 327.2 C-170.575 326.4 -170.4 326.4 -169.6 325.6 C-168.391 324 -167.2 322.4 -166.4 320.8 C-165.612 320 -164.8 319.2 -164.8 318.4 C-158.157 310.4 -152 302.4 -146.4 293.6 C-146.041 292.8 -146.4 292.8 -144.8 292 C-142.85 288.8 -140.8 285.6 -140 281.6 C-139.996 279.2 -140 279.2 -140.8 277.6 C-141.79 276 -143.2 275.2 -144 273.6 C-154.418 258.4 -159.2 240 -161.6 221.6 C-164.648 185.6 -160.8 145.6 -145.6 112 C-145.506 111.2 -144.8 110.4 -144.8 109.6 C-135.05 88 -121.6 70.4 -104.8 53.6 C-104.354 52.8 -103.2 52 -102.4 51.2 C-80.077 28.8 -50.4 11.2 -20 2.4 C-13.295 0.8 -7.2 0 0 0 Z " fill="#C99A6D" transform="translate(231.8125,63.375)"/>
<path d="M0 0 C0.99 0 1.6 0 3.2 0 C4.072 1.6 4 1.6 4.8 3.2 C5.417 4 5.6 4.8 6.4 5.6 C6.54 6.4 7.2 8 7.2 8.8 C7.511 8.8 7.2 8.8 8.8 11.2 C17.082 30.4 22.4 49.6 25.6 70.4 C26.052 70.4 26.4 70.4 26.4 72 C30.396 96.8 29.6 124 24 149.6 C19.819 170.4 20.8 192.8 28 212.8 C35.91 236.8 50.4 257.6 67.2 276.8 C67.631 277.6 68 277.6 68.8 278.4 C70 280 70.4 280 72 281.6 C74.609 284 76.8 286.4 78.4 289.6 C79.347 297.6 78.4 304.8 78.4 312.8 C78.46 314.4 78.4 316.8 78.4 319.2 C78.303 324 78.4 328.8 78.4 334.4 C64.936 334.4 52 334.4 39.2 335.2 C32.736 335.2 26.4 335.2 20.8 335.2 C14.749 335.2 8.8 335.2 3.2 335.2 C0.806 335.2 -1.6 336 -4 336 C-17.892 336 -17.6 336 -23.2 334.4 C-25.761 331.2 -27.2 328 -28 324 C-28.129 323.2 -28 321.6 -28.8 320 C-29.193 316.8 -30.4 314.4 -31.2 311.2 C-31.601 309.6 -32 307.2 -32.8 305.6 C-33.049 304 -33.6 301.6 -34.4 300 C-34.551 298.4 -35.2 296.8 -35.2 295.2 C-35.496 294.4 -36 294.4 -36 293.6 C-36.872 289.6 -36.8 287.2 -36 283.2 C-35.734 280.8 -35.2 277.6 -35.2 275.2 C-35.394 274.4 -35.2 273.6 -35.2 272.8 C-35.201 271.2 -35.2 269.6 -35.2 268 C-33.633 268.8 -32 268.8 -31.2 269.6 C-28.14 270.4 -25.6 269.6 -23.2 268.8 C-20.715 247.2 -20.8 247.2 -23.2 238.4 C-24.951 236 -26.4 234.4 -29.6 233.6 C-32.523 232.8 -36 232 -39.2 231.2 C-39.705 231.2 -40 231.2 -40.8 231.2 C-43.047 228.8 -43.2 228.8 -44 225.6 C-44.434 223.2 -44.8 223.2 -44.8 219.2 C-44.457 218.4 -44.8 217.6 -44.8 216 C-44.414 216 -44.8 216 -44 212.8 C-43.331 212 -42.4 211.2 -41.6 210.4 C-41.322 209.6 -40.8 208.8 -40 208 C-39.351 202.4 -40.8 198.4 -42.4 193.6 C-45 187.2 -44.8 187.2 -44.8 184.8 C-45.66 184.8 -46.4 184.8 -47.2 184.8 C-47 184 -47.2 183.2 -47.2 182.4 C-45.876 180.8 -44.8 180 -43.2 178.4 C-39.589 174.4 -36 169.6 -32.8 164.8 C-32.992 164.8 -32.8 164.8 -32 163.2 C-31.34 163.2 -30.4 163.2 -30.4 163.2 C-29.939 164 -29.6 164.8 -29.6 165.6 C-29.775 166.4 -29.6 166.4 -29.6 168.8 C-29.481 169.6 -29.6 171.2 -29.6 172 C-29 175.2 -28.8 175.2 -28 176.8 C-27.01 176.8 -26.4 176.8 -24.8 176.8 C-25.01 176.8 -24.8 176.8 -24.8 174.4 C-25.132 172 -24.8 168.8 -25.6 165.6 C-25.24 164 -25.6 163.2 -25.6 161.6 C-25.512 153.6 -24.8 147.2 -22.4 140 C-21.711 139.2 -21.6 138.4 -20.8 137.6 C-20.34 137.6 -20 137.6 -19.2 137.6 C-18.905 139.2 -19.2 140 -18.4 140.8 C-16.574 160 -13.6 179.2 -10.4 198.4 C-10.022 201.6 -9.6 204.8 -8.8 208 C-7.959 214.4 -6.4 220.8 -5.6 227.2 C-5.216 228 -4.8 229.6 -4.8 230.4 C-3.569 236 -3.2 236 -3.2 239.2 C-2.865 240 -2.4 240.8 -2.4 241.6 C-2.395 241.6 -2.4 242.4 -1.6 243.2 C0.563 243.2 0.8 243.2 3.2 243.2 C2.769 241.6 2.4 240.8 2.4 239.2 C-2.407 216 -6.4 193.6 -9.6 169.6 C-10.081 167.2 -10.4 164.8 -10.4 162.4 C-16.415 121.6 -16.8 121.6 -12.8 110.4 C-7.135 85.6 -9.6 58.4 -16.8 33.6 C-17.41 32.8 -17.6 32 -18.4 30.4 C-19 28 -19.2 28 -19.2 25.6 C-17.758 22.4 -16 20.8 -13.6 18.4 C-8.938 12.8 -4.8 7.2 -0.8 1.6 C-0.832 0.8 -0.8 0.8 0 0 Z " fill="#C8996C" transform="translate(422,166)"/>
<path d="M0 0 C2.312 0.8 2.4 0.8 4.8 1.6 C7.136 6.4 8.8 11.2 10.4 15.2 C15.509 30.4 22.4 45.6 34.4 56 C36.624 58.4 38.4 60 40 63.2 C40.302 67.2 39.2 71.2 38.4 75.2 C37.745 76 37.6 76.8 37.6 77.6 C33.35 92 28 106.4 19.2 118.4 C18.659 118.4 18.4 119.2 17.6 119.2 C12.718 126.4 7.2 133.6 -1.6 136.8 C-1.825 137.6 -2.4 137.6 -3.2 137.6 C-3.25 140 -3.2 140 -3.2 142.4 C5.812 142.4 12.8 140 20 136 C20.982 136 21.6 136 22.4 135.2 C25.038 133.6 26.4 132.8 30.4 132.8 C28.078 139.2 25.6 145.6 23.2 151.2 C22.006 154.4 20.8 157.6 20 160.8 C19.232 163.2 18.4 166.4 16.8 168.8 C14.228 171.2 11.2 172 8 172.8 C7.046 173.6 6.4 173.6 4.8 173.6 C-1.936 176 -1.6 176 -4.8 176 C-5.431 176 -5.6 176 -7.2 175.2 C-7.514 172.8 -7.2 172.8 -7.2 169.6 C-7.562 168.8 -7.2 167.2 -8 166.4 C-7.616 164.8 -8 164 -8 162.4 C-7.739 152.8 -8 143.2 -11.2 133.6 C-12.199 129.6 -12.8 125.6 -12.8 121.6 C-14.089 108.8 -17.6 98.4 -24 88 C-24.66 87.2 -25.6 86.4 -25.6 86.4 C-32.651 85.6 -39.2 86.4 -46.4 86.4 C-59.447 87.2 -72.8 87.2 -85.6 87.2 C-88.039 88 -90.4 88 -92 88 C-97.578 88 -102.4 88 -108 88 C-107.125 92.8 -107.2 92.8 -105.6 95.2 C-106.523 97.6 -106.4 97.6 -107.2 100 C-110.184 108.8 -111.2 117.6 -109.6 126.4 C-108.811 128.8 -108 131.2 -107.2 132.8 C-106.66 133.6 -106.4 134.4 -105.6 135.2 C-102.99 140.8 -99.2 145.6 -94.4 150.4 C-93.425 150.4 -92.8 150.4 -92 151.2 C-91.843 151.2 -91.2 152 -91.2 152 C-91 152.8 -91.2 153.6 -91.2 155.2 C-94.269 156.8 -97.6 156 -101.6 156 C-103.902 156 -105.6 156 -107.2 154.4 C-110 152 -110.4 152 -111.2 150.4 C-111.265 149.6 -112 149.6 -112 148.8 C-114.016 148.8 -114.4 148.8 -116 148.8 C-117.047 151.2 -116.8 151.2 -117.6 153.6 C-117.871 154.4 -117.6 154.4 -118.4 156.8 C-118.655 157.6 -119.2 158.4 -119.2 159.2 C-122.501 158.4 -124.8 158.4 -127.2 156 C-134.303 149.6 -140 143.2 -144 135.2 C-144 134.4 -144 133.6 -144 132.8 C-143.408 132.8 -143.2 133.6 -142.4 133.6 C-141.417 133.6 -140.8 133.6 -140 133.6 C-139.035 134.4 -138.4 134.4 -137.6 134.4 C-136.646 134.4 -136 135.2 -135.2 135.2 C-134.225 135.2 -133.6 135.2 -132.8 135.2 C-129.335 136 -126.4 136 -122.4 136 C-122.113 136 -121.6 136 -120.8 136 C-118.984 136.8 -119.2 136.8 -116 136 C-115.572 135.2 -115.2 135.2 -114.4 134.4 C-114.752 133.6 -114.4 133.6 -115.2 132 C-116.985 130.4 -119.2 128.8 -120.8 128 C-122.215 127.2 -123.2 126.4 -124.8 125.6 C-125.222 124.8 -125.6 124.8 -126.4 124 C-132.294 120 -136 115.2 -139.2 108.8 C-139.722 108 -140 108 -140.8 107.2 C-142.487 103.2 -144 100 -144 96 C-143.834 93.6 -143.2 90.4 -143.2 88 C-142.84 87.2 -142.4 86.4 -142.4 86.4 C-142.277 84 -142.4 84 -140.8 80.8 C-138.121 80.8 -138.4 80.8 -135.2 80.8 C-132.945 80 -132.8 80 -131.2 78.4 C-125.67 75.2 -120 72 -113.6 70.4 C-112.783 70.4 -112 69.6 -111.2 69.6 C-109.043 68.8 -107.2 68.8 -105.6 68 C-102.547 67.2 -100 66.4 -97.6 64.8 C-96.91 62.4 -96.8 60.8 -96 58.4 C-96 56 -96 56 -95.2 54.4 C-94.413 54.4 -93.6 53.6 -93.6 53.6 C-91.276 51.2 -90.4 49.6 -89.6 47.2 C-88.864 45.6 -88.8 44 -88 43.2 C-86.938 40 -87.2 40 -86.4 38.4 C-85.34 38.4 -84.8 38.4 -84 38.4 C-83.393 40 -83.2 40 -83.2 41.6 C-82.693 42.4 -82.4 43.2 -82.4 44 C-82.098 44.8 -81.6 46.4 -81.6 47.2 C-80.115 53.6 -78.4 59.2 -75.2 64.8 C-74.767 64.8 -74.4 64.8 -73.6 65.6 C-74 66.4 -73.6 67.2 -73.6 68 C-68.484 68 -63.2 67.2 -58.4 64 C-48.365 56.8 -40.8 46.4 -33.6 36 C-30.086 29.6 -25.6 26.4 -20 22.4 C-14.203 18.4 -9.6 13.6 -5.6 8 C-5.467 8 -5.6 8 -4 6.4 C-1.171 2.4 -0.8 2.4 0 0 Z " fill="#FAF9F9" transform="translate(275,167)"/>
<path d="M0 0 C2.785 0 2.4 0 6.4 0 C6.605 0 6.4 0 9.6 0 C10.223 0 11.2 0 12 0 C12.165 0 12 0 12.8 0.8 C13.179 2.4 13.6 3.2 13.6 4.8 C14.667 20.8 16 36 24.8 49.6 C28.427 54.4 32.8 58.4 36.8 63.2 C43.207 68.8 48 76 50.4 84 C51.318 88.8 51.2 92.8 51.2 97.6 C51.594 100 51.2 100 52 103.2 C53.525 104 53.6 104 55.2 104.8 C54.375 107.2 54.4 107.2 52.8 108.8 C50.815 110.4 49.6 111.2 47.2 112 C39.012 112.8 32 111.2 24 109.6 C22.754 109.6 21.6 108.8 20.8 108.8 C3.149 104.8 -13.6 98.4 -30.4 92.8 C-31.051 92 -32 92 -32 92 C-35.571 90.4 -35.2 90.4 -36.8 88.8 C-37.556 83.2 -35.2 76 -33.6 70.4 C-33.174 69.6 -32.8 68.8 -32.8 67.2 C-26.042 45.6 -16.8 16.8 0 0 Z " fill="#EEE3C7" transform="translate(270,387)"/>
<path d="M0 0 C2.458 0 4.8 0 7.2 0.8 C7.181 0.8 7.2 0.8 8.8 0.8 C10.6 0.8 12 1.6 14.4 1.6 C15.999 4 17.6 4.8 19.2 7.2 C19.185 7.2 19.2 7.2 20 8 C23.729 12.8 27.2 17.6 28 24 C28.42 34.4 25.6 44 20.8 52.8 C20.861 53.6 20.8 53.6 20 54.4 C18.476 58.4 16.8 61.6 15.2 65.6 C14.751 66.4 14.4 67.2 14.4 68 C13.301 68.8 12.8 70.4 12 72 C10.772 74.4 9.6 76.8 8.8 79.2 C8.316 80 8 80 8 80.8 C5.46 85.6 4 90.4 2.4 95.2 C2.641 96 2.4 96 1.6 96.8 C0.049 97.6 0 97.6 -1.6 96.8 C-3.59 95.2 -4.8 93.6 -6.4 92 C-9.817 86.4 -13.6 81.6 -17.6 77.6 C-19.728 75.2 -21.6 73.6 -23.2 71.2 C-25.495 68.8 -28 66.4 -30.4 64 C-31.264 63.2 -32 62.4 -32.8 62.4 C-33.89 60.8 -35.2 60 -36.8 58.4 C-36.855 58.4 -36.8 58.4 -38.4 56.8 C-38.655 56.8 -38.4 56.8 -40 55.2 C-40.365 55.2 -40.8 54.4 -40.8 54.4 C-39.916 51.2 -38.4 49.6 -36 47.2 C-28.99 40 -24 32 -18.4 23.2 C-17.804 22.4 -16.8 21.6 -16.8 20.8 C-15.33 19.2 -14.4 16.8 -12.8 15.2 C-9.918 10.4 -7.2 6.4 -3.2 3.2 C-2.544 2.4 -2.4 1.6 -1.6 0.8 C-1.084 0.8 -0.8 0 0 0 Z " fill="#AB845E" transform="translate(378,42)"/>
<path d="M0 0 C1.21 0.8 2.4 1.6 4 2.4 C4.298 3.2 4.8 4 5.6 4 C6.049 4.8 6.4 4.8 8 6.4 C8.498 6.4 8.8 6.4 9.6 7.2 C11.793 8.8 13.6 10.4 15.2 12.8 C15.676 14.4 16 16.8 16.8 18.4 C20.733 29.6 28 37.6 36.8 45.6 C40.432 48.8 42.4 52.8 44 57.6 C45.31 65.6 45.6 73.6 43.2 80.8 C41.546 84.8 39.2 88.8 36 92 C35.158 92.8 34.4 94.4 33.6 95.2 C30.774 98.4 28 101.6 24.8 104.8 C24.498 105.6 24 106.4 23.2 106.4 C13.123 117.6 1.6 126.4 -12 134.4 C-12.288 134.4 -12.8 135.2 -13.6 135.2 C-17.073 136.8 -20 138.4 -24 139.2 C-23.6 136 -23.2 135.2 -21.6 132.8 C-20.64 132 -20 131.2 -19.2 130.4 C-9.221 118.4 -1.6 105.6 4 91.2 C4.358 90.4 4.8 89.6 4.8 88.8 C6.982 83.2 7.2 78.4 7.2 72.8 C7.286 72 7.2 71.2 7.2 70.4 C7.343 68 7.2 65.6 7.2 63.2 C7.377 63.2 7.2 63.2 7.2 60.8 C7.434 43.2 5.6 26.4 0.8 9.6 C-0 5.6 0 3.2 0 0 Z " fill="#C99A6C" transform="translate(109,284)"/>
<path d="M0 0 C0.66 0 1.6 0 1.6 0 C2.05 4 2.4 7.2 2.4 11.2 C2.12 12.8 2.4 13.6 2.4 15.2 C2.264 23.2 1.6 32 0 40 C-0.33 40 -0.8 40.8 -0.8 40.8 C-3.284 40.8 -5.6 40.8 -8 40.8 C-8.538 40.8 -9.6 41.6 -9.6 41.6 C-11.545 41.6 -12.8 41.6 -14.4 41.6 C-17.132 41.6 -20 41.6 -22.4 41.6 C-27.344 41.6 -32.8 41.6 -37.6 41.6 C-43.944 41.6 -50.4 41.6 -56 41.6 C-58.503 41.6 -60.8 41.6 -63.2 41.6 C-70.656 41.6 -77.6 42.4 -84.8 43.2 C-85.733 43.2 -86.4 43.2 -87.2 43.2 C-87.33 42.4 -88 42.4 -88 41.6 C-88.513 36 -88 29.6 -86.4 24 C-86.629 23.2 -86.4 23.2 -86.4 21.6 C-86.204 20.8 -86.4 20 -85.6 19.2 C-85.839 18.4 -85.6 17.6 -85.6 16.8 C-85 15.2 -84.8 15.2 -83.2 13.6 C-83.04 12.8 -82.4 12.8 -81.6 12 C-80.203 12.8 -80 12.8 -78.4 13.6 C-75.413 15.2 -73.6 16 -70.4 16.8 C-65.014 16 -59.2 14.4 -54.4 11.2 C-51.782 8.8 -50.4 6.4 -48 3.2 C-47.853 3.2 -47.2 2.4 -47.2 1.6 C-44.013 2.4 -41.6 4 -39.2 4.8 C-32.085 8.8 -25.6 8.8 -17.6 8 C-13.04 8 -8.8 6.4 -4.8 4 C-3.766 3.2 -2.4 1.6 -1.6 0.8 C-0.945 0.8 -0.8 0 0 0 Z " fill="#EC8754" transform="translate(246,313)"/>
<path d="M0 0 C0 0.8 0 1.6 0 1.6 C-2.541 3.2 -4.8 4.8 -8 5.6 C-9.375 6.4 -9.6 6.4 -12 8 C-12.375 10.4 -12 10.4 -12 12 C-7.796 11.2 -4.8 9.6 -0.8 8 C2.945 6.4 5.6 5.6 10.4 5.6 C10.731 5.6 10.4 5.6 13.6 5.6 C14.312 5.6 15.2 5.6 16 6.4 C16 7.2 16 8 16 8.8 C14.496 10.4 14.4 10.4 12.8 12 C5.476 17.6 0.8 24.8 -2.4 33.6 C-2.448 34.4 -2.4 35.2 -3.2 36 C-3.357 36.8 -4 38.4 -4 39.2 C-5.458 44 -5.6 48.8 -5.6 54.4 C-5.373 55.2 -5.6 56 -5.6 57.6 C-5.216 66.4 -4 74.4 1.6 83.2 C3 86.4 3.2 86.4 3.2 88 C2 89.6 1.6 89.6 0 91.2 C-4.39 93.6 -8 93.6 -12.8 93.6 C-17.118 92.8 -20 91.2 -24 88.8 C-29.962 84 -32.8 77.6 -36 69.6 C-39.339 60 -40.8 49.6 -38.4 39.2 C-36.55 29.6 -32 20 -25.6 12.8 C-19.216 7.2 -8.8 0 0 0 Z " fill="#FAFAFA" transform="translate(179,377)"/>
<path d="M0 0 C0.66 0 1.6 0 1.6 0 C1.999 0.8 1.6 1.6 1.6 2.4 C2.045 16.8 2.4 30.4 8 43.2 C7.863 44 8 44.8 8 45.6 C8.93 47.2 9.6 48 10.4 49.6 C10.071 50.4 10.4 51.2 9.6 52 C7.751 53.6 5.6 55.2 3.2 56 C1.838 56.8 0 57.6 -0.8 58.4 C-1.9 59.2 -2.4 59.2 -3.2 60 C-6.119 60.8 -8.8 62.4 -11.2 64 C-12.074 64.8 -12.8 64.8 -13.6 65.6 C-15.539 66.4 -17.6 68 -19.2 68.8 C-22.093 70.4 -24.8 72 -28.8 72 C-34.039 72 -39.2 70.4 -44 67.2 C-46.654 62.4 -47.2 57.6 -47.2 52.8 C-47.349 49.6 -47.2 45.6 -47.2 42.4 C-47.487 41.6 -47.2 40 -47.2 38.4 C-47.757 33.6 -48 29.6 -47.2 24.8 C-45.582 22.4 -44 21.6 -42.4 20 C-38.611 18.4 -35.2 16.8 -31.2 16 C-25.281 13.6 -19.2 11.2 -13.6 8 C-12.607 7.2 -12 7.2 -11.2 7.2 C-8.295 5.6 -5.6 4 -2.4 1.6 C-1.79 0.8 -0.8 0.8 0 0 Z " fill="#EDE2C6" transform="translate(113,415)"/>
<path d="M0 0 C0.66 0 1.6 0 1.6 0 C1.34 3.2 0 5.6 -1.6 8.8 C-14.962 33.6 -24 59.2 -28.8 87.2 C-29.078 89.6 -28.8 89.6 -30.4 92.8 C-30.99 92.8 -32 92.8 -32.8 92.8 C-40.809 87.2 -47.2 80 -51.2 71.2 C-55.132 62.4 -56 52.8 -55.2 43.2 C-53.76 33.6 -51.2 25.6 -45.6 18.4 C-45.269 17.6 -44.8 16.8 -44 16 C-43.426 15.2 -43.2 14.4 -42.4 13.6 C-36.844 8 -29.6 3.2 -22.4 0.8 C-16.033 0 -10.4 0.8 -4.8 3.2 C-4.28 3.2 -4 3.2 -3.2 3.2 C-1.371 1.6 -1.6 1.6 0 0 Z " fill="#FAFAFA" transform="translate(234,382)"/>
<path d="M0 0 C0.66 0 1.6 0.8 1.6 0.8 C2.881 3.2 4 4.8 4.8 6.4 C5.779 9.6 7.2 13.6 8.8 16.8 C14.23 29.6 12 52 10.4 65.6 C8.917 76 4.8 84.8 -2.4 93.6 C-3.369 95.2 -4.8 96.8 -6.4 97.6 C-6.938 99.2 -8 100.8 -8.8 101.6 C-9.173 102.4 -8.8 102.4 -11.2 104 C-11.99 104 -12.8 104 -14.4 104 C-14.872 102.4 -15.2 102.4 -15.2 100.8 C-15.849 100 -16 99.2 -16 98.4 C-16.679 97.6 -16.8 96.8 -17.6 96 C-19.193 91.2 -20.8 86.4 -24 81.6 C-26.764 77.6 -28.8 72.8 -28.8 68 C-27.635 49.6 -16 32 -8 16 C-6.142 12 -4.8 8.8 -4 4 C-3 1.6 -3.2 1.6 -1.6 0.8 C-1.026 0.8 -0.8 0 0 0 Z " fill="#BD9167" transform="translate(413,79)"/>
<path d="M0 0 C2.039 0 2.4 0 4 0.8 C6.82 6.4 7.2 12 7.2 18.4 C7.136 19.2 7.2 19.2 7.2 20 C6.835 20 7.2 20 6.4 20.8 C4.501 20.8 3.2 20.8 1.6 21.6 C-0.969 21.6 -0.8 21.6 -3.2 22.4 C-4 24 -4 24 -4 27.2 C-4.229 31.2 -4.8 35.2 -6.4 39.2 C-10.342 42.4 -14.4 44 -19.2 45.6 C-24.789 46.4 -30.4 46.4 -35.2 45.6 C-40.711 43.2 -44.8 40 -48.8 36 C-49.155 36 -48.8 36 -49.6 34.4 C-50.291 33.6 -50.4 33.6 -51.2 32.8 C-53.125 32.8 -52.8 32.8 -55.2 32.8 C-54.977 33.6 -55.2 34.4 -55.2 35.2 C-54.921 35.2 -55.2 35.2 -55.2 37.6 C-54.852 38.4 -55.2 39.2 -55.2 40.8 C-55 43.2 -55.2 43.2 -56 44.8 C-56.084 45.6 -56.8 45.6 -56.8 46.4 C-60.605 45.6 -63.2 44 -65.6 41.6 C-66.695 40.8 -67.2 40 -68.8 39.2 C-68.896 39.2 -69.6 38.4 -69.6 37.6 C-71.121 36.8 -71.2 36.8 -72.8 33.6 C-72.961 30.4 -72 28.8 -70.4 25.6 C-64.674 17.6 -57.6 13.6 -48 9.6 C-38.844 5.6 -28.8 1.6 -19.2 1.6 C-18.451 1.6 -18.4 1.6 -16 1.6 C-14 1.6 -14.4 1.6 -12 3.2 C-12.148 3.2 -12 3.2 -11.2 4 C-8.125 4 -8 4 -4.8 4 C-3.322 2.4 -1.6 1.6 0 0 Z " fill="#F7C6C7" transform="translate(249,270)"/>
<path d="M0 0 C1.992 0 1.6 0 4 0.8 C4.373 0.8 4 0.8 6.4 1.6 C7.062 2.4 8 2.4 8.8 3.2 C13.385 4.8 18.4 6.4 23.2 7.2 C22.67 8 22.4 8.8 22.4 9.6 C20.285 11.2 20 11.2 18.4 12.8 C12.756 16.8 8 21.6 3.2 25.6 C2.68 26.4 2.4 26.4 0.8 28 C-4.924 33.6 -9.6 40.8 -12 48 C-13.225 52 -13.6 56 -13.6 60.8 C-13.373 60.8 -13.6 61.6 -13.6 62.4 C-13.26 68 -12.8 71.2 -10.4 76 C-9.848 76 -9.6 76.8 -8.8 76.8 C-8.671 76.8 -8.8 76.8 -7.2 76.8 C-6.673 76.8 -6.4 76.8 -4.8 76 C-4.026 73.6 -3.2 72 -2.4 69.6 C-0.981 64 0.8 58.4 4 52.8 C3.836 52.8 4 52.8 4.8 51.2 C5.326 49.6 6.4 48 7.2 47.2 C7.66 47.2 8 47.2 8.8 47.2 C9.05 48 8.8 48.8 8.8 49.6 C9.343 52.8 9.6 56.8 9.6 60 C9.83 61.6 9.6 63.2 9.6 64.8 C10.444 72.8 11.2 80.8 12.8 88.8 C13 91.2 12.8 91.2 12.8 96 C-1.52 96 -16 96 -31.2 96 C-31.638 67.2 -26.4 45.6 -12.8 20 C-10.239 15.2 -7.2 10.4 -4.8 6.4 C-4.162 5.6 -4 4.8 -3.2 4 C-2.191 2.4 -2.4 2.4 0 0 Z " fill="#C5976A" transform="translate(51,404)"/>
<path d="M0 0 C1.863 1.6 1.6 1.6 3.2 4 C2.835 7.2 1.6 8.8 0.8 12 C-1.34 15.2 -1.6 18.4 -1.6 21.6 C-1 24 -0.8 24 0 25.6 C0.398 25.6 0.8 26.4 0.8 27.2 C0.574 29.6 0.8 29.6 0 32 C-0.597 32.8 -0.8 33.6 -0.8 34.4 C-1.448 35.2 -1.6 36 -1.6 36.8 C-4.079 43.2 -4 52 -2.4 58.4 C-1.811 60.8 -0.8 63.2 0 64.8 C0.34 65.6 0.8 66.4 0.8 67.2 C4.01 72.8 8 77.6 12.8 81.6 C13.287 82.4 13.6 82.4 14.4 83.2 C15.157 83.2 15.2 84 16 84 C16 84.8 16 85.6 16 87.2 C12.731 88.8 9.6 88 5.6 88 C3.098 88 1.6 88 -0.8 86.4 C-3 84 -3.2 84 -4 82.4 C-4.265 81.6 -4.8 81.6 -4.8 80.8 C-7.016 80.8 -7.2 80.8 -8.8 80.8 C-10.047 83.2 -10.4 83.2 -10.4 86.4 C-10.992 87.2 -11.2 88 -11.2 88.8 C-11.655 89.6 -12 90.4 -12 91.2 C-15.501 90.4 -17.6 90.4 -20.8 88 C-27.303 81.6 -33.6 75.2 -36.8 67.2 C-37 66.4 -36.8 65.6 -36.8 64.8 C-36.408 64.8 -36 65.6 -35.2 65.6 C-34.417 65.6 -33.6 65.6 -32.8 65.6 C-32.035 66.4 -31.2 66.4 -30.4 66.4 C-29.646 66.4 -28.8 67.2 -28 67.2 C-27.613 67.2 -28 67.2 -25.6 67.2 C-22.335 68 -19.2 68 -16 68 C-15.113 68 -14.4 68 -13.6 68.8 C-11.984 68.8 -12 68.8 -8.8 68 C-8.572 67.2 -8 67.2 -8 66.4 C-7.801 65.6 -8 64.8 -8 64 C-9.985 62.4 -12 60.8 -14.4 60 C-15.215 59.2 -16.8 58.4 -17.6 57.6 C-18.222 56.8 -19.2 56.8 -19.2 56 C-25.294 52 -28.8 47.2 -32 40.8 C-32.722 40 -32.8 40 -33.6 39.2 C-35.487 35.2 -36.8 32 -36.8 28 C-36.834 25.6 -36.8 22.4 -36 20 C-35.84 19.2 -36 18.4 -36 18.4 C-35.277 16 -35.2 16 -33.6 12.8 C-31.121 12.8 -31.2 12.8 -28 12.8 C-25.945 12 -25.6 12 -24 10.4 C-18.262 7.2 -12 4 -5.6 1.6 C-4.681 0.8 -4 0.8 -2.4 0 C-1.767 0 -0.8 0 0 0 Z " fill="#F9F8F8" transform="translate(168,235)"/>
<path d="M0 0 C4.088 0 8 0 12 0 C12.744 0.8 13.6 1.6 14.4 1.6 C14.239 9.6 12 16.8 10.4 24 C10.117 24.8 10.4 24.8 9.6 28 C7.607 35.2 5.6 42.4 1.6 48.8 C1.67 49.6 1.6 49.6 0.8 49.6 C-0.655 50.4 -2.4 50.4 -4 50.4 C-5.05 50.4 -6.4 50.4 -7.2 50.4 C-8.44 50.4 -9.6 50.4 -11.2 50.4 C-12.107 50.4 -13.6 50.4 -14.4 50.4 C-18.056 50.4 -21.6 50.4 -24.8 50.4 C-28.497 50.4 -32 50.4 -36 50.4 C-41.676 50.4 -48 50.4 -53.6 50.4 C-60.673 50.4 -68 50.4 -74.4 50.4 C-80.572 50.4 -86.4 50.4 -92.8 50.4 C-96.08 50.4 -100 50.4 -103.2 50.4 C-106.575 50.4 -109.6 50.4 -113.6 50.4 C-114.521 50.4 -116 50.4 -116.8 50.4 C-118.669 50.4 -120 50.4 -122.4 50.4 C-122.969 50.4 -124 50.4 -124.8 50.4 C-125.58 50.4 -126.4 50.4 -127.2 49.6 C-127.33 49.6 -128 49.6 -128 48.8 C-129.123 40.8 -126.4 32 -124.8 24 C-124.261 24.8 -123.2 24.8 -122.4 25.6 C-117.896 28.8 -112 30.4 -107.2 32 C-105.639 32.8 -104.8 32.8 -103.2 33.6 C-100.948 34.4 -98.4 35.2 -96 36 C-93.457 36.8 -90.4 37.6 -88 38.4 C-79.355 41.6 -70.4 44 -62.4 45.6 C-61.068 46.4 -60 46.4 -59.2 46.4 C-52.82 48 -46.4 48.8 -40 48 C-37.377 47.2 -35.2 45.6 -32.8 44 C-32.835 44 -32.8 44 -32 41.6 C-30.812 41.6 -29.6 40.8 -28 40 C-23.335 37.6 -20 34.4 -16.8 30.4 C-15.256 27.2 -13.6 24 -12 20 C-12.054 20 -12 20 -11.2 17.6 C-10.34 17.6 -9.6 17.6 -8.8 17.6 C-8.835 18.4 -8.8 18.4 -8 20 C-5.938 20.8 -5.6 20.8 -4 20.8 C-2.308 14.4 -0.8 7.2 0 0 Z " fill="#4E3D2D" transform="translate(357,450)"/>
<path d="M0 0 C0.474 0.8 0.8 1.6 1.6 1.6 C7.312 9.6 13.6 13.6 22.4 16.8 C27.605 19.2 32.8 19.2 38.4 19.2 C39.98 19.2 40 19.2 43.2 20 C44.175 23.2 44 25.6 43.2 28.8 C42.181 32 42.4 32 40 35.2 C33.737 37.6 26.4 36.8 19.2 36.8 C17.54 36.8 15.2 36.8 13.6 36.8 C9.145 36.8 4.8 36.8 0.8 36.8 C-4.957 36.8 -10.4 36.8 -16 36.8 C-20.207 36.8 -24.8 36.8 -28.8 36.8 C-30.703 36.8 -32.8 36.8 -34.4 36.8 C-47.673 36.8 -48 36.8 -52 35.2 C-54.362 31.2 -54.4 29.6 -55.2 25.6 C-54.993 24 -55.2 23.2 -55.2 22.4 C-55.213 20 -55.2 18.4 -56 16 C-55.801 14.4 -56 13.6 -56 12 C-55 13.6 -55.2 13.6 -54.4 15.2 C-54 16 -54.4 16 -54.4 16.8 C-52.337 17.6 -50.4 17.6 -48.8 17.6 C-47.284 18.4 -45.6 19.2 -44 20 C-40.961 21.6 -39.2 21.6 -36 20.8 C-32.333 19.2 -28.8 17.6 -25.6 15.2 C-23.474 14.4 -21.6 13.6 -19.2 12 C-18.599 11.2 -17.6 11.2 -16.8 10.4 C-12.224 8 -8 5.6 -3.2 3.2 C-2.453 3.2 -1.6 2.4 -0.8 1.6 C-0.67 1.6 0 0.8 0 0 Z " fill="#4E3E2E" transform="translate(123,465)"/>
<path d="M0 0 C3.004 0 3.2 0 5.6 0.8 C9.091 4.8 10.4 9.6 11.2 15.2 C12.359 19.2 12.8 23.2 13.6 28 C13.86 28.8 14.4 29.6 14.4 31.2 C15.774 41.6 16 41.6 15.2 44.8 C13.263 46.4 11.2 48 8.8 48.8 C2.105 52.8 -4 56.8 -10.4 61.6 C-10.508 62.4 -10.4 62.4 -12 63.2 C-12.65 64 -12.8 64 -13.6 64.8 C-15.924 66.4 -18.4 67.2 -20.8 68 C-20.496 67.2 -20.8 66.4 -20 65.6 C-19.522 57.6 -19.2 49.6 -19.2 40.8 C-18.943 36 -19.2 31.2 -18.4 26.4 C-18.585 25.6 -18.4 24 -18.4 23.2 C-18.297 13.6 -18.4 13.6 -16.8 9.6 C-15.466 8 -14.4 7.2 -12.8 5.6 C-12.267 4.8 -12 4.8 -11.2 4 C-7.697 0.8 -4.8 0 0 0 Z " fill="#A37E5A" transform="translate(153.5625,33.1875)"/>
<path d="M0 0 C5.984 0 11.2 3.2 16 6.4 C15.66 6.4 15.2 7.2 15.2 8 C14.206 9.6 13.6 10.4 12.8 12 C11.211 14.4 9.6 17.6 8 20 C-3.243 40 -11.2 63.2 -16 85.6 C-16.571 86.4 -16.8 87.2 -16.8 88 C-17.33 88 -17.6 88 -19.2 88.8 C-21.301 88.8 -23.2 88 -25.6 88 C-26.236 87.2 -27.2 87.2 -27.2 87.2 C-29.227 87.2 -29.6 87.2 -32 84.8 C-33.6 78.4 -31.2 72 -29.6 65.6 C-29.615 64.8 -29.6 64 -28.8 62.4 C-28.844 62.4 -28.8 61.6 -28.8 60.8 C-25.487 49.6 -21.6 39.2 -16.8 28.8 C-16.631 28 -16 27.2 -16 26.4 C-7.522 7.2 -7.2 7.2 0 0 Z " fill="#EAE0C4" transform="translate(244,384)"/>
<path d="M0 0 C0.318 0 0 0 1.6 0 C3.266 0 4.8 0 5.6 0 C7.965 0 9.6 0 12 0 C19.912 0 27.2 0 33.6 4 C34.333 4.8 34.4 4.8 35.2 5.6 C34.855 8 35.2 8 34.4 10.4 C33.576 10.4 32.8 9.6 32 9.6 C31.585 9.6 30.4 9.6 29.6 9.6 C29.203 8.8 28.8 8.8 28 8.8 C26.814 8.8 26.4 8 24.8 8 C24.4 8 24 8 23.2 8 C5.531 4.8 -12 7.2 -28 13.6 C-36.747 16.8 -44 20 -52 25.6 C-52.499 25.6 -52.8 26.4 -53.6 26.4 C-63.894 32.8 -72.8 40.8 -81.6 48.8 C-83.438 50.4 -85.6 52.8 -88 54.4 C-90.303 56.8 -92.8 59.2 -95.2 62.4 C-95.586 63.2 -96 64 -96.8 64.8 C-109.476 79.2 -119.2 95.2 -126.4 112.8 C-126.891 115.2 -127.2 115.2 -128 116 C-128.74 116 -129.6 116.8 -130.4 116.8 C-131.325 116 -132 116 -132.8 115.2 C-133.415 109.6 -132 105.6 -129.6 100 C-129.646 99.2 -129.6 98.4 -128.8 98.4 C-116.979 70.4 -94.4 46.4 -70.4 28.8 C-49.789 13.6 -26.4 0 0 0 Z " fill="#0D0908" transform="translate(224.83203125,75.796875)"/>
<path d="M0 0 C2 0 1.6 0 4 0.8 C4.33 1.6 4.8 1.6 4.8 1.6 C5.351 4 5.6 6.4 5.6 8.8 C6.092 9.6 6.4 11.2 6.4 12.8 C6.556 13.6 6.4 14.4 6.4 15.2 C15.219 80 31.2 144 55.2 204.8 C50.532 205.6 50.4 205.6 48 204.8 C45.957 202.4 44.8 199.2 44 196 C43.846 196 44 196 43.2 193.6 C41.976 190.4 40.8 188 40 184.8 C39.38 183.2 38.4 181.6 38.4 180 C36.614 175.2 35.2 171.2 33.6 167.2 C32.809 164 32 161.6 31.2 159.2 C27.278 148 24 137.6 20.8 126.4 C20.825 125.6 20.8 124.8 20.8 124 C17.536 112.8 15.2 101.6 12.8 90.4 C12.431 88.8 12 88 12 87.2 C-1.84 22.4 -1.6 22.4 -0.8 0.8 C-0.67 0.8 0 0 0 0 Z " fill="#0D0908" transform="translate(415,295)"/>
<path d="M0 0 C2.365 0 4.8 0 7.2 0 C7.65 0 8 0 8.8 0 C30.428 0 49.6 7.2 68 18.4 C68.38 18.4 68 18.4 70.4 19.2 C70.324 20 70.4 20 72 20.8 C72.215 20.8 72.8 21.6 72.8 22.4 C72.715 24.8 72 25.6 70.4 28 C69.263 29.6 68 31.2 65.6 32.8 C63.562 32.8 63.2 32.8 60.8 32 C59.976 31.2 59.2 30.4 57.6 30.4 C53.655 28 49.6 26.4 44.8 24.8 C43.597 24.8 42.4 24.8 41.6 24 C28.801 20.8 15.2 18.4 1.6 17.6 C1.276 17.6 0.8 16.8 0 16.8 C-0.852 15.2 -0.8 13.6 -0.8 11.2 C-0.73 10.4 -0.8 10.4 -0.8 9.6 C-0.016 6.4 0 4.8 -0.8 1.6 C-0.67 1.6 0 0.8 0 0 Z " fill="#060606" transform="translate(238,216)"/>
<path d="M0 0 C5.363 1.6 10.4 2.4 16 4.8 C20.142 5.6 24.8 7.2 28.8 8.8 C32.558 9.6 36.8 10.4 40 12 C41.329 12 42.4 12.8 43.2 12.8 C45.755 13.6 48 14.4 50.4 15.2 C74.236 22.4 74.4 22.4 80.8 20.8 C83.427 19.2 84.8 18.4 87.2 16 C87.103 16.8 87.2 18.4 87.2 19.2 C87.578 21.6 87.2 21.6 88 23.2 C89.562 24.8 89.6 24.8 91.2 24.8 C90.375 27.2 90.4 27.2 88.8 28.8 C86.815 30.4 85.6 31.2 83.2 32 C75.012 32.8 68 31.2 60 29.6 C58.754 29.6 57.6 28.8 56.8 28.8 C39.149 24.8 22.4 18.4 5.6 12.8 C4.949 12 4 12 4 12 C1.941 11.2 0.8 10.4 -0.8 8.8 C-1.074 7.2 -0.8 7.2 -0.8 4 C-0.628 4 -0.8 4 0 1.6 C-0.217 1.6 0 0.8 0 0 Z " fill="#F9AF48" transform="translate(234,467)"/>
<path d="M0 0 C0.99 0 1.6 0.8 3.2 0.8 C2.154 1.6 1.6 2.4 0.8 3.2 C-6.732 8.8 -10.4 17.6 -14.4 26.4 C-17.526 36 -16.8 49.6 -15.2 60 C-14.22 64 -12.8 68 -10.4 72 C-10 73.6 -9.6 73.6 -10.4 76 C-11 78.4 -11.2 78.4 -12.8 79.2 C-13.09 80 -13.6 80 -14.4 80 C-14.907 80.8 -15.2 80.8 -16 81.6 C-18 81.6 -17.6 81.6 -20 81.6 C-22 80.8 -22.4 80.8 -23.2 80 C-24.151 77.6 -24.8 75.2 -25.6 72.8 C-26.376 72 -26.4 71.2 -27.2 70.4 C-30.263 62.4 -30.4 54.4 -30.4 46.4 C-30.377 45.6 -30.4 44.8 -30.4 44.8 C-30.376 30.4 -30.4 30.4 -28 24.8 C-26.406 23.2 -26.4 23.2 -24.8 21.6 C-21.043 19.2 -17.6 16 -15.2 12.8 C-14.015 12 -13.6 11.2 -12 10.4 C-11.154 8.8 -9.6 8 -8.8 6.4 C-5.969 4 -3.2 1.6 0 0 Z " fill="#E9DFC3" transform="translate(151,382)"/>
<path d="M0 0 C0.66 0 1.6 0 1.6 0 C2.05 0.8 2.4 1.6 2.4 2.4 C2.343 6.4 2.4 9.6 2.4 12.8 C2.83 14.4 3.2 16 3.2 17.6 C3.444 25.6 4 33.6 5.6 41.6 C6.004 44 6.4 46.4 6.4 48.8 C1.48 49.6 -3.2 49.6 -7.2 49.6 C-9.101 49.6 -10.4 49.6 -12 49.6 C-16.935 50.4 -21.6 50.4 -25.6 48.8 C-27.441 47.2 -27.2 47.2 -28 44.8 C-28.095 41.6 -28 41.6 -28 39.2 C-28.106 37.6 -28 36 -28 34.4 C-28.359 33.6 -28 32 -28 31.2 C-28.399 30.4 -28.8 29.6 -28.8 28.8 C-28.461 27.2 -28.8 27.2 -28 24 C-25.977 23.2 -25.6 23.2 -24 23.2 C-23.34 24.8 -22.4 26.4 -22.4 28 C-21.381 28 -20.8 27.2 -20 27.2 C-19.424 27.2 -18.4 27.2 -17.6 27.2 C-17.333 28 -16.8 28.8 -16 30.4 C-14.082 30.4 -14.4 30.4 -12 28.8 C-11.026 26.4 -10.4 24.8 -9.6 22.4 C-7.981 16.8 -5.6 11.2 -3.2 6.4 C-3.164 5.6 -3.2 5.6 -2.4 4 C-1.674 2.4 -0.8 1.6 0 0 Z " fill="#C29569" transform="translate(58,451)"/>
<path d="M0 0 C1.953 0 1.6 0 4 0.8 C4.826 3.2 5.6 4.8 5.6 7.2 C5.884 8 6.4 8.8 6.4 8.8 C6.605 11.2 7.2 12.8 7.2 15.2 C7.852 17.6 8 19.2 8.8 20.8 C8.982 22.4 9.6 24 9.6 25.6 C12.845 40.8 16.8 56 20.8 72 C21.504 74.4 22.4 76.8 23.2 80 C25.501 89.6 28 99.2 31.2 109.6 C32.159 111.2 32.8 113.6 33.6 116 C33.671 116 33.6 116.8 34.4 117.6 C36.205 124 38.4 131.2 40 137.6 C35.423 138.4 35.2 138.4 32.8 137.6 C31.569 136 31.2 134.4 30.4 132 C30.144 131.2 29.6 131.2 29.6 130.4 C29.112 128 28.8 126.4 28 124 C27.509 123.2 27.2 121.6 26.4 120 C25.58 116.8 24.8 113.6 23.2 109.6 C22.79 107.2 22.4 104.8 21.6 102.4 C17.971 91.2 15.2 80 12.8 68.8 C11.719 65.6 11.2 62.4 10.4 59.2 C7.406 49.6 5.6 40 3.2 30.4 C3.002 28.8 2.4 27.2 2.4 25.6 C1.694 22.4 0.8 19.2 0 16 C0.032 14.4 0 12.8 -0.8 11.2 C-1.003 8.8 -0.8 7.2 -0.8 4.8 C-1.128 4 -0.8 3.2 -0.8 2.4 C-1.089 2.4 -0.8 1.6 -0.8 0.8 C-0.67 0.8 0 0 0 0 Z " fill="#0E0A08" transform="translate(399,362)"/>
<path d="M0 0 C0.598 0 0.8 0 1.6 0 C2.047 3.2 2.4 5.6 0.8 8.8 C-0.015 9.6 -0.8 10.4 -0.8 11.2 C-1.508 12 -1.6 12 -3.2 14.4 C-3.472 14.4 -4 15.2 -4 16 C-5.169 16.8 -6.4 18.4 -7.2 20 C-23.017 44.8 -23.2 44.8 -30.4 48.8 C-34.024 48.8 -36.8 47.2 -40 45.6 C-40.463 44.8 -40.8 44.8 -42.4 44 C-43.052 43.2 -44 42.4 -44 42.4 C-44.184 39.2 -44 39.2 -43.2 36 C-36.317 25.6 -25.6 16 -16 8 C-15.266 8 -14.4 7.2 -14.4 7.2 C-11.38 4.8 -8.8 3.2 -4.8 2.4 C-4.672 1.6 -4 1.6 -4 0.8 C-2.188 0 -2.4 0 0 0 Z " fill="#B88D64" transform="translate(363.1875,40.875)"/>
<path d="M0 0 C2.081 0 2.4 0 4.8 0 C5.163 0 4.8 0 8 0 C8.673 0 9.6 0 11.2 0 C11.886 0 12.8 0 14.4 0 C16.942 0 20 0 22.4 0 C24.434 0 26.4 0 28 0 C31.319 0 34.4 0 38.4 0 C38.584 0 38.4 0 41.6 0 C42.215 0 43.2 0 44 0 C45.051 0 45.6 0 46.4 0 C49 0 48.8 0 50.4 1.6 C51.196 1.6 51.2 2.4 52 3.2 C52 4 52 4.8 52 6.4 C50.079 7.2 50.4 7.2 47.2 7.2 C46.902 7.2 47.2 7.2 44.8 8 C43.906 8 44 8 41.6 8.8 C27.026 12 13.6 16.8 2.4 26.4 C0.867 28 0 29.6 -1.6 31.2 C-1.827 32 -2.4 32.8 -3.2 33.6 C-3.66 33.6 -4 33.6 -4.8 33.6 C-7.278 25.6 -6.4 17.6 -4 9.6 C-3.951 8.8 -4 8 -3.2 7.2 C-3.127 5.6 -2.4 4 -1.6 1.6 C-1.34 1.6 -0.8 0.8 0 0 Z " fill="#D28F90" transform="translate(176,260)"/>
<path d="M0 0 C0.33 0 0.8 0 0.8 0 C1.075 5.6 0.8 11.2 0.8 16.8 C1.18 18.4 0.8 20 1.6 22.4 C1.395 34.4 1.6 45.6 -4 56.8 C-7.043 61.6 -11.2 65.6 -16 69.6 C-18 72 -17.6 72 -19.2 73.6 C-19.66 73.6 -20 73.6 -20.8 73.6 C-20.466 65.6 -19.2 57.6 -17.6 49.6 C-17.53 48 -17.6 47.2 -16.8 45.6 C-15.729 39.2 -14.4 32.8 -12.8 25.6 C-12.252 24.8 -12 24.8 -12 24 C-10.66 19.2 -8.8 16 -7.2 12 C-5.996 9.6 -5.6 8 -4.8 6.4 C-3.188 3.2 -2.4 1.6 0 0 Z " fill="#B88D64" transform="translate(127,54)"/>
<path d="M0 0 C8.645 0 8.8 0 12 1.6 C13.319 3.2 14.4 4.8 16 6.4 C16.529 6.4 16.8 7.2 17.6 8 C18.769 8.8 20 10.4 20.8 12 C22.48 13.6 24 15.2 25.6 16.8 C25.819 16.8 26.4 17.6 26.4 17.6 C27.821 19.2 28.8 20 30.4 21.6 C32 24 32 24 32.8 27.2 C32.838 27.2 32.8 28 32.8 28.8 C32.045 29.6 31.2 29.6 30.4 29.6 C22.135 32.8 14.4 35.2 7.2 39.2 C5.223 36 4.8 32.8 4 29.6 C3.795 28.8 4 27.2 3.2 26.4 C3.366 25.6 3.2 25.6 3.2 23.2 C2.764 21.6 2.4 20.8 2.4 19.2 C1.396 12.8 0.8 6.4 0 0 Z " fill="#AF865F" transform="translate(169,35)"/>
<path d="M0 0 C0.577 0 0.8 0.8 1.6 0.8 C2.719 4 3.2 5.6 4 8 C3.936 8.8 4 9.6 4 10.4 C6.549 22.4 6.4 33.6 4.8 44.8 C4.797 45.6 4.8 46.4 4.8 47.2 C4.204 50.4 4 52.8 1.6 55.2 C1.785 54.4 1.6 53.6 1.6 53.6 C2.003 48.8 2.4 44.8 0 40 C-0.465 39.2 -0.8 39.2 -1.6 38.4 C-1.822 36.8 -2.4 36 -3.2 35.2 C-7.78 27.2 -8 27.2 -11.2 24.8 C-12.806 24.8 -14.4 24 -16 24 C-17.008 24 -17.6 24 -18.4 24 C-20.83 23.2 -23.2 23.2 -25.6 23.2 C-27.812 24.8 -28 24.8 -29.6 26.4 C-25.192 16.8 -16 10.4 -8 4 C-7.648 4 -7.2 3.2 -6.4 2.4 C-4.274 0.8 -2.4 0 0 0 Z " fill="#4D3D2D" transform="translate(403.25,19.8125)"/>
<path d="M0 0 C1.443 2.4 2.4 4 4 6.4 C3.959 7.2 4 7.2 4.8 8 C5 9.6 4.8 9.6 4.8 12 C4.606 12.8 4 13.6 4 14.4 C2.006 15.2 0 16.8 -1.6 17.6 C-2.58 17.6 -3.2 18.4 -4 18.4 C-5.739 19.2 -8 20.8 -9.6 21.6 C-11.545 22.4 -13.6 23.2 -15.2 24.8 C-16.573 24.8 -17.6 25.6 -19.2 26.4 C-22.539 28 -26.4 30.4 -29.6 32 C-31 32.8 -31.2 32.8 -33.6 33.6 C-38.929 32.8 -44 31.2 -48.8 28 C-50.562 25.6 -50.4 25.6 -51.2 23.2 C-51.017 20.8 -51.2 19.2 -51.2 16.8 C-50.12 17.6 -49.6 17.6 -48 17.6 C-47.159 18.4 -45.6 18.4 -44.8 19.2 C-44.234 19.2 -44 19.2 -43.2 20 C-40.43 20.8 -38.4 20.8 -35.2 20.8 C-32.901 20 -30.4 19.2 -28 17.6 C-27.383 17.6 -26.4 16.8 -25.6 16 C-24.669 16 -24 15.2 -23.2 15.2 C-21.917 14.4 -20.8 13.6 -20 13.6 C-14.608 10.4 -9.6 7.2 -4 4 C-2 3.2 -1.6 3.2 0 3.2 C0 2.4 0 0.8 0 0 Z " fill="#F8B049" transform="translate(118,454)"/>
<path d="M0 0 C4.522 0.8 8.8 1.6 12.8 3.2 C13.265 4 13.6 4 14.4 4 C15.813 4.8 16.8 5.6 18.4 5.6 C20.36 7.2 22.4 8 24 8.8 C27.34 9.6 30.4 11.2 33.6 12 C34.829 12.8 36 13.6 37.6 14.4 C39.657 15.2 41.6 16 43.2 16.8 C43.816 20 44 20 43.2 23.2 C43.532 24 43.2 24 43.2 26.4 C43.316 27.2 43.2 27.2 43.2 28.8 C42.835 28.8 43.2 28.8 41.6 30.4 C39.106 30.4 36 30.4 33.6 30.4 C31.219 30.4 28.8 30.4 27.2 30.4 C23.986 30.4 21.6 30.4 19.2 28.8 C17.114 26.4 16 24 14.4 20.8 C12.551 16.8 8.8 13.6 4.8 10.4 C3.57 8.8 2.4 7.2 0.8 6.4 C0.145 2.4 0 2.4 0 0 Z " fill="#271E16" transform="translate(338,415)"/>
<path d="M0 0 C0.99 0 1.6 0.8 3.2 0.8 C3.688 3.2 4 3.2 4 5.6 C4.321 6.4 4.8 7.2 4.8 8 C4.873 9.6 4.8 10.4 5.6 11.2 C7.104 20.8 9.6 29.6 12.8 38.4 C13.055 39.2 13.6 40 13.6 40.8 C13.906 41.6 14.4 42.4 14.4 43.2 C15 44.8 15.2 44.8 15.2 48 C3.044 49.6 3.2 49.6 -1.6 48 C-3.332 46.4 -4 44.8 -4 43.2 C-4.756 40 -4.8 36 -4.8 32.8 C-5.035 32 -4.8 32 -4.8 31.2 C-5.377 24.8 -4 18.4 -2.4 12 C-2.258 11.2 -2.4 9.6 -1.6 8.8 C-1.192 5.6 -0.8 3.2 0 0 Z " fill="#C29568" transform="translate(377,452)"/>
<path d="M0 0 C0.005 4 0 8 0 12.8 C-0.116 13.6 0 15.2 0 16.8 C-0.107 26.4 -1.6 33.6 -5.6 42.4 C-6.01 43.2 -6.4 44 -7.2 44.8 C-7.66 44.8 -8 44.8 -8.8 44.8 C-10.406 42.4 -11.2 39.2 -12 36 C-12.21 35.2 -12.8 34.4 -12.8 33.6 C-14.79 24 -14.4 13.6 -14.4 4 C-13.67 3.2 -13.6 2.4 -12.8 1.6 C-8.417 0 -4.8 0 0 0 Z " fill="#C7986C" transform="translate(189,162)"/>
<path d="M0 0 C1.948 0 1.6 0 4 0.8 C5.048 2.4 4.8 2.4 5.6 4.8 C6.128 6.4 6.4 7.2 6.4 8 C7.049 8.8 7.2 9.6 8 11.2 C8.015 12 8 12.8 8.8 13.6 C9.771 16.8 11.2 20 12 23.2 C12.921 26.4 13.6 29.6 15.2 32.8 C15.709 35.2 16 37.6 16.8 39.2 C19.264 45.6 21.6 52.8 24 59.2 C25.645 63.2 27.2 67.2 28 71.2 C23.437 71.2 23.2 71.2 20.8 71.2 C19.521 68.8 19.2 68 18.4 65.6 C17.979 64.8 17.6 64 17.6 63.2 C16.855 61.6 16 59.2 15.2 57.6 C15.094 56 14.4 55.2 14.4 53.6 C12.952 49.6 12 46.4 10.4 43.2 C10.033 40.8 9.6 39.2 8.8 37.6 C6.729 31.2 4.8 24.8 3.2 18.4 C2.264 16.8 1.6 15.2 0.8 13.6 C0.841 12 0.8 11.2 0 10.4 C0.034 9.6 0 8.8 -0.8 8 C-1.055 5.6 -0.8 3.2 -0.8 0.8 C-0.67 0.8 0 0 0 0 Z " fill="#0C0908" transform="translate(424,429)"/>
<path d="M0 0 C2.438 -0.8 2.4 -0.8 4.8 0 C9.704 11.2 9.6 24 9.6 36.8 C9.255 37.6 9.6 37.6 9.6 38.4 C9.278 40.8 9.6 42.4 9.6 44 C9.263 45.6 9.6 46.4 9.6 48 C8.984 51.2 8 53.6 7.2 56.8 C3.938 57.6 4 57.6 0.8 56.8 C0.67 56.8 0 56 0 56 C-0.088 54.4 0 52.8 0 52 C-0.094 50.4 0 49.6 0 48.8 C-0.079 48 0 47.2 0 45.6 C-0.059 44.8 0 44 0 43.2 C-0.035 38.4 0 34.4 0 29.6 C0.039 26.4 0 23.2 0 20 C0.067 19.2 0 19.2 0 16.8 C0.103 12.8 0 8.8 -0.8 4 C-0.638 4 -0.8 4 -0.8 0.8 C-0.67 0.8 0 0 0 0 Z " fill="#E38251" transform="translate(253,297)"/>
<path d="M0 0 C1.879 0.8 1.6 0.8 4 2.4 C5.114 5.6 5.6 8 6.4 11.2 C4.879 13.6 4.8 13.6 3.2 15.2 C1.18 16 -0.8 17.6 -3.2 18.4 C-3.763 19.2 -4.8 19.2 -4.8 20 C-9.509 22.4 -9.6 22.4 -12 23.2 C-12.875 23.2 -13.6 23.2 -14.4 22.4 C-15.525 20 -15.2 17.6 -15.2 14.4 C-15.521 13.6 -15.2 13.6 -16 11.2 C-15.472 9.6 -15.2 8.8 -15.2 8 C-12.423 4.8 -9.6 3.2 -6.4 1.6 C-5.733 1.6 -5.6 1.6 -4 0 C-2.121 0 -2.4 0 0 0 Z " fill="#261E16" transform="translate(370.12109375,357.26953125)"/>
<path d="M0 0 C1.857 2.4 2.4 4.8 3.2 8 C3.817 8.8 4 9.6 4.8 10.4 C4.73 12 4.8 12.8 5.6 14.4 C9.195 27.2 13.6 39.2 18.4 52 C18.394 52.8 18.4 53.6 19.2 54.4 C19.398 55.2 20 56.8 20 58.4 C22 62.4 22.4 62.4 22.4 64.8 C19.227 65.6 19.2 65.6 16 64.8 C14.163 62.4 13.6 59.2 12 56 C12.079 55.2 12 54.4 11.2 53.6 C10.619 51.2 9.6 48.8 8.8 46.4 C8.802 45.6 8.8 44.8 8 44 C7.385 40.8 6.4 37.6 5.6 34.4 C4.884 31.2 4 28.8 3.2 26.4 C3.325 26.4 3.2 26.4 2.4 24 C2.099 21.6 1.6 20 0.8 18.4 C-0.256 13.6 -1.6 9.6 -1.6 4.8 C-1.34 4.8 -0.8 4.8 0 4.8 C0 3.2 0 1.6 0 0 Z " fill="#BB8F65" transform="translate(423,435)"/>
<path d="M0 0 C1.805 0 1.6 0 4 0.8 C5.561 3.2 7.2 4.8 8 7.2 C8.472 8 8.8 8 8.8 8.8 C11.555 12.8 12.8 16.8 14.4 20.8 C13.34 20.8 12.8 20 12 20 C7.862 19.2 4 19.2 0 20 C-3.572 22.4 -6.4 25.6 -8.8 28.8 C-10 25.6 -9.6 25.6 -9.6 24 C-9.356 22.4 -8.8 20 -8 18.4 C-8.195 17.6 -8 16.8 -8 16 C-6.347 10.4 -4 5.6 -0.8 0.8 C-0.67 0.8 0 0 0 0 Z " fill="#4F3E2E" transform="translate(147,15)"/>
<path d="M0 0 C2.212 0 4 0 6.4 0 C7.281 0 8 0 8.8 0 C10.095 0 11.2 0 12.8 0 C15.134 0 17.6 0 19.2 0 C28.469 0 36.8 0.8 46.4 1.6 C45.67 3.2 45.6 4 44.8 4.8 C42.301 5.6 40 6.4 36.8 6.4 C36.652 6.4 36.8 6.4 34.4 7.2 C27.016 8 19.2 8 12 8 C11.291 8 10.4 8 10.4 8 C3.006 8 3.2 8 0 8 C-0.33 8 -0.8 7.2 -0.8 7.2 C-1.125 4 -0.8 4 -0.8 0.8 C-0.67 0.8 0 0 0 0 Z " fill="#F2F2F2" transform="translate(224,369)"/>
<path d="M0 0 C0.283 0 0 0 1.6 2.4 C6.873 8.8 12.8 13.6 20 16.8 C21.056 17.6 21.6 17.6 23.2 18.4 C23.284 18.4 23.2 18.4 24.8 19.2 C25 20 24.8 20 24.8 20.8 C17.18 21.6 10.4 20.8 3.2 17.6 C-2.798 15.2 -7.2 11.2 -11.2 6.4 C-10.29 5.6 -9.6 5.6 -8.8 4.8 C-7.929 4.8 -7.2 4 -6.4 3.2 C-5.604 3.2 -5.6 3.2 -3.2 2.4 C-1 0.8 -0.8 0.8 0 0 Z " fill="#493B2C" transform="translate(141,458)"/>
<path d="M0 0 C0.33 0 0.8 0 0.8 0 C1 1.6 0.8 4 0.8 6.4 C1.99 6.4 3.2 6.4 4 6.4 C8.083 7.2 12 8 16 8.8 C15.552 11.2 15.2 13.6 14.4 16.8 C14.562 16.8 14.4 16.8 14.4 18.4 C13.894 20.8 13.6 22.4 12.8 24 C12.34 24 12 24.8 11.2 24.8 C8.913 24 7.2 23.2 4.8 22.4 C4.383 22.4 4 22.4 3.2 21.6 C-0.844 20 -0.8 20 -1.6 19.2 C-2.626 12.8 -1.6 6.4 0 0 Z " fill="#4C3E2E" transform="translate(211,463)"/>
<path d="M0 0 C1.98 0.8 4 1.6 6.4 3.2 C4.612 7.2 3.2 9.6 0.8 13.6 C0.306 13.6 0 14.4 0 15.2 C-1.029 16 -1.6 16.8 -2.4 17.6 C-3.435 19.2 -4.8 20.8 -5.6 22.4 C-7.32 25.6 -8.8 28 -11.2 31.2 C-11.512 32 -12 32.8 -12.8 33.6 C-13.029 33.6 -13.6 34.4 -14.4 35.2 C-16.688 34.4 -16.8 34.4 -19.2 33.6 C-18.53 28.8 -16 24.8 -12.8 20.8 C-12.578 20 -12.8 20 -11.2 18.4 C-8.509 14.4 -5.6 9.6 -2.4 5.6 C-0.926 4 -0.8 2.4 0 0 Z " fill="#FCBBBC" transform="translate(297,246)"/>
<path d="M0 0 C-0.494 6.4 -2.4 11.2 -5.6 16 C-5.659 16.8 -6.4 17.6 -6.4 19.2 C-7.296 20.8 -8 22.4 -8.8 24 C-9.837 25.6 -10.4 27.2 -11.2 29.6 C-11.933 30.4 -12 31.2 -12.8 32 C-13.075 32.8 -13.6 33.6 -13.6 34.4 C-14.152 35.2 -14.4 35.2 -15.2 36 C-17.641 36 -17.6 36 -20 35.2 C-19.436 29.6 -17.6 25.6 -15.2 20.8 C-14.773 20 -14.4 19.2 -14.4 18.4 C-12.498 15.2 -11.2 12 -9.6 8.8 C-8 6.4 -8 6.4 -8 4 C-7.419 3.2 -7.2 2.4 -7.2 1.6 C-4.557 0.8 -2.4 0 0 0 Z " fill="#FABABA" transform="translate(158,239)"/>
<path d="M0 0 C2.97 0.8 5.6 1.6 8.8 1.6 C8.175 3.2 7.2 4 6.4 4.8 C3.643 8 1.6 11.2 -0.8 15.2 C-1.275 16 -1.6 16 -1.6 16.8 C-3.643 20 -5.6 22.4 -7.2 25.6 C-7.489 26.4 -8 27.2 -8.8 28 C-9.207 29.6 -9.6 30.4 -10.4 31.2 C-10.835 32 -11.2 32 -12 32.8 C-14.707 32.8 -14.4 32.8 -16.8 32 C-16.484 27.2 -15.2 24.8 -12.8 20.8 C-12.185 20 -11.2 18.4 -11.2 17.6 C-10.28 16.8 -9.6 16 -8.8 15.2 C-7.916 13.6 -7.2 12 -5.6 10.4 C-5.268 9.6 -4.8 8.8 -4 8 C-2.779 5.6 -1.6 3.2 0 0.8 C0 0.8 0 0 0 0 Z " fill="#FCBBBC" transform="translate(283,241)"/>
<path d="M0 0 C2 1.6 1.6 1.6 3.2 4 C2.809 8 1.6 10.4 0 13.6 C-1.579 16.8 -1.6 20 -1.6 23.2 C-2.66 22.4 -3.2 21.6 -4 20.8 C-4.338 21.6 -4.8 22.4 -4.8 23.2 C-5.469 24 -5.6 24.8 -6.4 25.6 C-6.816 26.4 -7.2 27.2 -8 28.8 C-9.804 32.8 -9.6 32.8 -11.2 33.6 C-13.062 33.6 -12.8 33.6 -15.2 32.8 C-15.777 31.2 -16 31.2 -16 28.8 C-15.028 26.4 -15.2 26.4 -13.6 24 C-12.968 22.4 -12.8 21.6 -12 20.8 C-11.29 19.2 -10.4 18.4 -10.4 17.6 C-8.999 15.2 -8 13.6 -6.4 11.2 C-6.254 10.4 -5.6 9.6 -5.6 8 C-4 6.4 -4 6.4 -3.2 3.2 C-4.32 2.4 -5.6 2.4 -7.2 1.6 C-4.69 0.8 -2.4 0 0 0 Z " fill="#FCBEBF" transform="translate(168,235)"/>
<path d="M0 0 C0.724 0 1.6 0 2.4 0 C3.732 0 5.6 0 7.2 0 C9.12 0 11.2 0 13.6 0 C31.665 0 32 0 37.6 2.4 C37.821 2.4 37.6 2.4 38.4 4.8 C38.326 5.6 37.6 6.4 37.6 7.2 C34.084 7.2 31.2 6.4 28 4.8 C24.377 4 21.6 4 17.6 4 C17.27 4 17.6 4 16 4 C9.779 4 4.8 5.6 -0.8 7.2 C-3.344 8 -3.2 8 -5.6 8 C-7.344 7.2 -7.2 7.2 -8.8 5.6 C-9.506 5.6 -9.6 4.8 -10.4 4 C-10.344 3.2 -10.4 2.4 -10.4 0.8 C-6.832 0 -4 0 0 0 Z " fill="#C4976A" transform="translate(276.34375,70.83203125)"/>
<path d="M0 0 C0 0.8 0 1.6 0 3.2 C-1.659 4.8 -3.2 6.4 -4.8 8 C-5.599 8.8 -6.4 9.6 -6.4 9.6 C-8.981 12 -11.2 14.4 -14.4 16.8 C-17.071 19.2 -19.2 21.6 -21.6 24.8 C-21.751 25.6 -22.4 25.6 -22.4 26.4 C-26.735 32.8 -30.4 40 -33.6 46.4 C-33.849 48 -34.4 48.8 -35.2 49.6 C-35.66 49.6 -36 49.6 -36.8 49.6 C-37.437 44 -36.8 40 -34.4 34.4 C-26.946 20 -12.8 9.6 0 0 Z " fill="#BC9166" transform="translate(80,415)"/>
<path d="M0 0 C1.875 0 1.6 0 4 0.8 C6.288 5.6 8 10.4 8.8 15.2 C10.218 20 11.2 24.8 13.6 29.6 C14.102 31.2 14.4 32.8 14.4 35.2 C11.164 35.2 11.2 35.2 8 35.2 C6.68 32.8 6.4 31.2 5.6 28.8 C5.178 28 4.8 28 4.8 27.2 C4.152 24.8 3.2 23.2 3.2 20.8 C2.801 20 2.4 20 2.4 19.2 C-1.393 5.6 -1.6 5.6 -0.8 0.8 C-0.67 0.8 0 0 0 0 Z " fill="#0C0808" transform="translate(401,465)"/>
<path d="M0 0 C1.831 0 4 0 5.6 0 C6.5 0 7.2 0 8.8 0 C8.939 0 8.8 0 11.2 0 C11.33 0 12 0.8 12 0.8 C12.528 5.6 12.8 10.4 12 15.2 C10.613 16 10.4 16 8.8 16.8 C6.887 16.8 7.2 16.8 4.8 16.8 C4.051 16.8 3.2 16.8 2.4 16.8 C1.774 16.8 1.6 16.8 0 16.8 C-0.33 16.8 -0.8 16 -0.8 16 C-1.1 13.6 -0.8 11.2 -0.8 8.8 C-1.129 8 -0.8 7.2 -0.8 6.4 C-1.133 4.8 -0.8 2.4 -0.8 0.8 C-0.67 0.8 0 0 0 0 Z " fill="#D9C1AB" transform="translate(205,361)"/>
<path d="M0 0 C2.515 0 4.8 0 7.2 0 C7.779 0 8 0 9.6 0 C11.959 0 14.4 0 16.8 0 C18.206 0.8 20 0.8 21.6 0.8 C25.245 0.8 28.8 0.8 32.8 0.8 C31.848 3.2 31.2 4.8 28.8 7.2 C26.634 7.2 24 7.2 22.4 7.2 C21.338 7.2 20.8 7.2 20 7.2 C17.756 7.2 15.2 7.2 13.6 7.2 C11.891 7.2 10.4 7.2 8.8 7.2 C5.281 7.2 1.6 7.2 -1.6 7.2 C-2.125 4.8 -2.4 4.8 -1.6 1.6 C-1.34 1.6 -0.8 0.8 0 0 Z " fill="#EEE3C7" transform="translate(172,493)"/>
<path d="M0 0 C0.66 0 1.6 0 1.6 0 C2.625 2.4 3.2 4.8 3.2 7.2 C3.627 8 4 8.8 4 9.6 C4.765 15.2 5.6 20.8 6.4 26.4 C6.271 26.4 6.4 27.2 6.4 28 C6.972 32.8 7.2 37.6 7.2 41.6 C4.569 40 3.2 38.4 1.6 35.2 C1.41 34.4 0.8 33.6 0.8 32 C0.582 32 0.8 32 0 29.6 C-0.508 28.8 -0.8 28 -0.8 27.2 C-1.99 27.2 -3.2 28 -4 28 C-2.667 18.4 -1.6 9.6 0 0 Z " fill="#4E3E2E" transform="translate(415,53)"/>
<path d="M0 0 C0.66 0 1.6 0 1.6 0 C3.119 1.6 4 4 4.8 5.6 C7.908 12 8 12 8.8 12.8 C9.441 18.4 8.8 24 8 28.8 C7.499 29.6 7.2 30.4 7.2 31.2 C6.906 32.8 6.4 34.4 6.4 36 C5.34 36 4.8 36 4 36 C-0.293 24.8 0 12 0 0 Z " fill="#F1F1F1" transform="translate(91,283)"/>
<path d="M0 0 C0.66 0 1.6 0 1.6 0 C2.316 2.4 2.4 2.4 1.6 6.4 C0.348 8 -0.8 9.6 -3.2 11.2 C-13.096 20.8 -20.8 32.8 -25.6 46.4 C-26.35 49.6 -27.2 52.8 -27.2 56 C-27.516 56.8 -28 57.6 -28 57.6 C-30.066 58.4 -30.4 58.4 -32 59.2 C-30.629 45.6 -24.8 33.6 -16.8 22.4 C-12.28 16.8 -7.2 10.4 -0.8 5.6 C-0.667 4.8 0 4.8 0 4 C0.152 1.6 0 1.6 0 0 Z " fill="#967453" transform="translate(197,102)"/>
<path d="M0 0 C0.33 0 0.8 0 0.8 0 C1 8.8 0.8 17.6 0.8 27.2 C-4 22.4 -4 22.4 -6.4 19.2 C-8 16.8 -8 16.8 -9.6 16 C-9.88 13.6 -9.6 12 -8 10.4 C-6.923 8.8 -5.6 7.2 -4.8 5.6 C-4.084 4.8 -4 4.8 -3.2 4 C-2.188 2.4 -0.8 1.6 0 0 Z " fill="#C4966A" transform="translate(499,419)"/>
<path d="M0 0 C0.99 0 1.6 0 3.2 0 C4.233 1.6 5.6 4 6.4 5.6 C6.46 6.4 6.4 7.2 7.2 7.2 C9 12 8.8 12 8.8 14.4 C9.763 13.6 10.4 13.6 11.2 12.8 C14 12 14.4 12 16.8 12 C17.688 14.4 17.6 14.4 17.6 16 C15.19 16.8 12 17.6 9.6 18.4 C8.76 18.4 8 18.4 7.2 18.4 C6.367 19.2 5.6 19.2 4.8 19.2 C4.109 19.2 3.2 19.2 2.4 20 C2.122 20 1.6 20 0.8 20 C0.67 20 0 19.2 0 19.2 C-0.087 17.6 0 16 0 14.4 C-0.094 13.6 0 12.8 0 12 C-0.08 11.2 0 10.4 0 9.6 C-0.058 8.8 0 8 0 6.4 C-0.037 4.8 0 2.4 0 0 Z " fill="#EDEDED" transform="translate(159,201)"/>
<path d="M0 0 C-0.396 2.4 -0.8 4.8 -2.4 8 C-4 9.6 -4 9.6 -7.2 11.2 C-11.918 12.8 -16.8 12 -22.4 12 C-21.67 11.2 -21.6 10.4 -20.8 8.8 C-18.672 7.2 -18.4 7.2 -16 5.6 C-14.796 4.8 -13.6 4 -12.8 4 C-8.439 0.8 -4.8 0 0 0 Z " fill="#493A2B" transform="translate(181,361)"/>
<path d="M0 0 C0.99 0 1.6 0 3.2 0 C6.514 7.2 6.4 18.4 7.2 25.6 C4.086 26.4 4 26.4 0.8 25.6 C-1.404 22.4 -0.8 16.8 -0.8 12 C-1.202 8 -1.6 4.8 -0.8 0.8 C-0.67 0.8 0 0 0 0 Z " fill="#0B0807" transform="translate(31,474)"/>
<path d="M0 0 C0.66 0 1.6 0 1.6 0 C1.863 0.8 1.6 1.6 1.6 2.4 C-0.12 13.6 -0.8 24.8 -0.8 36 C-0.663 37.6 -0.8 40 -0.8 41.6 C-0.837 46.4 -0.8 50.4 -0.8 55.2 C-1.33 55.2 -1.6 55.2 -1.6 55.2 C-2.165 49.6 -2.4 49.6 -3.2 20 C-7.444 26.4 -7.2 26.4 -8.8 30.4 C-9.333 30.4 -9.6 30.4 -11.2 33.6 C-11.33 33.6 -12 32.8 -12 32 C-11.443 29.6 -11.2 29.6 -10.4 27.2 C-10.142 26.4 -9.6 24.8 -9.6 24 C-9.068 23.2 -8.8 22.4 -8 20.8 C-7.96 20 -8 19.2 -7.2 17.6 C-2.324 4 -2.4 4 0 0 Z " fill="#433528" transform="translate(130,35)"/>
<path d="M0 0 C2.25 -0.8 2.4 -0.8 4.8 0 C9.284 5.6 11.2 13.6 12.8 20 C13 20.8 12.8 21.6 12.8 23.2 C8.373 24 8 24 6.4 23.2 C4.725 20.8 4 18.4 4 16 C3.536 15.2 3.2 14.4 3.2 13.6 C2.931 12.8 2.4 11.2 2.4 9.6 C1.912 7.2 1.6 5.6 0.8 3.2 C0.502 2.4 0 0.8 0 0 Z " fill="#BF9267" transform="translate(379,477)"/>
<path d="M0 0 C1.938 0 1.6 0 4 0.8 C5.638 5.6 6.4 11.2 8 16 C7.759 16.8 8 17.6 8 18.4 C8.357 20 8.8 21.6 8.8 23.2 C4.337 24 4 24 1.6 23.2 C0.553 20.8 0 18.4 0 15.2 C-0.049 14.4 0 13.6 0 13.6 C-0.878 8.8 -1.6 4.8 -0.8 0.8 C-0.67 0.8 0 0 0 0 Z " fill="#100B0A" transform="translate(376,477)"/>
<path d="M0 0 C0.33 0.8 0.8 1.6 0.8 1.6 C0.474 4 0.8 4 -0.8 6.4 C-0.775 7.2 -0.8 8 -1.6 8.8 C-1.819 9.6 -2.4 10.4 -2.4 11.2 C-2.929 12.8 -3.2 13.6 -4 14.4 C-9.521 28 -9.6 28 -12.8 32 C-13.99 32 -15.2 31.2 -16 31.2 C-16.158 26.4 -15.2 24 -13.6 20 C-11.811 17.6 -9.6 14.4 -8 11.2 C-7.337 10.4 -6.4 9.6 -6.4 8.8 C-1.276 1.6 -1.6 1.6 0 0 Z " fill="#F4B5B5" transform="translate(309,250)"/>
<path d="M0 0 C0.66 0 1.6 0 1.6 0 C-0.759 6.4 -4.8 9.6 -10.4 13.6 C-12 15.2 -12 15.2 -15.2 16 C-17.061 16 -19.2 16 -20.8 16 C-21.731 16 -21.6 16 -24.8 16 C-25.312 16 -26.4 16 -27.2 16 C-27 15.2 -27.2 14.4 -27.2 14.4 C-24.739 12.8 -22.4 12 -20 11.2 C-13.143 8.8 -5.6 5.6 0 0 Z " fill="#C09469" transform="translate(97,389)"/>
<path d="M0 0 C0.66 0 1.6 0.8 1.6 0.8 C2.411 3.2 2.4 3.2 2.4 5.6 C2.717 7.2 2.4 8 3.2 8.8 C2.965 9.6 3.2 11.2 3.2 12 C3.168 12.8 3.2 12.8 3.2 15.2 C3.81 20.8 4 25.6 4 31.2 C3.01 31.2 2.4 31.2 0.8 31.2 C-2.065 24.8 -2.4 16.8 -2.4 9.6 C-2.318 8.8 -2.4 8 -2.4 8 C-2.276 4 -2.4 4 -1.6 1.6 C-1.34 1.6 -0.8 0.8 0 0 Z " fill="#BB8F64" transform="translate(166,168)"/>
<path d="M0 0 C-0.087 1.6 0 4 0 5.6 C-0.371 6.4 -0.8 7.2 -0.8 8.8 C-0.657 9.6 -0.8 10.4 -0.8 11.2 C-1.99 11.2 -3.2 12 -4 12 C-6.34 11.2 -6.4 11.2 -8.8 10.4 C-11.945 9.6 -15.2 8.8 -17.6 8 C-17.67 7.2 -17.6 6.4 -16.8 4.8 C-15.541 4 -15.2 4 -13.6 4 C-13.027 3.2 -12 3.2 -12 3.2 C-10.98 2.4 -10.4 2.4 -9.6 2.4 C-8.868 2.4 -8 1.6 -7.2 1.6 C-2.338 0 -2.4 0 0 0 Z " fill="#47392A" transform="translate(286,357)"/>
<path d="M0 0 C2.314 0 4.8 0 7.2 0 C7.267 0 7.2 0 8.8 -0.8 C10.84 -0.8 11.2 -0.8 14.4 0 C15.109 2.4 15.2 2.4 15.2 4.8 C13.483 7.2 11.2 8.8 8.8 9.6 C8.319 9.6 8 9.6 7.2 9.6 C4.304 7.2 1.6 4.8 0 1.6 C0 1.6 0 0.8 0 0 Z " fill="#EFEFEF" transform="translate(233,259)"/>
<path d="M0 0 C0.054 1.6 0 4 0 5.6 C0.148 6.4 0 7.2 0 8.8 C0.131 9.6 0 10.4 0 11.2 C-0.33 11.2 0 11.2 -1.6 12 C-4.312 11.2 -4 11.2 -7.2 10.4 C-7.887 10.4 -8.8 10.4 -9.6 9.6 C-12 8.8 -12 8.8 -13.6 7.2 C-13.539 7.2 -13.6 6.4 -14.4 6.4 C-12.234 4.8 -10.4 4 -8.8 3.2 C-8.194 2.4 -8 2.4 -5.6 1.6 C-3 0 -3.2 0 0 0 Z " fill="#251D16" transform="translate(372,381)"/>
<path d="M0 0 C2.562 0 2.4 0 4.8 0.8 C5.33 1.6 5.6 2.4 6.4 3.2 C5.243 4 5.6 4 4 5.6 C3.795 6.4 4 6.4 2.4 8 C2.208 8 1.6 8.8 1.6 9.6 C0.794 10.4 0 10.4 0 11.2 C-4.792 16.8 -4.8 16.8 -7.2 19.2 C-7.66 19.2 -8 19.2 -8.8 19.2 C-8.334 17.6 -8 16 -7.2 14.4 C-6.598 12.8 -6.4 12 -5.6 11.2 C-5.358 9.6 -4.8 8.8 -4.8 8 C-4.077 6.4 -4 5.6 -3.2 4.8 C-2 1.6 -1.6 1.6 0 0 Z " fill="#BC9166" transform="translate(263,163)"/>
<path d="M0 0 C0.99 0 1.6 0.8 3.2 0.8 C2.481 1.6 1.6 1.6 1.6 2.4 C-2.528 6.4 -6.4 10.4 -8.8 14.4 C-9.39 15.2 -9.6 15.2 -9.6 16 C-10.33 16 -10.4 16 -11.2 16 C-11 14.4 -11.2 12.8 -11.2 11.2 C-11.459 11.2 -12 11.2 -12 12 C-15.56 12.8 -18.4 14.4 -22.4 15.2 C-18.287 10.4 -13.6 8 -8.8 4.8 C-8.122 4.8 -7.2 4 -6.4 4 C-5.682 3.2 -4.8 2.4 -4 2.4 C-3.377 1.6 -2.4 1.6 -1.6 0.8 C-1.293 0.8 -0.8 0 0 0 Z " fill="#423529" transform="translate(376,30)"/>
<path d="M0 0 C0 3.2 -0.8 4.8 -1.6 8 C-2.375 8.8 -2.4 9.6 -3.2 10.4 C-3.628 11.2 -4 12 -4.8 12.8 C-4.929 14.4 -5.6 15.2 -5.6 16 C-6.862 18.4 -8 20.8 -8.8 23.2 C-10.013 21.6 -10.4 21.6 -11.2 20 C-10.793 17.6 -10.4 17.6 -10.4 14.4 C-9.995 12.8 -9.6 12 -9.6 11.2 C-9.506 10.4 -9.6 10.4 -8.8 8 C-8.661 6.4 -8 4 -8 1.6 C-7.051 2.4 -6.4 2.4 -4.8 2.4 C-4.609 2.4 -4.8 2.4 -1.6 1.6 C-1.34 1.6 -0.8 0.8 0 0 Z " fill="#EEAFB0" transform="translate(142,246)"/>
<path d="M0 0 C3.651 1.6 6.4 4 9.6 6.4 C10.115 7.2 10.4 7.2 11.2 8 C13.454 9.6 15.2 11.2 16.8 14.4 C16.29 13.6 15.2 13.6 15.2 13.6 C13.929 13.6 12.8 13.6 12 13.6 C11.146 12.8 10.4 12.8 9.6 12.8 C8.531 12.8 8 12.8 7.2 12.8 C6.67 13.6 6.4 15.2 6.4 16 C5.184 14.4 4 12 3.2 10.4 C3.447 9.6 3.2 9.6 3.2 8.8 C1.67 5.6 0.8 3.2 0 0 Z " fill="#48392B" transform="translate(162,22)"/>
<path d="M0 0 C0.016 2.4 0 2.4 -0.8 4.8 C-3.705 5.6 -6.4 5.6 -9.6 5.6 C-10.776 5.6 -12 5.6 -13.6 5.6 C-14.551 5.6 -15.2 5.6 -16 5.6 C-18.405 6.4 -20.8 6.4 -23.2 7.2 C-23.66 6.4 -24 6.4 -24.8 6.4 C-25 5.6 -24.8 4.8 -24.8 4 C-23.028 3.2 -23.2 3.2 -20 2.4 C-19.314 2.4 -18.4 2.4 -17.6 1.6 C-16.29 1.6 -15.2 1.6 -14.4 1.6 C-13.163 0.8 -12 0.8 -11.2 0.8 C-3.388 -0.8 -3.2 -0.8 0 0 Z " fill="#221913" transform="translate(284,377)"/>
<path d="M0 0 C2.418 0 4.8 0 7.2 0 C7.932 0.8 8.8 0.8 9.6 0.8 C12.274 0.8 14.4 0.8 17.6 1.6 C17.995 2.4 18.4 2.4 19.2 3.2 C18.75 4.8 18.4 4.8 17.6 7.2 C14.491 6.4 11.2 6.4 8 4.8 C4.39 4 0.8 3.2 -3.2 3.2 C-2.01 2.4 -0.8 2.4 0 1.6 C0 1.6 0 0.8 0 0 Z " fill="#AD845D" transform="translate(296,71)"/>
<path d="M0 0 C0.99 0 1.6 0.8 3.2 0.8 C2.602 1.6 2.4 1.6 1.6 1.6 C-2.723 5.6 -2.4 5.6 -4.8 8 C-5.162 8 -5.6 8.8 -6.4 8.8 C-6.66 8.8 -7.2 8.8 -8 8.8 C-9.394 10.4 -10.4 11.2 -12 12.8 C-12.819 13.6 -13.6 14.4 -14.4 15.2 C-15.264 16 -16 16.8 -16.8 17.6 C-17.77 18.4 -18.4 19.2 -19.2 20 C-20.972 21.6 -22.4 23.2 -24 24.8 C-25.685 26.4 -27.2 28 -28.8 30.4 C-28.715 28 -28.8 28 -28 24.8 C-26.504 23.2 -26.4 23.2 -24.8 21.6 C-21.123 19.2 -17.6 16 -15.2 12.8 C-14.015 12 -13.6 11.2 -12 10.4 C-11.154 8.8 -9.6 8 -8.8 6.4 C-5.969 4 -3.2 1.6 0 0 Z " fill="#D1C8B0" transform="translate(151,382)"/>
<path d="M0 0 C0.33 0 0.8 0 0.8 0 C1.874 3.2 2.4 7.2 3.2 10.4 C3.249 12 3.2 12.8 4 13.6 C4.502 18.4 5.6 23.2 4.8 28 C4.01 28 3.2 28 1.6 28 C1.245 25.6 0.8 23.2 0 20.8 C0.249 20.8 0 20.8 0 19.2 C-1.195 12.8 -1.6 6.4 0 0 Z " fill="#B1865F" transform="translate(373,472)"/>
<path d="M0 0 C0 12.8 0 24.8 0 38.4 C-0.33 38.4 -0.8 38.4 -0.8 38.4 C-1.165 32 -0.8 32 -1.6 3.2 C-6.444 9.6 -6.4 9.6 -8 12.8 C-8.667 14.4 -9.6 16 -9.6 16.8 C-10.33 16 -10.4 16 -11.2 15.2 C-9.929 10.4 -8.8 5.6 -5.6 2.4 C-3.787 0.8 -2.4 0 0 0 Z " fill="#654D37" transform="translate(129,52)"/>
<path d="M0 0 C1.812 0 1.6 0 4 0.8 C7.215 4.8 10.4 8.8 12 12.8 C11.67 13.6 11.2 15.2 11.2 16 C9.365 14.4 8 12.8 6.4 11.2 C5.665 11.2 5.6 10.4 4.8 9.6 C2.491 8 0.8 6.4 0 3.2 C-0.586 2.4 -0.8 1.6 -0.8 0.8 C-0.67 0.8 0 0 0 0 Z " fill="#D9CFB5" transform="translate(314,393)"/>
<path d="M0 0 C0.66 0 1.6 0 1.6 0 C1.667 5.6 0.8 12 -0.8 17.6 C-1.107 18.4 -1.6 19.2 -1.6 20 C-1.893 21.6 -2.4 23.2 -3.2 24.8 C-3.66 24.8 -4 24.8 -4.8 24.8 C-4.707 18.4 -4 12.8 -2.4 7.2 C-1.893 6.4 -1.6 5.6 -1.6 4.8 C-1.107 3.2 -0.8 1.6 0 0 Z " fill="#BABABA" transform="translate(214,197)"/>
<path d="M0 0 C1.812 0 1.6 0 4 0.8 C5.812 3.2 5.6 3.2 7.2 4.8 C6.67 5.6 6.4 7.2 6.4 8 C3.625 9.6 4 9.6 0.8 11.2 C0.01 11.2 -0.8 11.2 -1.6 11.2 C-1.858 9.6 -1.6 8.8 -1.6 7.2 C-1.481 6.4 -1.6 5.6 -1.6 4.8 C-1 3.2 -0.8 3.2 0 0 Z " fill="#D9D9D9" transform="translate(139,221)"/>
<path d="M0 0 C0.66 0 1.6 0.8 1.6 0.8 C1.758 1.6 1.6 1.6 0.8 2.4 C-1.688 4.8 -4 7.2 -6.4 8.8 C-6.886 9.6 -8 10.4 -8.8 11.2 C-12.465 15.2 -16 19.2 -20 24 C-20.199 24 -20.8 24.8 -20.8 24.8 C-21.66 24.8 -22.4 24 -23.2 24 C-17.274 16.8 -11.2 10.4 -4.8 4 C-4.414 4 -4 3.2 -3.2 2.4 C-2.18 1.6 -2.4 1.6 0 0 Z " fill="#B18860" transform="translate(211,105)"/>
<path d="M0 0 C-3.977 4.8 -4 4.8 -7.2 5.6 C-8.578 6.4 -10.4 6.4 -12 7.2 C-12.625 4.8 -12.8 4.8 -12.8 3.2 C-11 0.8 -11.2 0.8 -8.8 0 C-8.468 0 -8 0 -7.2 0 C-6.373 0 -5.6 -0.8 -4.8 -0.8 C-3 -0.8 -3.2 -0.8 0 0 Z " fill="#251D16" transform="translate(289,346)"/>
<path d="M0 0 C0.804 0 1.6 0.8 2.4 0.8 C3.75 3.2 4 3.2 4.8 4.8 C3.25 5.6 3.2 5.6 1.6 7.2 C-1.404 6.4 -4 5.6 -6.4 4.8 C-6.25 3.2 -6.4 3.2 -5.6 0.8 C-2.562 0 -2.4 0 0 0 Z " fill="#241C15" transform="translate(323.5625,383.1875)"/>
<path d="M0 0 C0.66 0 1.6 0.8 1.6 0.8 C-1.087 4 -4 7.2 -7.2 10.4 C-8.346 11.2 -9.6 12.8 -10.4 13.6 C-11.957 15.2 -13.6 16.8 -15.2 18.4 C-15.228 18.4 -15.2 18.4 -16.8 20 C-17.557 20.8 -18.4 21.6 -20 23.2 C-20.66 22.4 -21.6 22.4 -22.4 22.4 C-21.553 21.6 -20.8 20.8 -20.8 20.8 C-17.808 17.6 -15.2 15.2 -12.8 12 C-9.968 8.8 -7.2 6.4 -4 3.2 C-2 1.6 -1.6 1.6 0 0 Z " fill="#B48B64" transform="translate(150,117)"/>
<path d="M0 0 C0.66 0 1.6 0 1.6 0 C1.885 1.6 1.6 3.2 1.6 4.8 C1.555 6.4 1.6 7.2 1.6 8 C0.991 11.2 0.8 13.6 -0.8 16 C-1.99 16 -3.2 16 -4 16 C-3.715 14.4 -3.2 12.8 -3.2 11.2 C-2.963 9.6 -2.4 8.8 -2.4 8 C-2.014 4.8 -1.6 2.4 0 0 Z " fill="#A57E5B" transform="translate(169,145)"/>
<path d="M0 0 C8.91 0 17.6 0 27.2 0 C27 0.8 27.2 1.6 27.2 1.6 C23.04 2.4 19.2 3.2 15.2 4 C15 3.2 15.2 2.4 15.2 0.8 C10.05 0.8 4.8 0.8 0 0.8 C0 0.8 0 0 0 0 Z " fill="#BE9366" transform="translate(269,71)"/>
<path d="M0 0 C0 0.8 0 1.6 0 3.2 C-1.466 4.8 -3.2 7.2 -4.8 8.8 C-5.67 8.8 -6.4 9.6 -6.4 10.4 C-8.047 12 -9.6 12.8 -11.2 14.4 C-13.863 14.4 -13.6 14.4 -16 14.4 C-12.569 10.4 -8.8 7.2 -4.8 4 C-4.685 4 -4 3.2 -4 3.2 C-2.446 1.6 -1.6 0.8 0 0 Z " fill="#A07C57" transform="translate(80,415)"/>
<path d="M0 0 C0.66 0 1.6 0 1.6 0 C2.375 2.4 2.4 2.4 1.6 6.4 C0.3 8.8 -1.6 10.4 -4 12 C-4.572 12.8 -4.8 13.6 -5.6 14.4 C-7.144 15.2 -8.8 16.8 -9.6 17.6 C-10.33 16.8 -10.4 16 -11.2 15.2 C-8.77 12.8 -6.4 10.4 -4 8 C-2.546 6.4 -1.6 5.6 0 4 C0.348 1.6 0 1.6 0 0 Z " fill="#A9825C" transform="translate(197,102)"/>
<path d="M0 0 C2.498 1.6 4.8 4 7.2 6.4 C7.438 8.8 7.2 8.8 7.2 11.2 C6.34 10.4 5.6 9.6 4.8 8.8 C2.875 9.6 3.2 9.6 0.8 11.2 C1.082 10.4 0.8 9.6 1.6 8.8 C1.168 8 0.8 7.2 0.8 6.4 C-1 4 -0.8 4 -3.2 3.2 C-2.01 2.4 -0.8 2.4 0 1.6 C0 1.6 0 0.8 0 0 Z " fill="#AE845C" transform="translate(258,75)"/>
<path d="M0 0 C0.33 0 0.8 0 0.8 0 C1.33 4.8 1.6 9.6 1.6 15.2 C1.01 15.2 0 15.2 -0.8 15.2 C-1.801 12.8 -1.6 12.8 -2.4 10.4 C-2.494 9.6 -2.4 8.8 -3.2 8 C-2.908 7.2 -3.2 6.4 -3.2 6.4 C-2.34 5.6 -1.6 5.6 -0.8 4.8 C-0.636 3.2 0 1.6 0 0 Z " fill="#AD855D" transform="translate(168,184)"/>
<path d="M0 0 C0.66 0 1.6 0 1.6 0 C2 4 1.6 8.8 1.6 12.8 C1.01 12.8 0 12.8 -0.8 12.8 C-1.027 11.2 -0.8 9.6 -0.8 8 C-1.074 6.4 -0.8 5.6 -0.8 4.8 C-1 1.6 -0.8 1.6 0 0 Z " fill="#9B7755" transform="translate(366,338)"/>
<path d="M0 0 C0 0.8 0 1.6 0 1.6 C-2.012 3.2 -2.4 3.2 -4.8 4.8 C-5.558 4.8 -6.4 5.6 -7.2 6.4 C-10 7.2 -9.6 7.2 -12.8 6.4 C-13.19 6.4 -12.8 6.4 -15.2 6.4 C-10.866 2.4 -5.6 -0.8 0 0 Z " fill="#B3B3B3" transform="translate(179,377)"/>
<path d="M0 0 C0 1.6 0 2.4 0 4 C-3.63 4 -7.2 4 -11.2 4 C-11 3.2 -11.2 2.4 -11.2 1.6 C-7.232 0.8 -4 0 0 0 Z " fill="#463828" transform="translate(282,377)"/>
<path d="M0 0 C-1 3.2 -0.8 3.2 -2.4 4 C-4.396 4.8 -5.6 5.6 -8 4.8 C-8.903 4.8 -9.6 4.8 -10.4 4.8 C-10.898 4.8 -11.2 4.8 -12 4.8 C-8.362 0.8 -5.6 0 0 0 Z " fill="#231C14" transform="translate(222,495)"/>
<path d="M0 0 C2.062 0 2.4 0 4 0.8 C4.33 1.6 4.8 1.6 4.8 1.6 C5.114 4 4.8 4 4.8 5.6 C5.094 6.4 4.8 7.2 4.8 8 C5.08 8.8 4.8 9.6 4.8 10.4 C5.058 11.2 4.8 12 4.8 12.8 C5.037 15.2 4.8 16.8 4.8 19.2 C4.67 19.2 4 19.2 4 19.2 C3.67 13.6 3.2 8.8 3.2 3.2 C2.01 3.2 0.8 4 0 4 C-0.625 6.4 -0.8 6.4 -0.8 8.8 C-1.33 8.8 -1.6 8.8 -1.6 8.8 C-2.195 4 -2.4 4 -1.6 1.6 C-1.34 1.6 -0.8 0.8 0 0 Z " fill="#614834" transform="translate(219,165)"/>
<path d="M0 0 C0.99 0 1.6 0 3.2 0 C3 0.8 3.2 1.6 3.2 1.6 C3.99 2.4 4.8 2.4 6.4 3.2 C6 4 6.4 4 6.4 4.8 C2.7 4.8 -0.8 4.8 -4 4.8 C-4 4 -4 4 -4 3.2 C-2.188 1.6 -2.4 1.6 0 0 Z " fill="#413428" transform="translate(189,474)"/>
<path d="M0 0 C0.66 0 1.6 0 1.6 0 C0.415 4 -1.6 6.4 -4.8 8.8 C-6.32 8 -8 7.2 -8.8 6.4 C-7.546 4.8 -6.4 4 -4.8 3.2 C-4.219 2.4 -4 2.4 -2.4 1.6 C-1.807 0.8 -1.6 0.8 0 0 Z " fill="#AC845E" transform="translate(97,389)"/>
<path d="M0 0 C2.5 0 2.4 0 4.8 0 C5.812 2.4 5.6 2.4 6.4 4.8 C4.68 4.8 3.2 4 1.6 4 C1.856 4.8 1.6 5.6 1.6 6.4 C1.377 7.2 0.8 8 0.8 8.8 C0.67 8.8 0 8.8 0 8.8 C-0.194 8 0 6.4 -0.8 4.8 C-0.667 4 -0.8 4 -0.8 3.2 C-0.919 2.4 -0.8 1.6 -0.8 0.8 C-0.67 0.8 0 0 0 0 Z " fill="#C57147" transform="translate(253,297)"/>
<path d="M0 0 C1.938 0 1.6 0 4 0.8 C5.25 3.2 5.6 3.2 6.4 6.4 C3.062 6.4 3.2 6.4 0 6.4 C-0.938 3.2 -0.8 3.2 -0.8 0.8 C-0.67 0.8 0 0 0 0 Z " fill="#120C09" transform="translate(418,494)"/>
<path d="M0 0 C0.362 0 0 0 2.4 0 C2.472 0 2.4 0 4 0 C3.875 0.8 4 2.4 4 3.2 C2.375 4.8 2.4 4.8 0.8 6.4 C0.875 4.8 0.8 2.4 0.8 0.8 C0.416 1.6 0 1.6 -0.8 1.6 C-3.685 3.2 -6.4 4 -10.4 4.8 C-6.668 1.6 -4.8 0 0 0 Z " fill="#775D43" transform="translate(364.125,39.9375)"/>
<path d="M0 0 C0.66 0 1.6 0 1.6 0 C2.081 1.6 2.4 4 2.4 5.6 C2.205 5.6 2.4 5.6 2.4 8.8 C2.196 9.6 2.4 10.4 1.6 11.2 C1.01 11.2 0 12 -0.8 12 C-0.67 8 0 4 0 0 Z " fill="#AA855E" transform="translate(357,344)"/>
<path d="M0 0 C1.848 0 1.6 0 4 0.8 C4.796 0.8 5.6 0.8 6.4 0.8 C6.568 0.8 6.4 0.8 8 0.8 C8 1.6 8 2.4 8 3.2 C6.515 3.2 6.4 3.2 -0.8 4 C-1 3.2 -0.8 2.4 -0.8 0.8 C-0.67 0.8 0 0 0 0 Z " fill="#433628" transform="translate(189,361)"/>
<path d="M0 0 C0.598 0 0.8 0.8 1.6 0.8 C2.204 0.8 2.4 1.6 3.2 1.6 C3 3.2 3.2 4 3.2 4.8 C1.858 5.6 0.8 5.6 -0.8 5.6 C-1.076 5.6 -1.6 5.6 -2.4 6.4 C-2.909 6.4 -3.2 6.4 -4 6.4 C-4.33 4.8 -4.8 4 -4.8 3.2 C-2.75 0.8 -2.4 0.8 0 0 Z " fill="#E2E2E2" transform="translate(174,212)"/>
<path d="M0 0 C2.82 0 3.2 0 6.4 0 C7.221 0 8 0 9.6 0 C10.288 0 11.2 0 12 0 C12 0 12 0.8 12 0.8 C11.348 0.8 10.4 0.8 10.4 0.8 C2.97 1.6 3.2 1.6 0 3.2 C-1.625 4.8 -1.6 4.8 -4 7.2 C-2.926 4 -2.4 2.4 0 0 Z " fill="#B7B09B" transform="translate(270,387)"/>
<path d="M0 0 C0.99 0 1.6 0.8 3.2 0.8 C-0.865 4.8 -4 5.6 -8.8 7.2 C-6.256 4 -4 1.6 0 0 Z " fill="#B4AE98" transform="translate(151,382)"/>
<path d="M0 0 C0.33 0.8 0.8 1.6 0.8 3.2 C-0.363 4.8 0 4.8 -2.4 7.2 C-2.948 8 -3.2 8.8 -4 8.8 C-5.478 10.4 -6.4 12 -8 12.8 C-7.628 10.4 -7.2 8 -5.6 5.6 C-4.733 4.8 -4 4 -3.2 4 C-2.797 3.2 -2.4 2.4 -1.6 1.6 C-1.002 0.8 -0.8 0.8 0 0 Z " fill="#B08A61" transform="translate(411,181)"/>
<path d="M0 0 C0 0.8 0 1.6 0 1.6 C-1.125 3.2 -0.8 3.2 -3.2 4 C-6.188 4 -6.4 4 -8.8 3.2 C-9 2.4 -8.8 1.6 -8.8 0.8 C-5.97 0 -3.2 0 0 0 Z " fill="#362A20" transform="translate(268,380)"/>
<path d="M0 0 C1.18 1.6 0.8 1.6 1.6 3.2 C0.883 4.8 0.8 4.8 -0.8 6.4 C-1.45 7.2 -2.4 8 -2.4 8.8 C-3.074 8.8 -3.2 9.6 -4 9.6 C-4.33 8.8 -4.8 8 -4.8 7.2 C-4.004 4.8 -4 4.8 -2.4 3.2 C-2.089 2.4 -1.6 2.4 -0.8 1.6 C-0.756 0.8 0 0.8 0 0 Z " fill="#9C7A59" transform="translate(185,118)"/>
<path d="M0 0 C2.97 0 5.6 0.8 8.8 0.8 C9 1.6 8.8 3.2 8.8 4 C7.686 4 6.4 4 4.8 4 C4.697 4 4.8 4 3.2 3.2 C2.238 3.2 1.6 3.2 0.8 3.2 C0.67 2.4 0 0.8 0 0 Z " fill="#C8996E" transform="translate(304,73)"/>
<path d="M0 0 C0.33 0 0.8 0 0.8 0 C1.352 4.8 1.6 4.8 0.8 7.2 C-1 8 -0.8 8 -3.2 8 C-2.738 5.6 -2.4 4 -1.6 1.6 C-1.34 1.6 -0.8 0.8 0 0 Z " fill="#B38962" transform="translate(168,153)"/>
<path d="M0 0 C0.33 0 0.8 0 0.8 0 C1.33 3.2 1.6 6.4 1.6 9.6 C1.34 9.6 0.8 9.6 0 9.6 C-0.33 11.2 -0.8 12 -0.8 12.8 C-1.195 4 -0.8 4 0 0 Z " fill="#A07C58" transform="translate(373,472)"/>
<path d="M0 0 C0.66 0 1.6 0 1.6 0 C2.625 1.6 2.4 1.6 3.2 4 C2.34 4 1.6 4 0.8 4 C1 8 0.8 12 0.8 16 C0.67 16 0 16 0 16 C0 10.4 0 5.6 0 0 Z " fill="#9E9E9E" transform="translate(91,283)"/>
<path d="M0 0 C0 0.8 0 1.6 0 3.2 C0.99 4 1.6 4 3.2 4.8 C0.69 5.6 -1.6 6.4 -4 7.2 C-3.688 4.8 -4 4.8 -3.2 3.2 C-1.438 1.6 -1.6 1.6 0 0 Z " fill="#AE875F" transform="translate(89,416)"/>
<path d="M0 0 C0.66 0 1.6 0 1.6 0 C1.67 3.2 1.6 5.6 0.8 8.8 C0.01 8.8 -0.8 8.8 -1.6 8.8 C-1.72 7.2 -1.6 5.6 -0.8 4.8 C-0.963 4 -0.8 3.2 -0.8 1.6 C-0.424 1.6 0 0.8 0 0 Z " fill="#7C7C7C" transform="translate(214,197)"/>
<path d="M0 0 C1.686 0 3.2 0 4.8 0 C5.982 0 7.2 0 8 0 C8.558 0 9.6 0 9.6 0 C10 0 9.6 0.8 9.6 0.8 C9.734 0.8 9.6 0.8 8 0.8 C6.196 1.6 4 1.6 1.6 1.6 C-0.5 4 -0.8 4 -1.6 6.4 C-1.7 4 -1.6 2.4 -0.8 0.8 C-0.67 0.8 0 0 0 0 Z " fill="#BDB6A1" transform="translate(172,493)"/>
<path d="M0 0 C0.33 0 0.8 0 0.8 0 C0.965 0.8 0.8 0.8 0.8 1.6 C0.867 2.4 0.8 3.2 0.8 4 C0.778 4.8 0.8 5.6 0.8 6.4 C0.804 6.4 0.8 7.2 0.8 8 C1.99 8 3.2 8.8 4 8.8 C3.125 10.4 3.2 10.4 1.6 12 C1.34 12 0.8 12 0 12 C0 8 0 4 0 0 Z " fill="#B58962" transform="translate(383,314)"/>
<path d="M0 0 C0.99 0 1.6 0.8 3.2 0.8 C3.438 3.2 3.2 3.2 3.2 4.8 C1 6.4 0.8 6.4 -0.8 8 C-0.67 5.6 0 2.4 0 0 Z " fill="#B0865F" transform="translate(377,452)"/>
<path d="M0 0 C1.629 0.8 1.6 0.8 3.2 1.6 C4.203 1.6 4.8 2.4 5.6 2.4 C5.998 2.4 6.4 2.4 7.2 3.2 C5.699 4 4 4.8 3.2 6.4 C2.34 6.4 1.6 6.4 0.8 6.4 C-0.188 3.2 0 3.2 -0.8 0.8 C-0.67 0.8 0 0 0 0 Z " fill="#95724E" transform="translate(289,174)"/>
<path d="M0 0 C0 0.8 0 1.6 0 1.6 C2.64 1.6 5.6 1.6 8 1.6 C8 2.4 8 2.4 8 3.2 C4.04 3.2 0 3.2 -4 3.2 C-4 2.4 -4 1.6 -4 0.8 C-2 0 -1.6 0 0 0 Z " fill="#805F45" transform="translate(74,402)"/>
<path d="M0 0 C0.66 0 1.6 0 1.6 0 C2.375 2.4 2.4 2.4 1.6 4.8 C-1 6.4 -0.8 6.4 -4 7.2 C-3.384 5.6 -2.4 4.8 -2.4 3.2 C-1.777 3.2 -1.6 2.4 -0.8 1.6 C-0.717 0.8 0 0.8 0 0 Z " fill="#937251" transform="translate(390,329)"/>
<path d="M0 0 C0.33 0.8 0.8 1.6 0.8 3.2 C1.66 3.2 2.4 4 3.2 4 C1.02 4.8 -0.8 5.6 -3.2 6.4 C-2.625 4 -2.4 4 -1.6 1.6 C-1.34 1.6 -0.8 0.8 0 0 Z " fill="#AE8862" transform="translate(296,292)"/>
<path d="M0 0 C0.33 0 0.8 0 0.8 0 C1.081 1.6 0.8 2.4 0.8 4 C1.205 4 1.6 4 1.6 6.4 C1.196 6.4 0.8 7.2 0.8 8 C0.01 8 -0.8 8.8 -1.6 8.8 C-2 7.2 -1.6 5.6 -1.6 4 C-1.34 4 -0.8 4 0 4 C0 2.4 0 1.6 0 0 Z " fill="#59412D" transform="translate(128,241)"/>
<path d="M0 0 C1.227 1.6 1.6 1.6 1.6 3.2 C0.35 4 -1.6 4 -3.2 4.8 C-3 4 -3.2 4 -3.2 3.2 C-5 2.4 -4.8 2.4 -7.2 1.6 C-5.882 1.6 -4.8 0.8 -4 0.8 C-3.312 0.8 -3.2 0.8 -1.6 0 C-1.442 0 -1.6 0 0 0 Z " fill="#E1D7D5" transform="translate(168,235)"/>
<path d="M0 0 C1.742 2.4 2.4 4 3.2 7.2 C3.293 8 3.2 8.8 4 9.6 C3.754 9.6 4 10.4 4 11.2 C2 9.6 1.6 9.6 0 8 C-0.362 5.6 0 2.4 0 0 Z " fill="#A17A56" transform="translate(395,190)"/>
<path d="M0 0 C2 0 1.6 0 4 0.8 C4.33 1.6 4.8 2.4 4.8 3.2 C4.237 3.2 3.2 3.2 2.4 3.2 C0.25 4 -0.8 4.8 -3.2 6.4 C-1.125 0.8 -0.8 0.8 0 0 Z " fill="#3A3025" transform="translate(147,15)"/>
<path d="M0 0 C0.66 0 1.6 0 1.6 0 C1.67 1.6 1.6 4 0.8 6.4 C-2 6.4 -1.6 6.4 -4 4.8 C-2.719 3.2 -1.6 1.6 0 0 Z " fill="#A6815B" transform="translate(353,327)"/>
<path d="M0 0 C0.99 0 1.6 0.8 3.2 0.8 C2.051 2.4 0.8 3.2 0 4 C-0.409 4.8 -0.8 4.8 -1.6 5.6 C-1.99 6.4 -2.4 6.4 -3.2 7.2 C-3.66 6.4 -4 6.4 -4.8 6.4 C-4.244 4.8 -3.2 4 -2.4 3.2 C-2.258 2.4 -1.6 1.6 -1.6 1.6 C-0.929 0.8 -0.8 0.8 0 0 Z " fill="#130D0B" transform="translate(323,273)"/>
<path d="M0 0 C0 0.8 0 1.6 0 3.2 C-0.66 4 -1.6 4 -1.6 4.8 C-5.125 4.8 -4.8 4.8 -8 4.8 C-8 4 -8 3.2 -8 1.6 C-7.051 2.4 -6.4 2.4 -4.8 2.4 C-4.609 2.4 -4.8 2.4 -1.6 1.6 C-1.34 1.6 -0.8 0.8 0 0 Z " fill="#E0B3B5" transform="translate(142,246)"/>
<path d="M0 0 C1.188 1.6 0.8 1.6 1.6 4 C0.75 6.4 0.8 6.4 -0.8 8 C-1.66 8 -2.4 8 -3.2 8 C-2.691 7.2 -2.4 6.4 -2.4 5.6 C-1.321 4 -0.8 1.6 0 0 Z " fill="#836547" transform="translate(257,174)"/>
</svg>
