<?xml version="1.0" encoding="UTF-8"?>
<!-- Generator: visioncortex VTracer 0.6.12 -->
<svg viewBox="0 0 180 176" version="1.1" xmlns="http://www.w3.org/2000/svg" width="180" height="176">
<path d="M0 0 C59.4 0 118.4 0 180 0 C180 58.4 180 116 180 176 C120.6 176 60.8 176 0 176 C0 117.6 0 60 0 0 Z " fill="#EB678E" transform="translate(0,0)"/>
<path d="M0 0 C1.362 0 2.4 0 4 0 C6.006 0 8 0 9.6 0 C10.399 0 10.4 0 13.6 0 C14.043 0 15.2 0 16 0 C16.616 3.2 16.8 4.8 16.8 7.2 C17.088 8 16.8 8.8 16.8 9.6 C17.213 10.4 17.6 11.2 17.6 12.8 C17.336 13.6 17.6 14.4 17.6 15.2 C17.529 16.8 17.6 19.2 17.6 21.6 C18.249 21.6 18.4 20.8 19.2 20.8 C23.379 20.8 27.2 21.6 30.4 22.4 C31.493 23.2 32 23.2 32.8 23.2 C33.599 24 34.4 24 34.4 24 C34.73 24.8 34.4 25.6 34.4 26.4 C37.37 26.4 40 27.2 42.4 27.2 C42.751 26.4 42.4 25.6 42.4 24.8 C43.102 24 43.2 23.2 44 22.4 C46.341 21.6 48 20.8 50.4 21.6 C51.225 21.6 51.2 21.6 53.6 22.4 C53.707 21.6 53.6 20.8 53.6 20 C53.642 19.2 53.6 17.6 53.6 16.8 C53.582 16 53.6 15.2 53.6 13.6 C53.599 12.8 53.6 12 53.6 11.2 C54.39 10.4 55.2 9.6 56 9.6 C58.792 8.8 58.4 8.8 61.6 9.6 C62.06 9.6 62.4 9.6 62.4 10.4 C63.163 12.8 63.2 15.2 64 17.6 C63.954 18.4 64 18.4 64 19.2 C64.778 24 64.8 28 64 32 C64.39 32 64.8 32 65.6 32 C65.695 32 65.6 32 65.6 30.4 C65.356 27.2 65.6 24.8 65.6 22.4 C68.73 20.8 68.8 20.8 72 20 C71.73 20.8 72 21.6 72 22.4 C72.385 22.4 72.8 22.4 73.6 22.4 C74.047 22.4 74.4 22.4 76 23.2 C76.121 25.6 76 25.6 76 28 C75.944 29.6 76 30.4 76 31.2 C75.824 32 76 32.8 76 33.6 C75.07 33.6 74.4 33.6 73.6 33.6 C74.055 33.6 74.4 34.4 74.4 35.2 C75.951 37.6 76 40 76 43.2 C75.958 44 76 45.6 76 46.4 C75.942 47.2 76 48.8 76 49.6 C75.916 51.2 76 52 76 53.6 C75.87 61.6 76 61.6 74.4 64 C71.73 64.8 72 64.8 68.8 64 C68.4 64 68 63.2 68 63.2 C67.497 61.6 67.2 60 67.2 58.4 C67.084 57.6 67.2 56 67.2 55.2 C66.853 54.4 66.4 53.6 66.4 53.6 C66.586 54.4 66.4 55.2 66.4 56.8 C66.141 57.6 65.6 59.2 65.6 60 C65.4 60.8 64.8 60.8 64.8 61.6 C62.73 61.6 60.8 61.6 58.4 61.6 C58.68 60.8 58.4 60 58.4 60 C58.347 57.6 58.4 55.2 57.6 52.8 C57.776 52 57.6 51.2 57.6 50.4 C57.533 49.6 57.6 48.8 57.6 48 C57.326 48 57.6 48 56.8 45.6 C57.073 45.6 56.8 45.6 56.8 44 C56.07 44 55.2 43.2 54.4 43.2 C54.874 44 55.2 44.8 55.2 46.4 C55.355 47.2 55.2 48.8 56 49.6 C55.825 50.4 56 51.2 56 52 C56.531 55.2 56.8 58.4 56.8 62.4 C56.4 62.4 56 63.2 56 63.2 C54.136 63.2 54.4 63.2 52 63.2 C51.601 63.2 51.2 63.2 50.4 63.2 C49.798 63.2 49.6 63.2 48.8 63.2 C48.4 63.2 48 62.4 48 62.4 C47.689 60 48 58.4 48 56 C43.01 58.4 40 59.2 36.8 63.2 C35.74 63.2 34.4 63.2 33.6 63.2 C33.4 64 32.8 65.6 32.8 66.4 C29.991 67.2 28 67.2 25.6 67.2 C24.737 67.2 24 67.2 23.2 67.2 C22.288 67.2 21.6 67.2 20.8 67.2 C20.187 67.2 20 67.2 18.4 67.2 C17.274 67.2 16.8 67.2 16 67.2 C14.93 67.2 14.4 67.2 13.6 67.2 C12.881 67.2 12 67.2 12 67.2 C11.4 67.2 11.2 66.4 10.4 66.4 C10.689 64.8 10.4 63.2 10.4 61.6 C10.07 61.6 9.6 61.6 8.8 61.6 C8.73 60 8.8 58.4 8.8 57.6 C8.07 57.6 7.2 57.6 6.4 57.6 C6.73 56.8 6.4 56 6.4 55.2 C5.74 55.2 4.8 55.2 4 55.2 C3.742 56 4 56 4 56.8 C3.774 57.6 4 58.4 4 59.2 C3.804 60 4 60.8 4 61.6 C3.795 61.6 4 62.4 4 63.2 C3.4 63.2 3.2 64 2.4 64 C-2.256 64.8 -2.4 64.8 -4 64 C-4.752 64 -5.6 63.2 -5.6 62.4 C-6.239 62.4 -6.4 61.6 -7.2 61.6 C-9.286 61.6 -9.6 61.6 -11.2 62.4 C-15.685 63.2 -19.2 64 -23.2 63.2 C-24.708 60 -24.8 60 -25.6 57.6 C-28.946 58.4 -31.2 59.2 -34.4 61.6 C-38.762 64.8 -43.2 66.4 -48 67.2 C-52.288 67.2 -56 67.2 -60 67.2 C-60.6 67.2 -60.8 66.4 -61.6 66.4 C-61.573 64 -61.6 61.6 -62.4 59.2 C-62.057 59.2 -62.4 59.2 -62.4 56.8 C-62.359 55.2 -62.4 54.4 -62.4 52.8 C-62.83 50.4 -63.2 48 -63.2 45.6 C-63.385 44 -63.2 42.4 -64 40.8 C-63.711 40.8 -64 40 -64 39.2 C-64.24 34.4 -64 29.6 -64 25.6 C-64.93 25.6 -65.6 25.6 -66.4 25.6 C-66.663 22.4 -67.2 19.2 -67.2 16 C-67.507 15.2 -68 14.4 -68 13.6 C-67.832 12.8 -68 12 -68 11.2 C-68.122 10.4 -68 9.6 -68 8.8 C-68.306 8.8 -68 8.8 -68 7.2 C-66.27 5.6 -66.4 5.6 -64 4.8 C-63.338 4 -62.4 4 -61.6 4 C-60.902 4 -60 4 -59.2 3.2 C-58.937 3.2 -59.2 3.2 -57.6 3.2 C-56.94 3.2 -56.8 4 -56 4 C-56.053 6.4 -56 8 -56 9.6 C-55.729 10.4 -56 11.2 -56 12 C-55.517 13.6 -55.2 15.2 -55.2 17.6 C-54.329 31.2 -54.4 31.2 -53.6 38.4 C-53.27 39.2 -53.6 40 -53.6 41.6 C-51.95 41.6 -50.4 41.6 -49.6 41.6 C-49.25 40.8 -49.6 40 -49.6 39.2 C-49.114 36 -48.8 32.8 -48.8 29.6 C-48.864 28.8 -48.8 28 -48.8 26.4 C-48.344 14.4 -48 14.4 -46.4 8 C-44.411 5.6 -42.4 4 -39.2 2.4 C-35.079 0.8 -31.2 0.8 -27.2 0.8 C-25.898 0.8 -24.8 0.8 -24 0.8 C-16.004 0 -8 0 0 0 Z " fill="#E96B91" transform="translate(86.27005004882813,54.76983642578125)"/>
<path d="M0 0 C0.99 0 1.6 0.8 3.2 0.8 C4.178 4.8 4 8.8 4 12 C4.053 13.6 4 14.4 4 15.2 C4.024 16 4 16.8 4 17.6 C6.875 18.4 7.2 18.4 9.6 16.8 C10.92 14.4 11.2 12.8 12 9.6 C11.783 9.6 12 8.8 12 8 C12.33 8 12.8 8 12.8 8 C13.014 8.8 12.8 9.6 12.8 10.4 C13.067 11.2 12.8 11.2 12.8 13.6 C13.222 15.2 13.6 16 13.6 17.6 C13.526 18.4 13.6 19.2 14.4 20 C16.551 20.8 16.8 20.8 19.2 20.8 C18.711 21.6 18.4 22.4 18.4 23.2 C17.156 26.4 16.8 28.8 16 32 C15.328 36.8 13.6 40 10.4 44 C6.54 47.2 2.4 49.6 -1.6 51.2 C-29.508 55.2 -60 53.6 -88 52 C-88.887 52 -89.6 52 -90.4 52 C-97.937 51.2 -103.2 48.8 -108.8 44.8 C-112.332 41.6 -113.6 38.4 -115.2 34.4 C-116.334 30.4 -116.8 27.2 -116.8 24 C-114.686 24 -112 24 -110.4 24 C-109.403 24.8 -108.8 24.8 -108 24.8 C-106.37 24.8 -104.8 24.8 -103.2 24.8 C-102.67 25.6 -102.4 26.4 -102.4 27.2 C-101.216 26.4 -100.8 25.6 -100 24.8 C-98.759 24 -97.6 24 -96.8 23.2 C-96.34 23.2 -96 23.2 -95.2 23.2 C-95 22.4 -95.2 21.6 -95.2 20.8 C-92.988 19.2 -92.8 19.2 -90.4 17.6 C-89.877 16.8 -89.6 16.8 -88 15.2 C-85 14.4 -84.8 14.4 -82.4 13.6 C-81.489 13.6 -80.8 13.6 -80 14.4 C-79.711 15.2 -79.2 16 -79.2 16.8 C-78.754 17.6 -78.4 18.4 -78.4 19.2 C-72.785 20 -68 18.4 -63.2 16.8 C-62.784 16.8 -62.4 16.8 -60.8 16.8 C-59.93 19.2 -60 19.2 -59.2 20.8 C-56.969 21.6 -56 21.6 -53.6 20.8 C-53.042 20.8 -52.8 20 -52 20 C-51.032 17.6 -51.2 15.2 -51.2 12 C-50.01 12 -48.8 12 -48 12 C-48 12.8 -48 13.6 -48 14.4 C-47.34 14.4 -46.4 14.4 -46.4 14.4 C-46 15.2 -46.4 16.8 -46.4 17.6 C-45.34 17.6 -44.8 17.6 -44 17.6 C-43.977 19.2 -44 20 -44 20.8 C-43.776 20.8 -44 20.8 -43.2 23.2 C-40.06 24 -36.8 23.2 -34.4 23.2 C-33.296 23.2 -32.8 23.2 -32 23.2 C-28.117 23.2 -25.6 23.2 -22.4 22.4 C-21.67 21.6 -21.6 20.8 -20.8 20 C-20.01 20 -19.2 19.2 -17.6 19.2 C-17.01 18.4 -16 18.4 -15.2 17.6 C-14.835 17.6 -15.2 17.6 -14.4 15.2 C-12.371 14.4 -12 14.4 -10.4 13.6 C-9.797 13.6 -8.8 13.6 -8.8 13.6 C-8.002 13.6 -7.2 12.8 -7.2 12.8 C-6.835 13.6 -7.2 13.6 -6.4 19.2 C-3.69 19.2 -1.6 19.2 0.8 19.2 C0.964 18.4 0.8 18.4 0.8 17.6 C0.056 11.2 0 5.6 0 0 Z " fill="#EB648B" transform="translate(141,98)"/>
<path d="M0 0 C59.4 0 118.4 0 180 0 C180 58.4 180 116 180 176 C167.13 176 154.4 176 140.8 176 C141 176 140.8 175.2 140.8 175.2 C142.306 174.4 144 174.4 144.8 174.4 C151.059 172.8 156 170.4 160.8 166.4 C161.444 166.4 161.6 166.4 163.2 164.8 C163.66 164.8 164 164.8 164.8 164.8 C165.707 164 166.4 162.4 167.2 160.8 C168.241 159.2 169.6 156.8 171.2 155.2 C171.66 155.2 172 155.2 172.8 155.2 C173.061 154.4 172.8 153.6 172.8 152.8 C173.267 152 173.6 151.2 173.6 150.4 C173.478 150.4 173.6 150.4 173.6 148 C173.788 147.2 173.6 146.4 174.4 145.6 C174.33 145.6 174.4 145.6 175.2 144.8 C176.028 139.2 176 134.4 176 128.8 C176.18 128 176 128 176 125.6 C176.217 122.4 176 119.2 176 116.8 C176.24 116 176 116 176 113.6 C176.271 108 176 102.4 176 96.8 C176.306 90.4 176 84.8 176 79.2 C176.407 74.4 176.8 70.4 176.8 65.6 C176.423 64 176.8 61.6 176.8 59.2 C176.671 33.6 176.8 33.6 170.4 22.4 C169.175 20.8 168 18.4 166.4 16.8 C165.732 16.8 165.6 16.8 164 15.2 C160.539 12 156.8 9.6 152 7.2 C151.438 7.2 151.2 7.2 150.4 6.4 C150 4.8 150.4 4 150.4 3.2 C136.874 3.2 124 3.2 110.4 3.2 C104.525 3.2 98.4 3.2 92 3.2 C86.446 3.2 80.8 3.2 74.4 4 C72.43 4 70.4 4 68 4 C64.798 4 61.6 4 58.4 4 C57.581 4 56.8 4 56 4 C44.17 4 32.8 4.8 22.4 10.4 C17.482 13.6 14.4 17.6 11.2 23.2 C9.116 28 8 32.8 7.2 38.4 C6.827 39.2 6.4 40 6.4 40.8 C5.89 44.8 5.6 48.8 5.6 52.8 C5.82 53.6 5.6 53.6 5.6 56 C5.783 58.4 5.6 61.6 5.6 64.8 C5.758 65.6 5.6 66.4 5.6 68 C5.729 72.8 5.6 78.4 5.6 84 C5.694 89.6 5.6 94.4 5.6 100 C5.593 104.8 5.6 108.8 5.6 112.8 C5.577 115.2 5.6 116.8 5.6 119.2 C5.44 131.2 6.4 142.4 9.6 153.6 C10.169 154.4 10.4 155.2 10.4 156 C10.953 156.8 11.2 158.4 12 160 C13.879 160.8 13.6 160.8 16 161.6 C17.344 163.2 18.4 164 20 165.6 C24.212 169.6 28 172 33.6 172.8 C33.661 172.8 33.6 172.8 35.2 173.6 C35.945 173.6 36.8 173.6 36.8 174.4 C37 174.4 36.8 175.2 36.8 176 C24.79 176 12.8 176 0 176 C0 117.6 0 60 0 0 Z " fill="#FDFAFB" transform="translate(0,0)"/>
<path d="M0 0 C0.837 3.2 0.8 5.6 0.8 8.8 C0.838 9.6 0.8 10.4 0.8 12 C0.948 13.6 0.8 16 0.8 17.6 C1.519 17.6 2.4 17.6 2.4 17.6 C6.649 17.6 10.4 18.4 14.4 19.2 C14.763 20 15.2 20 16 20 C16.869 20.8 17.6 20.8 17.6 20.8 C18 21.6 17.6 22.4 17.6 23.2 C20.64 23.2 23.2 24 25.6 24 C26.021 23.2 26.4 22.4 26.4 21.6 C26.372 20.8 26.4 20 27.2 19.2 C29.611 18.4 31.2 17.6 33.6 17.6 C34.99 18.4 36 18.4 36.8 19.2 C36.977 18.4 36.8 17.6 36.8 16.8 C36.912 16 36.8 14.4 36.8 13.6 C36.852 12.8 36.8 12 36.8 10.4 C36.869 9.6 36.8 8.8 36.8 8 C37.66 7.2 38.4 6.4 39.2 6.4 C42.062 5.6 42.4 5.6 44.8 6.4 C45.165 6.4 44.8 6.4 46.4 7.2 C46.433 9.6 47.2 12 47.2 14.4 C47.175 14.4 47.2 14.4 47.2 16 C48.048 20.8 48 24.8 47.2 28.8 C47.66 28.8 48 28.8 48.8 28.8 C48.965 28.8 48.8 28.8 48.8 27.2 C48.626 24 48.8 21.6 48.8 19.2 C52 17.6 52 17.6 55.2 16.8 C55 17.6 55.2 18.4 55.2 19.2 C55.655 19.2 56 19.2 56.8 19.2 C57.65 19.2 58.4 20 59.2 20 C59.391 22.4 59.2 22.4 59.2 24.8 C59.214 25.6 59.2 27.2 59.2 28 C59.094 28.8 59.2 29.6 59.2 30.4 C58.34 30.4 57.6 30.4 56.8 30.4 C57.325 30.4 57.6 31.2 57.6 32 C59.221 34.4 59.2 36.8 59.2 40 C59.229 40.8 59.2 42.4 59.2 43.2 C59.212 44 59.2 45.6 59.2 46.4 C59.186 48 59.2 48.8 59.2 50.4 C59.14 58.4 59.2 58.4 57.6 60.8 C55 60.8 55.2 60.8 52 60.8 C51.67 60.8 51.2 60 51.2 60 C50.767 58.4 50.4 56.8 50.4 55.2 C50.354 54.4 50.4 52.8 50.4 52 C50.123 51.2 50.4 50.4 49.6 49.6 C49.856 51.2 49.6 52 49.6 53.6 C49.411 54.4 49.6 56 48.8 56.8 C48.67 57.6 48 57.6 48 57.6 C46 58.4 44 58.4 41.6 57.6 C41.95 57.6 41.6 56.8 41.6 56.8 C41.617 54.4 41.6 52 40.8 49.6 C41.046 48.8 40.8 48 40.8 47.2 C40.803 46.4 40.8 45.6 40.8 44.8 C40.559 44 40.8 43.2 40.8 42.4 C40.343 42.4 40 42.4 40 40.8 C39.67 40.8 40 40.8 38.4 40 C38.144 40.8 38.4 41.6 38.4 43.2 C38.625 44 39.2 45.6 39.2 46.4 C39.095 47.2 39.2 48 39.2 48.8 C39.801 52 40 55.2 40 59.2 C39.67 59.2 39.2 60 39.2 60 C37.406 60 37.6 60 35.2 60 C34.871 60 34.4 60 33.6 60 C33.068 60 32.8 60 32 60 C31.67 60 31.2 59.2 31.2 59.2 C30.959 56.8 31.2 55.2 31.2 52.8 C26.273 55.2 23.2 56 20 60 C14.34 63.2 8.8 63.2 2.4 63.2 C1.617 63.2 1.6 63.2 -1.6 63.2 C-2.171 63.2 -3.2 63.2 -4 63.2 C-4.33 62.4 -4.8 62.4 -4.8 62.4 C-5.179 60.8 -5.6 60 -5.6 58.4 C-5.461 57.6 -5.6 56.8 -5.6 56 C-5.667 55.2 -5.6 54.4 -5.6 53.6 C-6.58 45.6 -7.2 37.6 -8.8 28.8 C-8.911 28 -8.8 26.4 -9.6 25.6 C-9.496 23.2 -9.6 21.6 -9.6 20 C-10.144 19.2 -10.4 17.6 -10.4 16.8 C-11.032 13.6 -12 11.2 -12.8 8 C-13.312 5.6 -13.6 5.6 -12.8 3.2 C-11.812 1.6 -12 1.6 -9.6 0 C-6.437 -0.8 -3.2 -1.6 0 0 Z " fill="#EA7D9F" transform="translate(103,58)"/>
<path d="M0 0 C0.99 0 1.6 0 3.2 0 C3 0.8 3.2 1.6 3.2 1.6 C3.66 1.6 4 1.6 4.8 1.6 C5 3.2 4.8 4.8 4.8 6.4 C5.66 6.4 6.4 6.4 7.2 6.4 C7.023 7.2 7.2 8 7.2 8.8 C7.377 9.6 8 10.4 8 11.2 C10.94 12 13.6 11.2 16.8 11.2 C17.704 11.2 18.4 11.2 19.2 11.2 C22.883 11.2 25.6 11.2 28.8 9.6 C29.33 9.6 29.6 8.8 30.4 8 C30.99 8 32 7.2 32.8 7.2 C33.99 6.4 35.2 6.4 36 6.4 C36.33 4.8 36.8 4 36.8 3.2 C38.629 2.4 38.4 2.4 40.8 1.6 C41.203 1.6 41.6 1.6 42.4 1.6 C42.998 1.6 43.2 0.8 44 0.8 C44.165 1.6 44 1.6 44.8 7.2 C47.97 7.2 51.2 7.2 54.4 7.2 C54.294 12 53.6 15.2 52 19.2 C50.971 20.8 50.4 22.4 48.8 24 C46.462 24.8 44.8 24.8 42.4 25.6 C41.509 25.6 40.8 25.6 40 25.6 C39.281 25.6 38.4 25.6 37.6 25.6 C36.265 25.6 34.4 25.6 33.6 25.6 C32.64 25.6 32 25.6 31.2 25.6 C29.456 25.6 28 26.4 25.6 26.4 C21.603 27.2 17.6 27.2 13.6 27.2 C12.445 27.2 12 27.2 10.4 27.2 C8.118 27.2 5.6 27.2 3.2 27.2 C1.912 27.2 0.8 27.2 0 27.2 C-20.168 27.2 -20 27.2 -29.6 26.4 C-30.66 26.4 -31.2 26.4 -32 26.4 C-37.607 26.4 -44 25.6 -48.8 23.2 C-50 22.4 -49.6 22.4 -50.4 20.8 C-51.021 18.4 -51.2 16.8 -51.2 15.2 C-48.688 12.8 -48.8 12.8 -46.4 11.2 C-45.34 11.2 -44.8 11.2 -44 11.2 C-44 10.4 -44 9.6 -44 8.8 C-41.988 7.2 -41.6 7.2 -39.2 5.6 C-38.442 4.8 -37.6 4 -36.8 3.2 C-34 1.6 -33.6 1.6 -31.2 1.6 C-30.489 1.6 -29.6 1.6 -28.8 1.6 C-28.711 3.2 -28.8 4 -28 4.8 C-27.754 5.6 -27.2 6.4 -27.2 7.2 C-21.785 8 -16.8 6.4 -12 4.8 C-11.784 4.8 -12 4.8 -9.6 4.8 C-8.93 7.2 -8.8 7.2 -8 8.8 C-5.969 9.6 -4.8 9.6 -2.4 8.8 C-2.042 8.8 -1.6 8 -0.8 8 C-0.032 5.6 0 3.2 0 0 Z " fill="#E8507B" transform="translate(90,110)"/>
<path d="M0 0 C0.607 0 1.6 0.8 1.6 0.8 C2.275 3.2 2.4 5.6 2.4 8 C2.429 8.8 2.4 9.6 2.4 10.4 C2.5 12.8 2.4 15.2 2.4 17.6 C2.557 20 2.4 21.6 2.4 24 C2.653 25.6 2.4 27.2 2.4 28.8 C2.752 35.2 2.4 35.2 4 37.6 C6.402 38.4 8.8 38.4 11.2 39.2 C17.678 39.2 22.4 40.8 28 44 C29.841 45.6 29.6 45.6 30.4 48 C31.091 49.6 31.2 49.6 31.2 51.2 C28.934 54.4 25.6 56.8 22.4 59.2 C17.44 62.4 12.8 64 6.4 64 C3.643 64 0.8 64 -2.4 64 C-2.489 64 -3.2 63.2 -3.2 63.2 C-3.462 60.8 -4 58.4 -4 56 C-3.946 56 -4 56 -4 53.6 C-4.248 52 -4 50.4 -4.8 49.6 C-4.719 47.2 -4.8 44.8 -4.8 42.4 C-5.275 40.8 -5.6 39.2 -5.6 37.6 C-5.601 37.6 -5.6 36.8 -5.6 36 C-6.13 31.2 -6.4 26.4 -6.4 21.6 C-6.819 21.6 -7.2 21.6 -8 21.6 C-8.552 19.2 -8.8 16 -9.6 12.8 C-9.397 12 -9.6 11.2 -9.6 10.4 C-9.721 9.6 -9.6 8.8 -9.6 8 C-10.011 7.2 -10.4 6.4 -10.4 5.6 C-10.196 5.6 -10.4 5.6 -10.4 4 C-8.159 1.6 -8 1.6 -5.6 0.8 C-2.159 0 -2.4 0 0 0 Z " fill="#FDEFF4" transform="translate(28.159423828125,58.000732421875)"/>
<path d="M0 0 C0.99 0 1.6 0.8 3.2 0.8 C3.417 3.2 3.2 3.2 3.2 6.4 C3.507 7.2 3.2 8 3.2 9.6 C3.588 10.4 4 12 4 12.8 C3.677 15.2 4 17.6 4 19.2 C3.816 20.8 4 21.6 4 22.4 C4.07 28 4.8 32.8 4.8 38.4 C5.918 38.4 7.2 38.4 8 38.4 C14.045 38.4 20 39.2 25.6 40.8 C26.157 41.6 26.4 41.6 27.2 41.6 C27 43.2 27.2 44 27.2 44.8 C27.825 44.8 28.8 44.8 29.6 45.6 C30.325 45.6 31.2 45.6 32 46.4 C32.812 48.8 32.8 48.8 32.8 51.2 C31.767 53.6 30.4 55.2 28 56.8 C24.412 60 20.8 61.6 16 62.4 C12.87 63.2 9.6 63.2 6.4 63.2 C5.617 63.2 5.6 63.2 2.4 63.2 C1.829 63.2 0.8 63.2 0 63.2 C-0.33 62.4 -0.8 62.4 -0.8 62.4 C-1.179 60.8 -1.6 60 -1.6 58.4 C-1.461 57.6 -1.6 56.8 -1.6 56 C-1.667 55.2 -1.6 54.4 -1.6 53.6 C-2.731 44 -4 33.6 -5.6 24 C-6.075 20.8 -6.4 17.6 -7.2 14.4 C-7.139 12.8 -7.2 12 -7.2 11.2 C-7.534 10.4 -8 9.6 -8 8 C-7.863 7.2 -8 6.4 -8 5.6 C-8.046 5.6 -8 4.8 -8 4 C-5.404 1.6 -3.2 0.8 0 0 Z " fill="#FEF2F6" transform="translate(99,58)"/>
<path d="M0 0 C3.062 0 3.2 0 6.4 0 C6.33 0 6.4 0.8 7.2 0.8 C7.433 3.2 8 5.6 8 8 C8.175 8.8 8 8.8 8.8 10.4 C9.048 14.4 8.8 18.4 8 23.2 C8.66 23.2 9.6 23.2 9.6 23.2 C9.93 22.4 9.6 21.6 9.6 20.8 C9.626 18.4 9.6 16 9.6 12.8 C13 11.2 12.8 11.2 16 11.2 C16 12 16 12 16 12.8 C16.655 12.8 17.6 13.6 17.6 13.6 C18.65 13.6 19.2 13.6 20 14.4 C20.391 16 20 16 20 19.2 C20.214 20 20 20.8 20 21.6 C20.094 22.4 20 23.2 20 24 C19.34 24 18.4 24 17.6 24 C18.325 24.8 18.4 24.8 19.2 25.6 C20.221 28.8 20 30.4 20 33.6 C20.229 35.2 20 36 20 36.8 C20.218 37.6 20 37.6 20 40.8 C20.186 41.6 20 43.2 20 44 C20.14 52.8 20 52.8 19.2 55.2 C16 55.2 16 55.2 12.8 55.2 C12.835 55.2 12.8 55.2 12 54.4 C11.767 52 11.2 50.4 11.2 48.8 C11.396 48.8 11.2 48.8 11.2 46.4 C11.123 45.6 11.2 44.8 11.2 44 C10.856 44.8 10.4 46.4 10.4 47.2 C10.411 48.8 10.4 49.6 9.6 51.2 C9.67 51.2 9.6 52 8.8 52 C7 52 4.8 52 3.2 52 C2.92 51.2 3.2 50.4 2.4 49.6 C2.451 46.4 2.4 43.2 1.6 40.8 C1.694 39.2 1.6 37.6 1.6 36.8 C0.698 29.6 0 22.4 -1.6 15.2 C-2.041 16 -2.4 17.6 -2.4 18.4 C-2.391 20 -2.4 20 -3.2 22.4 C-5.875 23.2 -5.6 23.2 -8.8 24 C-9.99 24 -11.2 23.2 -12 23.2 C-13.023 20 -13.6 16.8 -12.8 14.4 C-12.319 13.6 -12 12.8 -11.2 12 C-7.703 12 -4.8 12 -1.6 12.8 C-2.012 12.8 -2.4 12.8 -2.4 10.4 C-2.088 9.6 -2.4 8.8 -2.4 8 C-2.148 6.4 -2.4 5.6 -2.4 4.8 C-2.131 4 -2.4 3.2 -1.6 1.6 C-1.34 1.6 -0.8 0.8 0 0 Z " fill="#EA91AD" transform="translate(142,64)"/>
<path d="M0 0 C2.562 0 2.4 0 4.8 0 C5.33 0 5.6 0.8 6.4 0.8 C6.174 2.4 6.4 3.2 6.4 4.8 C6.43 5.6 6.4 6.4 6.4 7.2 C6.574 8 6.4 8 6.4 10.4 C6.782 11.2 7.2 12 7.2 12.8 C7.179 16.8 7.2 20.8 8 24.8 C7.889 27.2 8 30.4 8 32.8 C8.31 33.6 8 33.6 8.8 36 C8.512 36.8 8.8 37.6 8.8 38.4 C8.651 38.4 8.8 38.4 8.8 40 C8.848 40.8 8.8 41.6 8.8 41.6 C9.165 42.4 8.8 42.4 9.6 43.2 C10.133 44.8 10.4 44.8 10.4 46.4 C10.126 47.2 10.4 47.2 10.4 48.8 C10.089 48.8 10.4 49.6 9.6 49.6 C9.67 50.4 9.6 50.4 8.8 51.2 C6.563 51.2 6.4 51.2 4 51.2 C1.442 46.4 0.8 41.6 0.8 36.8 C0.938 35.2 0.8 32.8 0.8 31.2 C0.34 31.2 0 31.2 -0.8 31.2 C-0.835 34.4 -0.8 34.4 0 52 C-0.825 52 -0.8 52 -4.8 52.8 C-7.718 48.8 -8 45.6 -8.8 40.8 C-8.748 37.6 -8.8 35.2 -8.8 32 C-9.66 32 -10.4 32 -11.2 32 C-11.33 31.2 -12 30.4 -12 30.4 C-13.78 30.4 -15.2 30.4 -17.6 30.4 C-17.888 30.4 -18.4 30.4 -19.2 30.4 C-19.495 29.6 -20 29.6 -20.8 28.8 C-21 27.2 -20.8 27.2 -20.8 24.8 C-20.783 24 -20.8 24 -20 22.4 C-18.333 20.8 -16.8 20 -15.2 19.2 C-14.312 16 -14.4 16 -14.4 14.4 C-11.755 12.8 -10.4 12.8 -8 12.8 C-7.649 12.8 -8 12.8 -5.6 12.8 C-4 12.8 -4 12.8 -1.6 14.4 C-2.023 12.8 -2.4 12 -2.4 11.2 C-2.088 10.4 -2.4 9.6 -2.4 8 C-2.148 7.2 -2.4 5.6 -2.4 4.8 C-2.131 4 -2.4 3.2 -1.6 1.6 C-1.34 1.6 -0.8 0.8 0 0 Z " fill="#EB86A6" transform="translate(69,64)"/>
<path d="M0 0 C1.968 0.8 1.6 0.8 4 1.6 C4.508 4 4.8 4 4.8 5.6 C4.533 6.4 4.8 7.2 4.8 8 C4.556 8.8 4.8 9.6 4.8 10.4 C4.556 11.2 4.8 12 4.8 12.8 C4.607 16 4.8 19.2 4.8 21.6 C4.624 24 4.8 25.6 4.8 28 C4.703 33.6 4.8 38.4 4.8 44 C4.758 49.6 4.8 54.4 4.8 60 C4.915 70.4 4.8 81.6 4.8 92 C5.33 92 5.6 92 6.4 92 C6 109.6 6.4 128 6.4 145.6 C-6.87 145.6 -20 145.6 -32.8 145.6 C-33 145.6 -32.8 145.6 -32.8 144.8 C-31.694 144.8 -30.4 144.8 -28.8 144 C-22.941 143.2 -17.6 140 -12.8 136 C-12.248 136 -12 135.2 -11.2 135.2 C-10.34 135.2 -9.6 135.2 -8.8 135.2 C-8.293 133.6 -8 132 -7.2 131.2 C-5.759 128.8 -4.8 127.2 -3.2 124.8 C-2.34 124.8 -1.6 124.8 -0.8 124.8 C-0.939 124 -0.8 124 -0.8 123.2 C-0.733 122.4 -0.8 121.6 -0.8 120.8 C-0.481 120 0 119.2 0 118.4 C-0.212 117.6 0 116.8 0 116 C0.33 116 0.8 115.2 0.8 115.2 C2.039 109.6 2.4 104 2.4 98.4 C2.149 97.6 2.4 96.8 2.4 95.2 C2.165 92.8 2.4 89.6 2.4 86.4 C2.171 84 2.4 81.6 2.4 80 C2.184 75.2 2.4 70.4 2.4 66.4 C2.185 60 2.4 54.4 2.4 48.8 C2.227 44 2.4 40 2.4 35.2 C2.23 33.6 2.4 31.2 2.4 28.8 C2.252 26.4 2.4 23.2 2.4 20 C2.249 19.2 2.4 18.4 2.4 17.6 C2.23 11.2 1.6 5.6 0 0 Z " fill="#F9F1F3" transform="translate(174,30)"/>
<path d="M0 0 C2.438 -0.8 2.4 -0.8 4.8 0 C6.999 5.6 7.2 9.6 7.2 15.2 C7.116 16 7.2 16.8 7.2 17.6 C7.074 19.2 7.2 21.6 7.2 23.2 C7.66 23.2 8 23.2 8.8 23.2 C9.83 28.8 10.4 35.2 10.4 41.6 C10.413 42.4 10.4 43.2 10.4 44 C10.523 45.6 10.4 45.6 9.6 48.8 C7.539 50.4 7.2 50.4 4.8 49.6 C4.835 49.6 4.8 49.6 4 48.8 C3.725 47.2 3.2 45.6 3.2 43.2 C3.255 43.2 3.2 43.2 3.2 40 C2.753 38.4 2.4 36.8 2.4 34.4 C1.637 28 0.8 20.8 -0.8 14.4 C-1.041 15.2 -0.8 16 -0.8 17.6 C-1.391 19.2 -1.6 19.2 -1.6 20.8 C-4.875 22.4 -4.8 22.4 -8 23.2 C-8.99 22.4 -9.6 22.4 -11.2 22.4 C-12.023 19.2 -12 16 -12 12.8 C-11.319 12.8 -10.4 12 -9.6 11.2 C-6.703 11.2 -4 11.2 -0.8 12 C-1.012 11.2 -0.8 10.4 -0.8 9.6 C-1.044 8.8 -0.8 8 -0.8 6.4 C-1.074 5.6 -0.8 4.8 -0.8 3.2 C-1.065 2.4 -0.8 1.6 -0.8 0.8 C-0.67 0.8 0 0 0 0 Z " fill="#FDE7EF" transform="translate(141,65)"/>
<path d="M0 0 C0.995 0 1.6 0 3.2 0 C6.267 0 9.6 0 12.8 0 C15.041 0 17.6 0 19.2 0 C23.717 0 28 0 32 0 C38.07 0 44 0 50.4 0 C55.522 0 60.8 0 66.4 0 C68.335 0 70.4 0 72.8 0 C75.951 0 79.2 0 82.4 0 C83.134 0 84 0 84.8 0 C85.876 0 86.4 0 87.2 0 C87.961 0 88 0 89.6 0 C90.386 0 91.2 0 91.2 0 C91.847 0.8 92 2.4 92.8 3.2 C95.58 4.8 95.2 4.8 98.4 6.4 C97.857 6.4 96.8 7.2 96.8 7.2 C94.112 6.4 92 6.4 89.6 5.6 C88.099 5.6 87.2 5.6 85.6 4.8 C84.936 4.8 84 4.8 84 4.8 C77.475 3.2 71.2 3.2 64.8 3.2 C64.099 3.2 63.2 3.2 62.4 3.2 C59.753 3.2 56.8 3.2 54.4 3.2 C52.511 3.2 50.4 3.2 48.8 3.2 C44.831 3.2 40.8 3.2 36.8 3.2 C31.963 3.2 27.2 3.2 21.6 3.2 C18.052 3.2 14.4 3.2 10.4 3.2 C8.455 3.2 6.4 3.2 4.8 3.2 C2.166 3.2 -0.8 3.2 -3.2 3.2 C-3.769 3.2 -4.8 3.2 -5.6 3.2 C-16.299 3.2 -16 3.2 -20.8 4.8 C-21.37 5.6 -22.4 5.6 -23.2 5.6 C-27.668 6.4 -31.2 7.2 -35.2 10.4 C-38.17 12.8 -41.6 16 -44.8 19.2 C-44.813 18.4 -44.8 16.8 -45.6 16 C-42.535 11.2 -38.4 8 -33.6 4.8 C-22.513 0.8 -12 0 0 0 Z " fill="#E289A8" transform="translate(58.482666015625,2.8388671875)"/>
<path d="M0 0 C0.33 0 0 0 1.6 0.8 C0.562 3.2 0.8 3.2 -1.6 4.8 C-8.373 7.2 -15.2 7.2 -21.6 7.2 C-22.584 7.2 -24 7.2 -24.8 7.2 C-27.974 7.2 -31.2 7.2 -34.4 7.2 C-36.948 7.2 -39.2 7.2 -41.6 7.2 C-47.046 7.2 -52.8 7.2 -57.6 7.2 C-64.191 7.2 -70.4 7.2 -76.8 7.2 C-89.424 7.2 -102.4 7.2 -115.2 7.2 C-115 6.4 -115.2 5.6 -115.2 4.8 C-116.32 4.8 -117.6 4.8 -119.2 4.8 C-119 4 -119.2 3.2 -119.2 1.6 C-118.544 2.4 -118.4 2.4 -116 2.4 C-104.863 3.2 -93.6 3.2 -82.4 3.2 C-80.168 3.2 -78.4 3.2 -76 3.2 C-72.136 3.2 -68 3.2 -64 3.2 C-58.723 3.2 -53.6 3.2 -48 3.2 C-44.224 3.2 -40 3.2 -36 3.2 C-34.192 3.2 -32 3.2 -30.4 3.2 C-6.658 3.2 -6.4 3.2 0 0 Z " fill="#DB5075" transform="translate(152,169)"/>
<path d="M0 0 C2.062 0 2.4 0 4 0.8 C5.04 3.2 5.6 4 5.6 6.4 C5.449 7.2 5.6 8 5.6 8.8 C5.631 9.6 5.6 10.4 5.6 11.2 C5.819 12 5.6 12.8 5.6 13.6 C6.089 15.2 6.4 17.6 6.4 19.2 C6.56 21.6 6.4 24 7.2 27.2 C7.115 28.8 7.2 30.4 7.2 32 C7.41 32.8 7.2 32.8 7.2 34.4 C8.247 43.2 8 43.2 8 48 C6 48.8 6.4 48.8 4 48.8 C0.114 40.8 0.8 32 0.8 23.2 C0.34 23.2 0 23.2 -0.8 23.2 C-1.779 18.4 -2.4 12.8 -2.4 8 C-2.195 7.2 -2.4 7.2 -2.4 4.8 C-2.192 4 -2.4 4 -1.6 1.6 C-1.34 1.6 -0.8 0.8 0 0 Z " fill="#FEEBF2" transform="translate(70,65)"/>
<path d="M0 0 C1.523 0.8 3.2 0.8 4.8 1.6 C7.908 3.2 11.2 4.8 15.2 5.6 C19.193 7.2 22.4 8.8 25.6 12 C26.125 14.4 26.4 14.4 25.6 16.8 C22.749 17.6 20.8 16.8 17.6 16 C12.694 13.6 8 12.8 2.4 12.8 C2.221 12 2.4 12 0 12 C-0.33 12 -0.8 11.2 -0.8 11.2 C-1.098 9.6 -0.8 8 -0.8 6.4 C-1.128 4.8 -0.8 4 -0.8 3.2 C-1.089 2.4 -0.8 1.6 -0.8 0.8 C-0.67 0.8 0 0 0 0 Z " fill="#E76088" transform="translate(105,84)"/>
<path d="M0 0 C2.875 -0.8 3.2 -0.8 6.4 0 C8.87 4.8 9.6 9.6 9.6 15.2 C9.642 16 9.6 16.8 9.6 17.6 C9.705 17.6 9.6 17.6 9.6 20 C9.873 21.6 9.6 24 9.6 25.6 C7.609 26.4 8 26.4 4.8 27.2 C2.282 23.2 1.6 19.2 1.6 14.4 C1.252 12 0.8 8.8 0.8 6.4 C0.34 6.4 0 6.4 -0.8 6.4 C-1.043 4 -0.8 2.4 -0.8 0.8 C-0.67 0.8 0 0 0 0 Z " fill="#FEF7FA" transform="translate(59,90)"/>
<path d="M0 0 C0.99 0 1.6 0.8 3.2 0.8 C0.991 2.4 -0.8 4 -3.2 4.8 C-32.747 9.6 -65.6 8 -95.2 5.6 C-96.358 5.6 -96.8 5.6 -97.6 5.6 C-98.658 5.6 -99.2 4.8 -100 4.8 C-100.66 4 -101.6 4 -102.4 3.2 C-101.46 3.2 -100.8 3.2 -100 3.2 C-85.528 4 -70.4 4 -56 4 C-54.814 4 -53.6 4 -52.8 4 C-39.794 4 -27.2 4 -14.4 3.2 C-13.565 3.2 -13.6 3.2 -10.4 3.2 C-3.397 2.4 -3.2 2.4 -1.6 0.8 C-0.934 0.8 -0.8 0 0 0 Z " fill="#E9537D" transform="translate(143,144)"/>
<path d="M0 0 C2.31 0 4.8 0 7.2 0 C7.099 3.2 7.2 7.2 7.2 10.4 C7.24 12 7.2 12.8 7.2 14.4 C7.35 16 7.2 17.6 7.2 19.2 C7.412 20.8 7.2 21.6 7.2 22.4 C7.304 23.2 7.2 24 7.2 24.8 C4.976 25.6 4.8 25.6 3.2 25.6 C-0.836 17.6 0 8.8 0 0 Z " fill="#FEECF2" transform="translate(154,91)"/>
<path d="M0 0 C4.29 0.8 8.8 1.6 12.8 1.6 C13.33 2.4 13.6 2.4 14.4 3.2 C14.168 4.8 14.4 4.8 14.4 7.2 C14.202 8 14.4 8.8 14.4 9.6 C14.154 10.4 14.4 11.2 14.4 12 C12 12.8 12 12.8 8.8 13.6 C7.968 12.8 7.2 12.8 6.4 12.8 C5.67 12 5.6 11.2 4.8 9.6 C4.01 9.6 3.2 9.6 1.6 9.6 C2.072 10.4 2.4 11.2 2.4 11.2 C3.049 18.4 3.2 24.8 3.2 31.2 C2.67 31.2 2.4 31.2 1.6 31.2 C1.34 20.8 0.8 10.4 0 0 Z " fill="#EA8EA9" transform="translate(75,75)"/>
<path d="M0 0 C2.438 0 2.4 0 4.8 0.8 C6.446 3.2 7.2 4.8 7.2 6.4 C7.657 8.8 8 11.2 8 12.8 C8.077 13.6 8 15.2 8 16 C8.281 16.8 8 17.6 8 19.2 C8.424 20 8.8 20.8 8.8 21.6 C8.351 22.4 8 23.2 8 24 C5.539 24.8 5.6 24.8 3.2 24.8 C1.403 21.6 1.6 18.4 1.6 15.2 C0.99 12 0 9.6 -0.8 7.2 C-1.188 4 -0.8 4 -0.8 0.8 C-0.67 0.8 0 0 0 0 Z " fill="#FEF0F5" transform="translate(133,91)"/>
<path d="M0 0 C0.625 1.6 0.8 1.6 0.8 4 C0.352 5.6 0 7.2 -0.8 8.8 C-4.229 20 -4.8 30.4 -4 42.4 C-4.325 44 -4 45.6 -4 48 C-4.318 51.2 -4 55.2 -4 59.2 C-4.253 64 -4 68.8 -4 73.6 C-4.232 78.4 -4 83.2 -4 87.2 C-4.201 88.8 -4 89.6 -4 90.4 C-4.167 100.8 -4 112 -3.2 123.2 C-3.66 122.4 -4 121.6 -4.8 120.8 C-6.2 116 -6.4 111.2 -6.4 105.6 C-6.166 104.8 -6.4 104 -6.4 103.2 C-6.191 100 -6.4 97.6 -6.4 94.4 C-6.206 93.6 -6.4 92 -6.4 91.2 C-6.227 85.6 -6.4 80.8 -6.4 75.2 C-6.246 69.6 -6.4 64 -6.4 58.4 C-6.317 54.4 -6.4 50.4 -6.4 45.6 C-6.327 44 -6.4 41.6 -6.4 40 C-6.516 12 -6.4 12 0 0 Z " fill="#E090A7" transform="translate(11,23)"/>
<path d="M0 0 C2.186 1.6 3.2 3.2 4 5.6 C7.696 17.6 7.2 28.8 7.2 40.8 C7.421 43.2 7.2 44.8 7.2 47.2 C7.408 52 7.2 56 7.2 60.8 C7.317 66.4 7.2 72 7.2 77.6 C7.279 83.2 7.2 88.8 7.2 94.4 C7.235 95.2 7.2 96.8 7.2 97.6 C7.216 100.8 7.2 103.2 7.2 106.4 C7.174 107.2 7.2 108 7.2 108.8 C7.127 113.6 6.4 118.4 6.4 123.2 C5.67 123.2 5.6 123.2 4.8 123.2 C5.001 122.4 4.8 122.4 4.8 121.6 C5.025 109.6 4.8 97.6 4.8 85.6 C5.057 80 4.8 74.4 4.8 68 C5.086 62.4 4.8 56.8 4.8 51.2 C5.097 49.6 4.8 47.2 4.8 45.6 C5.179 15.2 4.8 15.2 0.8 6.4 C-0.029 4 0 2.4 0 0 Z " fill="#DF8BA2" transform="translate(170,22)"/>
<path d="M0 0 C1.625 0 3.2 0 4.8 0 C5.78 0 6.4 0 8 0 C10 0 9.6 0 12 0.8 C13.653 0.8 13.6 0.8 16 0.8 C16.423 0.8 16.8 0.8 17.6 0.8 C18.804 0.8 20 0.8 20.8 0.8 C21.381 0.8 22.4 0.8 23.2 0.8 C26.087 0.8 28.8 0.8 32 0.8 C33.951 0.8 36 0.8 38.4 0.8 C42.253 0.8 46.4 0.8 50.4 0.8 C56.203 0.8 61.6 0.8 67.2 0.8 C71.284 0.8 75.2 0.8 80 0.8 C81.663 0.8 84 0.8 85.6 0.8 C88.49 0.8 91.2 0.8 94.4 0.8 C94.94 0.8 96 0.8 96.8 0.8 C100.564 0.8 104 0.8 108 0 C109.603 0 111.2 0 112.8 0 C113.208 0 113.6 0 115.2 0 C115.503 0 115.2 0 116.8 0 C115.194 1.6 113.6 2.4 111.2 2.4 C106.962 3.2 102.4 3.2 97.6 3.2 C97.264 3.2 97.6 3.2 94.4 3.2 C91.352 3.2 88 3.2 84.8 3.2 C82.341 3.2 80 3.2 77.6 3.2 C72.212 3.2 66.4 3.2 61.6 3.2 C55.004 3.2 48.8 3.2 42.4 3.2 C29.677 3.2 16.8 3.2 4 3.2 C4 2.4 4 1.6 4 0.8 C2 0 1.6 0 0 0 Z " fill="#E07C97" transform="translate(33,173)"/>
<path d="M0 0 C2.532 0 2.4 0 4.8 0.8 C5.568 3.2 5.6 3.2 5.6 6.4 C5.472 7.2 5.6 8.8 5.6 9.6 C5.398 10.4 5.6 12 5.6 12.8 C5.29 14.4 5.6 15.2 5.6 16.8 C5.185 19.2 4.8 22.4 4.8 24.8 C3.323 24.8 1.6 24 0 24 C-0.707 22.4 -0.8 22.4 -0.8 20 C-0.835 20 -0.8 20 -0.8 17.6 C-0.966 16.8 -0.8 16 -0.8 15.2 C-1.014 14.4 -0.8 13.6 -0.8 13.6 C-1.129 8.8 -0.8 4.8 -0.8 0.8 C-0.67 0.8 0 0 0 0 Z " fill="#FEF2F7" transform="translate(83,92)"/>
<path d="M0 0 C0.33 0.8 0.8 1.6 0.8 1.6 C0.706 3.2 0.8 4.8 0 6.4 C-2.58 16.8 -2.4 28 -2.4 39.2 C-2.529 40.8 -2.4 43.2 -2.4 45.6 C-2.613 50.4 -2.4 56 -2.4 61.6 C-2.7 67.2 -2.4 72.8 -2.4 78.4 C-2.877 89.6 -3.2 100 -3.2 111.2 C-3.33 111.2 -4 111.2 -4 111.2 C-4 76 -4 40.8 -4 4.8 C-3.34 4.8 -2.4 4.8 -1.6 4.8 C-2.041 4 -2.4 4 -2.4 3.2 C-2.084 2.4 -2.4 1.6 -1.6 0.8 C-1.34 0.8 -0.8 0 0 0 Z " fill="#F5CFDA" transform="translate(8,27)"/>
<path d="M0 0 C2.819 4.8 3.2 9.6 3.2 15.2 C3.024 16 3.2 16.8 3.2 16.8 C2.67 16.8 2.4 16.8 1.6 16.8 C1.596 15.2 1.6 14.4 0.8 12.8 C0.849 12 0.8 12 0.8 9.6 C0.27 9.6 0 8.8 0 8 C-0.041 8.8 0 10.4 0 11.2 C-0.391 13.6 0 13.6 -0.8 15.2 C-3.875 16.8 -4 16.8 -7.2 16.8 C-7.99 16.8 -8.8 16 -9.6 16 C-11.023 12.8 -11.2 10.4 -11.2 7.2 C-10.66 6.4 -10.4 6.4 -8.8 5.6 C-5.703 4.8 -3.2 5.6 0 6.4 C0 4 0 2.4 0 0 Z " fill="#F5C7D7" transform="translate(140,71)"/>
<path d="M0 0 C0.66 0 1.6 0 1.6 0 C2.588 3.2 3.2 7.2 4 10.4 C3.856 11.2 4 12 4 13.6 C4.342 14.4 4.8 15.2 4.8 16 C4.778 16.8 4.8 17.6 4.8 19.2 C5.044 19.2 4.8 20 4.8 20.8 C3.424 22.4 2.4 23.2 0 23.2 C-1.562 23.2 -1.6 23.2 -4.8 23.2 C-6.188 20 -6.4 20 -7.2 16.8 C-9.125 16 -8.8 16 -11.2 16 C-10.752 15.2 -10.4 13.6 -10.4 12.8 C-9.957 10.4 -9.6 10.4 -9.6 8.8 C-11.938 7.2 -12 7.2 -14.4 7.2 C-11 7.2 -11.2 7.2 -8.8 8 C-9 5.6 -8.8 3.2 -8.8 0.8 C-6.981 4.8 -6.4 8 -5.6 11.2 C-5.483 15.2 -4.8 17.6 -4 20.8 C-2.68 20.8 -1.6 20.8 0 20.8 C0 14.4 0 7.2 0 0 Z " fill="#DE6488" transform="translate(68,95)"/>
<path d="M0 0 C13.282 0 26.4 0 40 0 C46.012 0 52 0 58.4 0 C64.291 0 70.4 0 76 0 C78.457 0 80.8 -0.8 83.2 -0.8 C86.178 -0.8 89.6 -0.8 92.8 -0.8 C93.473 -0.8 94.4 -0.8 95.2 -0.8 C96.262 -0.8 96.8 -0.8 98.4 -0.8 C98.759 -0.8 99.2 -0.8 100 -0.8 C100.567 -0.8 100.8 -0.8 102.4 0 C102.75 2.4 102.4 2.4 103.2 4 C102.305 4 101.6 4 100.8 3.2 C90.293 1.6 80 1.6 68.8 1.6 C67.044 1.6 64.8 1.6 63.2 1.6 C57.826 1.6 52.8 1.6 47.2 1.6 C42.044 1.6 36.8 1.6 31.2 1.6 C20.905 0.8 10.4 0.8 0 0.8 C0 0.8 0 0 0 0 Z " fill="#E5BAC8" transform="translate(48,3)"/>
<path d="M0 0 C1.97 0.8 1.6 0.8 4 1.6 C4.492 4 4.8 4 4.8 6.4 C4.487 7.2 4.8 8 4.8 8.8 C4.483 9.6 4.8 10.4 4.8 12 C4.455 12.8 4.8 13.6 4.8 15.2 C4.453 18.4 4.8 21.6 4 24.8 C4.383 27.2 4 29.6 4 32 C4.361 37.6 4 43.2 4 48.8 C4.243 54.4 4 60.8 4 67.2 C4.159 80 4 92.8 4 105.6 C3.67 105.6 3.2 105.6 3.2 105.6 C2.997 105.6 3.2 104.8 3.2 104.8 C2.908 92.8 3.2 80.8 2.4 68.8 C2.663 63.2 2.4 57.6 2.4 52 C2.541 46.4 2.4 40.8 2.4 35.2 C2.423 32.8 2.4 31.2 2.4 28.8 C2.38 25.6 2.4 23.2 2.4 20 C2.317 19.2 2.4 18.4 2.4 17.6 C2.231 11.2 1.6 5.6 0 0 Z " fill="#F4CEDB" transform="translate(174,30)"/>
<path d="M0 0 C2 0 4 0 6.4 0 C6 0.8 6.4 1.6 6.4 3.2 C4.35 2.4 2.4 2.4 0.8 1.6 C0.857 4.8 0.8 7.2 1.6 10.4 C3.197 13.6 3.2 16 4 20 C3.664 20.8 4 20.8 4 21.6 C3.836 23.2 4 24.8 4 25.6 C5.953 25.6 5.6 25.6 8 24.8 C8.609 23.2 8.8 23.2 8.8 21.6 C8.833 20 8.8 19.2 8.8 17.6 C10.398 20 11.2 21.6 11.2 24.8 C11.157 24.8 11.2 24.8 11.2 27.2 C10.67 27.2 10.4 28 9.6 28 C8.406 28 8.8 28 6.4 28 C5.871 28 5.6 28 4.8 28 C4.068 28 3.2 28 3.2 28 C2.67 28 2.4 27.2 1.6 27.2 C1.959 24.8 1.6 23.2 1.6 20.8 C0.68 21.6 -0.8 21.6 -1.6 22.4 C-1.67 19.2 -1.6 16.8 -0.8 14.4 C-1.825 13.6 -2.4 13.6 -3.2 13.6 C-4.325 13.6 -4.8 13.6 -6.4 12.8 C-6 12 -6.4 12 -6.4 11.2 C-4.35 11.2 -2.4 11.2 -0.8 11.2 C-1.012 10.4 -0.8 9.6 -0.8 8.8 C-1.04 8 -0.8 8 -0.8 6.4 C-1.074 4.8 -0.8 4 -0.8 3.2 C-1.065 2.4 -0.8 1.6 -0.8 0.8 C-0.67 0.8 0 0 0 0 Z " fill="#EEA1B9" transform="translate(132,90)"/>
<path d="M0 0 C2.671 0 5.6 0 8 0 C8.33 3.2 8.8 6.4 8.8 9.6 C2.945 11.2 3.2 11.2 0.8 11.2 C-0.246 9.6 0 9.6 -0.8 8 C-1.309 5.6 -0.8 3.2 -0.8 0.8 C-0.67 0.8 0 0 0 0 Z " fill="#F4B8CB" transform="translate(57,77)"/>
<path d="M0 0 C-0.33 0.8 -0.8 1.6 -0.8 1.6 C-2.764 2.4 -4.8 2.4 -6.4 2.4 C-8 3.2 -8 3.2 -9.6 4 C-10.887 4 -12 4 -12.8 4 C-17.185 5.6 -20.8 6.4 -24 8.8 C-27.688 12 -31.2 15.2 -33.6 17.6 C-34.33 16.8 -34.4 16 -35.2 15.2 C-32.05 10.4 -28 6.4 -23.2 4 C-15.381 0.8 -8 -0.8 0 0 Z " fill="#EBA1BA" transform="translate(48,4)"/>
<path d="M0 0 C0.33 0 0.8 0 0.8 0 C1.027 1.6 0.8 4 0.8 5.6 C1.074 7.2 0.8 8 0.8 8.8 C1 12 0.8 12 0 15.2 C-0.984 16 -1.6 16.8 -3.2 17.6 C-3.681 19.2 -4 20 -4.8 21.6 C-8.481 26.4 -13.6 28.8 -19.2 32 C-21.34 32.8 -21.6 32.8 -23.2 32.8 C-21.724 31.2 -20.8 29.6 -19.2 28 C-17.211 27.2 -17.6 27.2 -15.2 27.2 C-14.219 26.4 -12.8 26.4 -12 25.6 C-11.67 24.8 -11.2 24 -11.2 23.2 C-9.805 21.6 -8.8 20.8 -7.2 19.2 C-4.616 16.8 -3.2 13.6 -2.4 9.6 C-1.84 8.8 -1.6 7.2 -1.6 6.4 C-0.954 4 -0.8 2.4 0 0 Z " fill="#DD5F81" transform="translate(173,140)"/>
<path d="M0 0 C3 0 3.2 0 6.4 0 C6.33 0 6.4 0.8 7.2 0.8 C7.133 3.2 7.2 3.2 7.2 4.8 C7.128 5.6 7.2 6.4 7.2 7.2 C7.089 8 7.2 8 7.2 8.8 C6.67 9.6 6.4 9.6 6.4 9.6 C3 10.4 3.2 10.4 0 9.6 C-0.33 9.6 -0.8 9.6 -0.8 8.8 C-1.133 7.2 -0.8 7.2 -0.8 4.8 C-1.126 4.8 -0.8 4.8 -0.8 3.2 C-1.089 2.4 -0.8 1.6 -0.8 0.8 C-0.67 0.8 0 0 0 0 Z " fill="#F8C9D9" transform="translate(154,78)"/>
<path d="M0 0 C3 0 3.2 0 6.4 0 C6.33 0 6.4 0.8 7.2 0.8 C7.133 3.2 7.2 3.2 7.2 4.8 C7.128 5.6 7.2 6.4 7.2 7.2 C7.089 8 7.2 8 7.2 8.8 C6.67 9.6 6.4 9.6 6.4 9.6 C3 10.4 3.2 10.4 0 9.6 C-0.33 9.6 -0.8 9.6 -0.8 8.8 C-1.133 7.2 -0.8 7.2 -0.8 4.8 C-1.126 4.8 -0.8 4.8 -0.8 3.2 C-1.089 2.4 -0.8 1.6 -0.8 0.8 C-0.67 0.8 0 0 0 0 Z " fill="#EEB2C5" transform="translate(81,78)"/>
<path d="M0 0 C4.549 0 8.8 0 13.6 0 C15.187 0 16.8 0 18.4 0 C26.618 0 34.4 0 43.2 1.6 C43.272 1.6 43.2 1.6 44.8 1.6 C47.76 2.4 49.6 2.4 52 4.8 C52.291 4.8 52.8 5.6 52.8 6.4 C50.916 5.6 48.8 5.6 46.4 4.8 C46.457 4.8 46.4 4.8 44.8 4.8 C41.93 4 39.2 4 36 3.2 C31.61 2.4 27.2 1.6 23.2 1.6 C22.194 1.6 21.6 1.6 20.8 1.6 C18.781 1.6 16.8 1.6 14.4 1.6 C13.207 1.6 12 1.6 10.4 1.6 C6.914 0.8 3.2 0.8 0 0.8 C0 0.8 0 0 0 0 Z " fill="#E495AF" transform="translate(104,4)"/>
<path d="M0 0 C0.66 0 1.6 0 1.6 0 C2.66 9.6 3.2 19.2 4 28.8 C3.01 28.8 2.4 28 0.8 28 C-1 28 -3.2 28 -4.8 28 C-5 28 -4.8 27.2 -4.8 27.2 C-4.593 27.2 -4.8 27.2 -2.4 26.4 C-2.113 26.4 -2.4 26.4 0 25.6 C0.568 23.2 0.8 23.2 0.8 20 C0.481 20 0.8 19.2 0.8 18.4 C0.439 16.8 0 14.4 0 12.8 C0.287 12 0 10.4 0 8.8 C0.189 6.4 0 3.2 0 0 Z " fill="#E06489" transform="translate(78,88)"/>
<path d="M0 0 C2.897 0 5.6 0.8 8 1.6 C8.336 4 8 4 8 6.4 C6.539 7.2 6.4 7.2 4.8 8 C3.999 8.8 3.2 8.8 2.4 9.6 C2.442 9.6 2.4 9.6 0.8 9.6 C0.34 9.6 0 9.6 -0.8 8.8 C-1.23 7.2 -1.6 7.2 -0.8 4.8 C-1.181 4 -0.8 3.2 -0.8 3.2 C-1.113 2.4 -0.8 1.6 -0.8 0.8 C-0.67 0.8 0 0 0 0 Z " fill="#E26388" transform="translate(110,104)"/>
<path d="M0 0 C2.875 0 3.2 0 6.4 0.8 C7.875 3.2 8 3.2 8.8 4.8 C8.074 5.6 7.2 6.4 6.4 7.2 C5.665 8 4.8 8.8 4.8 8.8 C4.076 9.6 3.2 9.6 3.2 9.6 C2.01 9.6 0.8 9.6 0 8.8 C-0.547 7.2 -0.8 7.2 -0.8 4.8 C-0.827 4 -0.8 3.2 -0.8 3.2 C-0.99 2.4 -0.8 1.6 -0.8 0.8 C-0.67 0.8 0 0 0 0 Z " fill="#E37B99" transform="translate(37,104)"/>
<path d="M0 0 C2.819 4.8 3.2 9.6 3.2 15.2 C3.024 16 3.2 16.8 3.2 16.8 C2.67 16.8 2.4 16.8 1.6 16.8 C1.596 15.2 1.6 14.4 0.8 12.8 C0.849 12 0.8 12 0.8 9.6 C0.27 9.6 0 8.8 0 8 C-0.33 10.4 -0.8 12.8 -0.8 15.2 C-1.33 15.2 -1.6 15.2 -1.6 15.2 C-2.403 13.6 -2.4 12 -3.2 11.2 C-3.239 10.4 -3.2 9.6 -3.2 8.8 C-3.73 8 -4 7.2 -4 7.2 C-4.619 7.2 -5.6 8 -5.6 8 C-6.576 8 -7.2 8.8 -8 8.8 C-8.66 8.8 -9.6 8 -9.6 8 C-10 9.6 -9.6 11.2 -9.6 12.8 C-10.33 12.8 -10.4 12.8 -11.2 12.8 C-11.312 10.4 -11.2 10.4 -11.2 7.2 C-8.875 5.6 -8.8 5.6 -6.4 4.8 C-2.688 5.6 -2.4 5.6 0 6.4 C0 4 0 2.4 0 0 Z " fill="#EFA2B9" transform="translate(140,71)"/>
<path d="M0 0 C0.33 0 0 0 1.6 0.8 C2.587 3.2 3.2 5.6 3.2 8.8 C3.732 9.6 4 11.2 4 12.8 C4.321 12.8 4.8 13.6 4.8 14.4 C5 16 4.8 16 7.2 17.6 C7.398 20 8 21.6 8 24 C7.01 24 6.4 23.2 4.8 23.2 C2.958 20.8 1.6 17.6 0.8 15.2 C0.262 10.4 0 4.8 0 0 Z " fill="#E06587" transform="translate(7,137)"/>
<path d="M0 0 C1.338 1.6 1.6 3.2 2.4 4.8 C2.35 5.6 2.4 6.4 2.4 7.2 C2.453 8 2.4 8.8 2.4 9.6 C2.562 10.4 2.4 11.2 2.4 12 C2.664 12.8 2.4 13.6 2.4 14.4 C2.836 16.8 3.2 19.2 3.2 20.8 C0.617 21.6 0.8 21.6 -1.6 22.4 C-3.794 20 -4.8 17.6 -4.8 15.2 C-4.688 12.8 -4.8 12.8 -4 11.2 C-2.603 14.4 -1.6 16.8 -1.6 20 C-1.34 20 -0.8 19.2 0 19.2 C0.227 16.8 0 16.8 0 14.4 C0.189 13.6 0 12.8 0 12 C0.167 12 0 12 0 9.6 C0.12 8.8 0 8.8 0 6.4 C0.074 4.8 0 2.4 0 0 Z " fill="#FBC8D8" transform="translate(66,95)"/>
<path d="M0 0 C0.99 0 1.6 0 3.2 0 C3.33 0.8 4 1.6 4 1.6 C5.848 2.4 5.6 2.4 8 2.4 C8.796 2.4 9.6 2.4 10.4 2.4 C10.568 2.4 10.4 2.4 12 1.6 C11.938 4 12 4 11.2 6.4 C8.583 6.4 6.4 6.4 4 6.4 C4 9.6 4 13.6 4 16.8 C3.67 16.8 3.2 16.8 3.2 16.8 C3 12 3.2 8 3.2 3.2 C2.34 3.2 1.6 3.2 0.8 3.2 C1 4.8 0.8 7.2 0.8 8.8 C0.67 8.8 0 8.8 0 8.8 C0 6.4 0 3.2 0 0 Z " fill="#E4799A" transform="translate(77,85)"/>
<path d="M0 0 C2.562 0 2.4 0 4.8 0 C5.812 1.6 5.6 1.6 6.4 4 C5.34 3.2 4.8 2.4 4 1.6 C1.893 2.4 1.6 2.4 0 3.2 C-0.406 4.8 -0.8 4.8 0 7.2 C-0.259 8 0 8.8 0 9.6 C-0.158 10.4 0 11.2 0 12.8 C0.023 14.4 0 16 0 17.6 C0.194 18.4 0 19.2 0 20 C0.186 20.8 0 21.6 0 22.4 C-0.99 22.4 -1.6 22.4 -3.2 23.2 C-3.33 20 -4 16.8 -4 14.4 C-3.34 14.4 -2.4 14.4 -1.6 14.4 C-2.023 12.8 -2.4 12 -2.4 11.2 C-2.088 10.4 -2.4 9.6 -2.4 8 C-2.148 7.2 -2.4 5.6 -2.4 4.8 C-2.131 4 -2.4 3.2 -1.6 1.6 C-1.34 1.6 -0.8 0.8 0 0 Z " fill="#EA97B1" transform="translate(69,64)"/>
<path d="M0 0 C0.66 0 1.6 0 1.6 0 C2.633 1.6 2.4 1.6 3.2 4.8 C3.293 5.6 3.2 6.4 4 7.2 C3.754 8 4 8 4 8.8 C5.953 8.8 5.6 8.8 8 8 C8.609 6.4 8.8 6.4 8.8 4.8 C8.833 3.2 8.8 2.4 8.8 0.8 C10.398 3.2 11.2 4.8 11.2 8 C11.126 8.8 11.2 9.6 11.2 9.6 C10.67 10.4 10.4 10.4 9.6 11.2 C8.406 11.2 8.8 11.2 6.4 11.2 C5.871 11.2 5.6 11.2 4.8 11.2 C4.068 11.2 3.2 11.2 3.2 11.2 C2.67 10.4 2.4 10.4 1.6 9.6 C1.959 8 1.6 6.4 1.6 4 C0.68 4 -0.8 4.8 -1.6 4.8 C-1.125 2.4 -0.8 2.4 0 0 Z " fill="#EA85A2" transform="translate(132,107)"/>
<path d="M0 0 C0.99 0 1.6 0.8 3.2 0.8 C4.669 5.6 4 11.2 4 16 C3.34 16 2.4 16 1.6 16 C-0.47 10.4 0 5.6 0 0 Z " fill="#E07091" transform="translate(141,98)"/>
<path d="M0 0 C0.302 0 0 0 1.6 0.8 C2.283 3.2 2.4 3.2 2.4 6.4 C2.207 7.2 2.4 8.8 2.4 9.6 C2.147 11.2 2.4 12 2.4 13.6 C2.059 14.4 2.4 16 2.4 16.8 C1.977 20 1.6 23.2 1.6 25.6 C1.499 25.6 0.8 25.6 0.8 25.6 C0.829 17.6 0.8 10.4 0.8 1.6 C-2.801 3.2 -6.4 4.8 -10.4 5.6 C-9.511 4.8 -8.8 3.2 -8 1.6 C-5.317 0.8 -3.2 0 0 0 Z " fill="#F3B8CB" transform="translate(28.1708984375,58.109130859375)"/>
<path d="M0 0 C1.363 0.8 1.6 0.8 3.2 3.2 C3.866 5.6 4.8 7.2 4.8 9.6 C5.362 10.4 5.6 11.2 5.6 12 C7.213 18.4 7.2 24 7.2 30.4 C5.055 26.4 4.8 24 4.8 20 C4.281 15.2 3.2 11.2 0.8 6.4 C-0.029 4 0 2.4 0 0 Z " fill="#E89FB6" transform="translate(170,22)"/>
<path d="M0 0 C0.99 0 1.6 0.8 3.2 0.8 C2.67 0.8 2.4 0.8 0.8 1.6 C0.586 4 0.8 4 0 6.4 C0.3 6.4 0 7.2 0 8 C0.099 8.8 0 9.6 0 9.6 C3.306 9.6 6.4 8.8 8.8 7.2 C9.75 4.8 9.6 4.8 9.6 3.2 C11.312 4.8 11.2 4.8 12 7.2 C10.272 8.8 9.6 9.6 7.2 11.2 C3.812 12 4 12 0.8 12 C0.34 12 0 11.2 -0.8 11.2 C-1.23 8.8 -1.6 8.8 -0.8 6.4 C-1.184 5.6 -0.8 5.6 -0.8 3.2 C-1.113 2.4 -0.8 1.6 -0.8 0.8 C-0.67 0.8 0 0 0 0 Z " fill="#FACCDA" transform="translate(109,103)"/>
<path d="M0 0 C0.33 0 0.8 0 0.8 0 C1.061 0.8 0.8 2.4 0.8 3.2 C1.268 4.8 1.6 6.4 1.6 7.2 C1.477 8 1.6 8.8 1.6 9.6 C1.761 12.8 2.4 16.8 2.4 20 C3 23.2 3.2 23.2 3.2 25.6 C5.31 25.6 8 25.6 9.6 25.6 C10 26.4 9.6 26.4 9.6 27.2 C8.711 27.2 7.2 27.2 6.4 27.2 C5.406 27.2 4.8 27.2 4 27.2 C3.303 27.2 2.4 27.2 1.6 27.2 C0.224 23.2 0 20.8 0 16.8 C-0.189 16 0 14.4 0 13.6 C-0.159 12.8 0 12 0 10.4 C-0.116 9.6 0 8.8 0 7.2 C-0.074 4.8 0 2.4 0 0 Z " fill="#E88EA9" transform="translate(30,70)"/>
<path d="M0 0 C0.33 0 0.8 0 0.8 0 C2.009 4 2.4 7.2 2.4 11.2 C2.053 12 2.4 13.6 2.4 14.4 C2.024 15.2 2.4 16 1.6 16.8 C1.34 16.8 0.8 16.8 0 16.8 C-1.614 12.8 -2.4 8.8 -1.6 4 C-1.461 3.2 -1.6 2.4 -0.8 0.8 C-0.67 0.8 0 0 0 0 Z " fill="#E07494" transform="translate(140,78)"/>
<path d="M0 0 C3.646 0 7.2 0 11.2 0 C11.458 0 11.2 0 14.4 0 C15.081 0 16 0 16.8 0 C18.006 -0.8 19.2 -0.8 20 -0.8 C20.571 0 21.6 0 22.4 0 C22.33 1.6 22.4 2.4 23.2 4 C15.41 3.2 8 2.4 0 0.8 C0 0.8 0 0 0 0 Z " fill="#F5D3DF" transform="translate(128,3)"/>
<path d="M0 0 C0.33 0 0.8 0 0.8 0 C1 1.6 0.8 4 0.8 6.4 C1.66 6.4 2.4 6.4 3.2 6.4 C3.33 13.6 4 20.8 4 28 C3.67 28 3.2 28 3.2 28 C2.49 24.8 1.6 21.6 1.6 18.4 C1.428 18.4 1.6 18.4 0.8 16 C0.241 10.4 0 5.6 0 0 Z " fill="#F9C7D6" transform="translate(93,72)"/>
<path d="M0 0 C-2.161 2.4 -4 3.2 -7.2 4.8 C-9 7.2 -8.8 7.2 -9.6 8.8 C-9.751 9.6 -9.6 10.4 -10.4 12 C-10.342 12.8 -10.4 14.4 -11.2 16 C-11.33 16 -12 16 -12 16 C-12.254 12 -12.8 8 -10.4 4 C-9 1.6 -8.8 1.6 -7.2 0.8 C-4.652 0 -2.4 0 0 0 Z " fill="#EA7298" transform="translate(50,56)"/>
<path d="M0 0 C0 0.8 0 1.6 0 1.6 C-1.242 3.2 -1.6 3.2 -3.2 4 C-4.892 5.6 -6.4 6.4 -8 8 C-8 6.4 -8 5.6 -8 4 C-11.96 4 -16 4 -20 4 C-20 4 -20 3.2 -20 3.2 C-19.602 3.2 -20 3.2 -17.6 3.2 C-11.781 2.4 -5.6 0 0 0 Z " fill="#E76E90" transform="translate(46,119)"/>
<path d="M0 0 C2 0 4 0 6.4 0 C6.33 0 6.4 0.8 7.2 0.8 C7.087 2.4 7.2 4.8 7.2 6.4 C7.094 7.2 7.2 8 7.2 9.6 C7.08 10.4 7.2 11.2 7.2 12.8 C7.058 13.6 7.2 14.4 7.2 16 C7.037 18.4 7.2 21.6 7.2 24 C6.67 24 6.4 24 6.4 24 C5.939 23.2 5.6 21.6 5.6 20.8 C5.732 19.2 5.6 17.6 5.6 16 C5.523 16 5.6 15.2 5.6 14.4 C5.198 10.4 4.8 6.4 4 1.6 C1.938 0.8 1.6 0.8 0 0 Z " fill="#EDAABF" transform="translate(142,64)"/>
<path d="M0 0 C1.335 2.4 1.6 4 2.4 6.4 C2.126 8 2.4 10.4 1.6 12 C1.34 12 0.8 12 0 12 C0 13.6 0 14.4 0 16 C-0.66 16 -1.6 15.2 -1.6 15.2 C-1.676 13.6 -1.6 11.2 -0.8 9.6 C-1.018 8.8 -0.8 8.8 -0.8 8 C-2.938 6.4 -3.2 6.4 -4.8 6.4 C-2 6.4 -1.6 6.4 0 7.2 C0 4.8 0 2.4 0 0 Z " fill="#EC97B1" transform="translate(59,96)"/>
<path d="M0 0 C5.28 0 10.4 0 16 0 C16 0 16 0.8 16 0.8 C15.406 0.8 15.2 0.8 14.4 0.8 C7.529 1.6 1.6 3.2 -4.8 4.8 C-4.67 4 -4 3.2 -4 1.6 C-1.938 1.6 -1.6 1.6 0 1.6 C0 1.6 0 0.8 0 0 Z " fill="#F7E1E8" transform="translate(32,3)"/>
<path d="M0 0 C2 4 1.6 4 2.4 7.2 C2.126 8 2.4 8.8 1.6 9.6 C1.67 10.4 1.6 10.4 0.8 11.2 C-1.938 11.2 -1.6 11.2 -4.8 11.2 C-6.25 8 -6.4 8 -7.2 4.8 C-7.66 4.8 -8 4.8 -8.8 4.8 C-9 4 -8.8 2.4 -8.8 0.8 C-8.34 0.8 -8 0.8 -7.2 0.8 C-6.168 3.2 -5.6 4.8 -4.8 7.2 C-4.654 8 -4 8.8 -4 8.8 C-2.68 8.8 -1.6 8.8 0 8.8 C0 6.4 0 3.2 0 0 Z " fill="#E57F9D" transform="translate(68,107)"/>
<path d="M0 0 C6.849 0 13.6 0 20 1.6 C20 2.4 20 2.4 20 3.2 C14.72 3.2 9.6 3.2 4 3.2 C4 2.4 4 1.6 4 0.8 C2 0 1.6 0 0 0 Z " fill="#DF8DA3" transform="translate(33,173)"/>
<path d="M0 0 C1.499 3.2 0.8 5.6 0.8 8.8 C0.34 8.8 0 8.8 -0.8 8.8 C-1.33 9.6 -1.6 11.2 -1.6 12 C-2.061 11.2 -2.4 11.2 -2.4 10.4 C-2.267 9.6 -2.4 8.8 -2.4 8 C-2.519 7.2 -2.4 6.4 -2.4 6.4 C-3 4 -3.2 4 -4 0.8 C-2 0 -1.6 0 0 0 Z " fill="#E47999" transform="translate(69,86)"/>
<path d="M0 0 C0.551 1.6 0.8 1.6 0.8 4 C0.375 5.6 0 7.2 -0.8 8.8 C-1.564 11.2 -2.4 13.6 -2.4 16 C-2.689 16.8 -3.2 17.6 -3.2 17.6 C-3.33 17.6 -4 17.6 -4 17.6 C-4.444 12.8 -4 8.8 -1.6 4 C-1.35 2.4 -0.8 1.6 0 0 Z " fill="#E78CAA" transform="translate(11,23)"/>
<path d="M0 0 C1.669 0 3.2 0.8 4.8 0.8 C5.928 0.8 7.2 0.8 8 1.6 C8.534 1.6 9.6 1.6 9.6 1.6 C10 2.4 9.6 3.2 9.6 4 C6.37 4 2.4 4 -0.8 4 C-0.67 2.4 0 1.6 0 0 Z " fill="#EEDFE2" transform="translate(27,172)"/>
<path d="M0 0 C0.66 0.8 1.6 1.6 1.6 1.6 C2.046 2.4 2.4 2.4 2.4 4.8 C2.397 4.8 2.4 4.8 3.2 7.2 C5.504 8 5.6 8 8.8 8 C9.574 8 10.4 8 12 8 C12.02 8 12 8 14.4 8 C14 8 14.4 8.8 14.4 8.8 C11.854 8.8 9.6 8.8 7.2 8.8 C6.951 8.8 6.4 8.8 5.6 8.8 C4.139 8.8 2.4 8.8 0.8 8.8 C0.67 8.8 0 8 0 8 C-0.071 6.4 0 5.6 0 4 C-0.053 3.2 0 2.4 0 1.6 C-0.029 1.6 0 1.6 0 0 Z " fill="#FED4E2" transform="translate(98,112)"/>
<path d="M0 0 C1.984 0.8 1.6 0.8 4 1.6 C4.303 4.8 4 6.4 4 8.8 C4.232 9.6 4 10.4 4 11.2 C4.148 12.8 4 14.4 4 16 C3.67 16 3.2 16 3.2 16 C2.611 14.4 2.4 14.4 2.4 12.8 C2.114 12 1.6 11.2 1.6 10.4 C1.711 9.6 1.6 8.8 1.6 8 C1.299 7.2 0.8 6.4 0.8 5.6 C0.674 4 0 1.6 0 0 Z " fill="#F3E1E7" transform="translate(174,30)"/>
<path d="M0 0 C0.33 0.8 0.8 1.6 0.8 1.6 C0.477 4 0.8 4 0 5.6 C-1.755 9.6 -2.4 12 -3.2 16 C-3.33 16 -4 16 -4 16 C-4 12 -4 8.8 -4 4.8 C-3.34 4.8 -2.4 4.8 -1.6 4.8 C-2.041 4 -2.4 4 -2.4 3.2 C-2.084 2.4 -2.4 1.6 -1.6 0.8 C-1.34 0.8 -0.8 0 0 0 Z " fill="#F8E3EB" transform="translate(8,27)"/>
<path d="M0 0 C2 0 1.6 0 4 0.8 C4 1.6 4 2.4 4 3.2 C4.99 3.2 5.6 3.2 7.2 3.2 C7 4 7.2 4 7.2 4.8 C7.99 4.8 8 4.8 12.8 6.4 C11.312 6.4 11.2 6.4 8.8 7.2 C5.498 5.6 2.4 4.8 0 1.6 C0 1.6 0 0.8 0 0 Z " fill="#DA5479" transform="translate(19,164)"/>
<path d="M0 0 C0.66 0 1.6 0 1.6 0 C2.248 1.6 2.4 4 2.4 5.6 C2.815 6.4 3.2 7.2 3.2 8.8 C3.05 9.6 3.2 10.4 3.2 11.2 C2.01 11.2 0.8 12 0 12 C0 8 0 4 0 0 Z " fill="#DF6C8E" transform="translate(68,95)"/>
<path d="M0 0 C0.66 0 1.6 0 1.6 0 C2.33 3.2 2.4 5.6 3.2 8.8 C2.01 8.8 0.8 8 0 8 C-2 8 -4 8 -6.4 8 C-6 8 -6.4 7.2 -6.4 7.2 C-5.598 7.2 -5.6 7.2 -3.2 7.2 C-2.717 6.4 -1.6 6.4 -0.8 6.4 C-0.188 3.2 0 3.2 0 0 Z " fill="#E26F91" transform="translate(79,108)"/>
<path d="M0 0 C0.66 0 1.6 0.8 1.6 0.8 C2.195 3.2 2.4 3.2 2.4 4.8 C2.107 5.6 2.4 6.4 2.4 7.2 C2.047 8 2.4 8.8 1.6 8.8 C1.01 8.8 0 8.8 -0.8 8.8 C-1.027 8 -0.8 6.4 -0.8 4.8 C-1.074 4 -0.8 4 -0.8 3.2 C-1.065 2.4 -0.8 1.6 -0.8 0.8 C-0.67 0.8 0 0 0 0 Z " fill="#FED1E0" transform="translate(86,78)"/>
<path d="M0 0 C2 0 4 0 6.4 0 C6 0.8 6.4 1.6 6.4 3.2 C5.68 3.2 5.6 3.2 4 3.2 C3.382 3.2 2.4 3.2 1.6 3.2 C1.67 4 1.6 4.8 0.8 6.4 C0.34 6.4 0 6.4 -0.8 6.4 C-1.043 4 -0.8 2.4 -0.8 0.8 C-0.67 0.8 0 0 0 0 Z " fill="#FBCDDC" transform="translate(59,90)"/>
<path d="M0 0 C0.557 0 0.8 0.8 1.6 0.8 C1.357 1.6 0.8 2.4 0.8 4 C0.028 3.2 -0.8 2.4 -1.6 1.6 C-1.643 2.4 -1.6 3.2 -2.4 4 C-4.375 3.2 -4 3.2 -6.4 2.4 C-6.312 4 -6.4 5.6 -6.4 8 C-6.643 8 -7.2 8 -7.2 8 C-7.625 4.8 -8 4.8 -7.2 1.6 C-4.65 0 -3.2 -0.8 0 0 Z " fill="#F4ACC1" transform="translate(136.3125,76.375)"/>
<path d="M0 0 C2.007 0 4 0.8 6.4 0.8 C6 1.6 6.4 1.6 6.4 1.6 C5.598 2.4 5.6 2.4 3.2 2.4 C2.717 2.4 1.6 2.4 0.8 3.2 C0.188 5.6 0 5.6 0 8 C0.66 8 0.8 8 4 8.8 C3.01 9.6 2.4 9.6 0.8 9.6 C0.34 9.6 0 9.6 -0.8 8.8 C-1.23 7.2 -1.6 7.2 -0.8 4.8 C-1.181 4 -0.8 3.2 -0.8 3.2 C-1.113 2.4 -0.8 1.6 -0.8 0.8 C-0.67 0.8 0 0 0 0 Z " fill="#E286A1" transform="translate(110,104)"/>
<path d="M0 0 C2 0 1.6 0 4 0.8 C4.25 3.2 4 3.2 4 4.8 C2.35 4.8 0.8 4.8 -0.8 4.8 C-0.67 3.2 0 1.6 0 0 Z " fill="#E35881" transform="translate(39,106)"/>
<path d="M0 0 C0.66 0 1.6 0.8 1.6 0.8 C2.282 3.2 2.4 5.6 1.6 8 C1.01 8 0 8 -0.8 8 C-1.098 2.4 -0.8 2.4 -0.8 0.8 C-0.67 0.8 0 0 0 0 Z " fill="#FED8E6" transform="translate(81,78)"/>
<path d="M0 0 C2.908 1.6 4.8 2.4 7.2 4.8 C7.51 5.6 7.2 5.6 8.8 6.4 C9.215 7.2 9.6 7.2 9.6 8 C10 8.8 9.6 9.6 9.6 9.6 C7.527 8.8 6.4 8 4 6.4 C3.786 5.6 3.2 4.8 2.4 4 C2.49 3.2 2.4 3.2 0.8 1.6 C0.785 0.8 0 0.8 0 0 Z " fill="#E99CB6" transform="translate(160,12)"/>
<path d="M0 0 C0.66 0 1.6 0.8 1.6 0.8 C2.195 3.2 2.4 3.2 2.4 4.8 C2.107 5.6 2.4 6.4 2.4 7.2 C2.059 7.2 2.4 7.2 1.6 8.8 C1.34 8.8 0.8 8.8 0 8.8 C-0.703 7.2 -0.8 7.2 -1.6 5.6 C-1.441 4.8 -1.6 4 -1.6 4 C-1.885 3.2 -1.6 2.4 -1.6 1.6 C-1.34 1.6 -0.8 0.8 0 0 Z " fill="#E4698E" transform="translate(140,86)"/>
<path d="M0 0 C0.66 0 1.6 0.8 1.6 0.8 C2.282 3.2 2.4 5.6 1.6 8 C1.34 8 0.8 8 0 8 C-0.879 2.4 -0.8 2.4 -0.8 0.8 C-0.67 0.8 0 0 0 0 Z " fill="#FFE3EF" transform="translate(154,78)"/>
<path d="M0 0 C-3.152 2.4 -6.4 3.2 -9.6 4 C-9.25 2.4 -9.6 2.4 -8 0 C-5.054 -1.6 -3.2 -0.8 0 0 Z " fill="#FCD1E1" transform="translate(28,60)"/>
<path d="M0 0 C0.33 0 0.8 0 0.8 0 C1.57 1.6 1.6 1.6 2.4 4 C2.219 4 2.4 4 2.4 5.6 C3.029 8 2.4 9.6 1.6 12 C1.008 10.4 0.8 10.4 0 8.8 C-0.195 6.4 0 6.4 0 4 C-0.107 3.2 0 2.4 0 1.6 C-0.047 1.6 0 0.8 0 0 Z " fill="#F2C7D3" transform="translate(5,138)"/>
<path d="M0 0 C0.66 0 1.6 0 1.6 0 C2.33 2.4 2.4 4.8 3.2 7.2 C2.01 7.2 0.8 7.2 0 7.2 C0 4.8 0 2.4 0 0 Z " fill="#FEDCE8" transform="translate(130,79)"/>
<path d="M0 0 C0.66 0 1.6 0 1.6 0 C2.33 2.4 2.4 4.8 3.2 7.2 C2.01 6.4 0.8 6.4 0 6.4 C-0.188 3.2 0 3.2 0 0 Z " fill="#FEE1EC" transform="translate(62,79)"/>
<path d="M0 0 C0.66 0 1.6 0 1.6 0 C2.33 2.4 2.4 4.8 3.2 7.2 C2.01 7.2 0.8 7.2 0 7.2 C0 4.8 0 2.4 0 0 Z " fill="#FEDDE8" transform="translate(57,79)"/>
<path d="M0 0 C0.362 0 0 0 2.4 0 C2.472 0 2.4 0 4 0 C3.215 0.8 2.4 1.6 1.6 2.4 C-0.116 2.4 -2.4 2.4 -4 3.2 C-5.115 3.2 -6.4 4 -7.2 4 C-6.795 3.2 -6.4 2.4 -6.4 0.8 C-3.838 0 -2.4 0 0 0 Z " fill="#E890AD" transform="translate(36.125,5.9375)"/>
<path d="M0 0 C0.33 0 0.8 0 0.8 0 C1 1.6 0.8 4 0.8 6.4 C1.66 6.4 2.4 6.4 3.2 6.4 C3 8 3.2 9.6 3.2 11.2 C1.5 9.6 1.6 9.6 0 8 C-0.27 5.6 0 2.4 0 0 Z " fill="#FAD5DF" transform="translate(93,72)"/>
</svg>
